<?xml version="1.0" encoding="UTF-8"?>
<svg viewBox="0 0 271 271" xmlns="http://www.w3.org/2000/svg">
<path d="M271 135.5C271 210.335 210.335 271 135.5 271C60.6654 271 0 210.335 0 135.5C0 60.6654 60.6654 0 135.5 0C210.335 0 271 60.6654 271 135.5Z" fill="#3095B4"/>
<path d="m52.18 129.92c4.9658 40.049 23.133 70.653 54.04 92.169-0.233 0.196-0.4 0.355-0.582 0.49-3.312 2.383-6.6333 4.761-9.9406 7.165-0.4239 0.309-0.75 0.335-1.2065 0.108-3.8757-1.904-7.5511-4.204-11.091-6.773-5.1986-3.781-10.08-8.016-14.552-12.808-3.8291-4.101-7.2948-8.548-10.406-13.34-6.7126-10.327-11.622-21.582-14.469-33.931-1.5466-6.716-2.5947-13.515-2.8928-20.443-0.0606-1.428-0.0745-2.857-0.0792-4.286 0-0.212 0.1165-0.516 0.2655-0.629 3.5729-2.574 7.1551-5.133 10.742-7.691 0.0233-0.011 0.0559-0.011 0.1723-0.031z" fill="#fff"/>
<path d="m164.72 48.885c3.703-2.6617 7.276-5.2357 10.863-7.789 0.172-0.1238 0.507-0.1238 0.708-0.0258 3.843 1.8982 7.574 4.0441 11.026 6.7109 3.177 2.4503 6.321 4.9727 9.368 7.6241 4.122 3.585 7.798 7.7013 11.217 12.096 4.183 5.3802 7.77 11.214 10.872 17.409 4.351 8.6763 7.379 17.905 9.228 27.623 0.895 4.694 1.57 9.419 1.849 14.206 0.117 1.965 0.122 3.941 0.145 5.911 5e-3 0.243-0.117 0.594-0.289 0.718-3.587 2.604-7.183 5.184-10.868 7.835-4.97-40.178-23.161-70.788-54.119-92.319z" fill="#fff"/>
<path d="m97.915 91.983h3.2843c4.891 0 9.782 0.0155 14.669-0.0154 0.61 0 0.861 0.2218 1.02 0.8408 2.464 9.5014 4.942 18.993 7.42 28.489 2.418 9.275 4.84 18.549 7.258 27.824 0.703 2.698 1.402 5.396 2.11 8.093 0.056 0.212 0.145 0.413 0.312 0.872 5.8-22.175 11.539-44.114 17.273-66.057h18.042c-0.135 0.4694-0.247 0.8717-0.368 1.2741-4.901 16.326-9.806 32.652-14.706 48.978-3.657 12.179-7.305 24.363-10.933 36.552-0.205 0.691-0.476 0.908-1.128 0.903-5.487-0.031-10.979-0.036-16.467 5e-3 -0.717 5e-3 -0.964-0.294-1.169-0.975-2.269-7.459-4.56-14.913-6.848-22.361-2.659-8.672-5.324-17.338-7.989-26.009-2.59-8.428-5.184-16.852-7.779-25.281-1.267-4.116-2.5293-8.2323-3.7963-12.349-0.0559-0.2166-0.1118-0.4384-0.205-0.7841z" fill="#fff"/>
</svg>
