<?xml version="1.0" encoding="UTF-8"?>
<svg version="1.1" viewBox="33 20 139 137" xmlns="http://www.w3.org/2000/svg">
<defs>
<style>.st0 {
        fill: none;
        stroke: #fff;
        stroke-linecap: round;
        stroke-linejoin: round;
        stroke-width: 4px;
      }</style>
</defs>
<path class="st0" d="m86.7 49.8c2.3-6.6 8.6-11.4 16-11.4s16.9 7.6 16.9 16.9-7.6 16.9-16.9 16.9-48.9 0-48.9 0"/>
<path class="st0" d="m100.9 130.4c1.8 5.2 6.7 8.9 12.5 8.9 7.3 0 13.2-5.9 13.2-13.2s-5.9-13.2-13.2-13.2-50.5 0-50.5 0"/>
<path class="st0" d="m130.1 73.8c2.3-6.6 8.6-11.4 16-11.4s16.9 7.6 16.9 16.9-7.6 16.9-16.9 16.9-103.7 0-103.7 0"/>
</svg>
