<?xml version="1.0" encoding="UTF-8"?>
<svg version="1.1" viewBox="33 20 139 137" xmlns="http://www.w3.org/2000/svg">
<defs>
<style>.st0 {
        fill: none;
        stroke: #fff;
        stroke-linecap: round;
        stroke-linejoin: round;
        stroke-width: 4px;
      }</style>
</defs>
<path class="st0" d="m53.9 114.4c2-2.9 5.6-4.9 9.8-4.9s7.8 2 9.8 4.9"/>
<path class="st0" d="m92.9 114.4c-2 2.9-5.6 4.8-9.7 4.8s-7.8-1.9-9.7-4.8"/>
<path class="st0" d="m93 114.4c2-2.9 5.6-4.9 9.8-4.9s7.8 2 9.8 4.9"/>
<path class="st0" d="m132 114.4c-2 2.9-5.6 4.8-9.7 4.8s-7.8-1.9-9.7-4.8"/>
<path class="st0" d="m132 114.4c2-2.9 5.6-4.9 9.8-4.9s7.8 2 9.8 4.9"/>
<path class="st0" d="m161.3 119.2c-4.1 0-7.8-1.9-9.7-4.8"/>
<path class="st0" d="m53.9 114.4c-2 2.9-5.6 4.8-9.7 4.8"/>
<path class="st0" d="m53.9 139.7c2-2.9 5.6-4.9 9.8-4.9s7.8 2 9.8 4.9"/>
<path class="st0" d="m92.9 139.7c-2 2.9-5.6 4.8-9.7 4.8s-7.8-1.9-9.7-4.8"/>
<path class="st0" d="m93 139.7c2-2.9 5.6-4.9 9.8-4.9s7.8 2 9.8 4.9"/>
<path class="st0" d="m132 139.7c-2 2.9-5.6 4.8-9.7 4.8s-7.8-1.9-9.7-4.8"/>
<path class="st0" d="m132 139.7c2-2.9 5.6-4.9 9.8-4.9s7.8 2 9.8 4.9"/>
<path class="st0" d="m161.3 144.5c-4.1 0-7.8-1.9-9.7-4.8"/>
<path class="st0" d="m53.9 139.7c-2 2.9-5.6 4.8-9.7 4.8"/>
<path class="st0" d="M103.5,96.6c-12.4,0-22.5-10.1-22.5-22.5,0,0-.9-13.9,21.9-41"/>
<path class="st0" d="M102.3,96.6c12.4,0,22.5-10.1,22.5-22.5,0,0,.9-13.9-21.9-41"/>
</svg>
