<?xml version="1.0" encoding="UTF-8"?>
<svg display="block" fill="none" overflow="visible" preserveAspectRatio="none" viewBox="0 0 274.99 248" xmlns="http://www.w3.org/2000/svg">
<g fill="var(--fill-0, white)" fill-opacity=".5">
<path d="m16.26 116.68c7.2252 52.553 33.659 92.712 78.63 120.94-0.3389 0.258-0.5829 0.467-0.8473 0.643-4.819 3.128-9.6517 6.248-14.464 9.402-0.6168 0.406-1.0912 0.44-1.7555 0.142-5.6392-2.497-10.987-5.516-16.138-8.887-7.5641-4.962-14.667-10.519-21.174-16.807-5.5714-5.381-10.614-11.216-15.142-17.504-9.767-13.551-16.911-28.32-21.052-44.525-2.2503-8.813-3.7753-17.727-4.2091-26.824-0.088113-1.875-0.10845-3.75-0.10845-5.625 0-0.277 0.16945-0.677 0.38634-0.826 5.1986-3.384 10.411-6.735 15.63-10.092 0.0271-0.02 0.0745-0.013 0.244-0.047"/>
<path d="m180.01 10.347c5.389-3.4926 10.588-6.8702 15.806-10.221 0.251-0.16245 0.739-0.16245 1.031-0.033844 5.592 2.4841 11.021 5.3067 16.043 8.8061 4.623 3.2152 9.198 6.5251 13.624 10.004 5.998 4.7043 11.346 10.106 16.321 15.88 6.086 7.0598 11.305 14.715 15.819 22.844 6.331 11.385 10.737 23.501 13.427 36.247 1.302 6.1595 2.285 12.36 2.691 18.642 0.17 2.579 0.177 5.171 0.21 7.757 0 0.318-0.169 0.778-0.42 0.94-5.219 3.419-10.451 6.803-15.813 10.282-7.238-52.715-33.706-92.88-78.752-121.14"/>
<path d="m82.806 66.9h4.7784c7.1168 0 14.227 0.0203 21.344-0.0203 0.888 0 1.254 0.291 1.484 1.1033 3.586 12.468 7.191 24.922 10.797 37.384 3.518 12.17 7.043 24.34 10.56 36.51 1.024 3.541 2.04 7.081 3.071 10.621 0.081 0.277 0.21 0.541 0.454 1.144 8.438-29.099 16.789-57.887 25.132-86.681h26.258c-0.197 0.616-0.359 1.1439-0.536 1.6719-7.13 21.423-14.267 42.846-21.397 64.269-5.321 15.981-10.628 31.969-15.908 47.963-0.298 0.907-0.692 1.192-1.64 1.185-7.985-0.041-15.976-0.047-23.96 0-1.044 0-1.403-0.386-1.702-1.279-3.3-9.788-6.635-19.569-9.963-29.343-3.87-11.378-7.747-22.756-11.624-34.128-3.7685-11.06-7.5438-22.113-11.319-33.174-1.8436-5.4014-3.6804-10.803-5.524-16.204-0.0949-0.2843-0.1762-0.5686-0.3118-1.0289"/>
</g>
</svg>
