<svg viewBox="0 0 204 41" fill="none" xmlns="http://www.w3.org/2000/svg">
<path d="M77.551 18.6016H79.5424L82.9979 27.2799H81.0412L80.2849 25.2914H76.7114L75.9412 27.2799H74.1094L77.5441 18.6016H77.551ZM78.5224 20.3441H78.4947L77.2179 23.9247H79.7922L78.5155 20.3441H78.5224Z" fill="#777A7E"/>
<path d="M89.5859 20.8769V26.6579C89.5859 28.4004 88.8782 30.0404 86.1512 30.0404C85.4851 30.0404 84.7149 29.9379 83.9031 29.6031L84.0418 28.1886C84.5623 28.4619 85.4018 28.7489 85.9361 28.7489C87.8027 28.7489 87.8929 27.3686 87.8929 26.2616H87.8651C87.5459 26.8082 86.7896 27.2797 85.8459 27.2797C83.9308 27.2797 83.1953 25.7627 83.1953 24.0476C83.1953 22.5032 84.0002 20.7266 85.95 20.7266C86.8104 20.7266 87.4765 21.0136 87.9414 21.7447H87.9692V20.8769H89.5859ZM87.8929 24.0134C87.8929 22.9201 87.4627 22.0249 86.4774 22.0249C85.3255 22.0249 84.9647 23.0704 84.9647 24.0544C84.9647 24.9222 85.4296 25.9951 86.401 25.9951C87.4627 25.9951 87.8929 25.0862 87.8929 24.0202V24.0134Z" fill="#777A7E"/>
<path d="M96.182 26.9176C95.5645 27.2524 94.8567 27.4301 93.9477 27.4301C91.8037 27.4301 90.5547 26.2137 90.5547 24.1091C90.5547 22.2572 91.5539 20.7266 93.5731 20.7266C95.9808 20.7266 96.6677 22.3529 96.6677 24.5942H92.1714C92.2477 25.6261 92.9763 26.2069 94.0241 26.2069C94.8429 26.2069 95.5506 25.9062 96.182 25.5577V26.9107V26.9176ZM94.4265 20.0091H93.3788L91.651 18.1914H93.3788L94.4265 20.0091ZM95.0441 23.4531C94.9955 22.6467 94.6139 21.9497 93.6702 21.9497C92.7265 21.9497 92.2408 22.5989 92.1714 23.4531H95.051H95.0441Z" fill="#777A7E"/>
<path d="M97.6172 20.8769H99.2201V21.7447H99.2478C99.7821 21.0136 100.497 20.7266 101.385 20.7266C102.925 20.7266 103.591 21.7926 103.591 23.2344V27.2729H101.898V23.8562C101.898 23.0704 101.885 22.0181 100.802 22.0181C99.5809 22.0181 99.3103 23.3232 99.3103 24.1432V27.2729H97.6172V20.8701V20.8769Z" fill="#777A7E"/>
<path d="M109.174 22.2572C108.869 22.1206 108.543 22.0181 108.022 22.0181C106.975 22.0181 106.308 22.8381 106.308 24.0476C106.308 25.2571 106.877 26.1386 108.064 26.1386C108.543 26.1386 109.07 25.9677 109.362 25.8379L109.438 27.2182C108.945 27.3686 108.439 27.4301 107.745 27.4301C105.615 27.4301 104.539 26.0019 104.539 24.0476C104.539 22.0932 105.649 20.7266 107.682 20.7266C108.362 20.7266 108.855 20.8017 109.327 20.9384L109.174 22.2572Z" fill="#777A7E"/>
<path d="M110.242 18.1172H111.935V19.7094H110.242V18.1172ZM110.242 20.8779H111.935V27.2807H110.242V20.8779Z" fill="#777A7E"/>
<path d="M113.638 21.2117C114.298 20.9111 115.179 20.7266 115.9 20.7266C117.885 20.7266 118.704 21.5329 118.704 23.4257V24.2457C118.704 24.8949 118.718 25.3801 118.731 25.8516C118.745 26.3367 118.773 26.7809 118.808 27.2797H117.316C117.253 26.9449 117.253 26.5212 117.24 26.3231H117.212C116.823 27.0337 115.977 27.4301 115.206 27.4301C114.055 27.4301 112.938 26.7467 112.938 25.5304C112.938 24.5737 113.402 24.0134 114.048 23.7059C114.693 23.3984 115.526 23.3301 116.233 23.3301H117.17C117.17 22.2982 116.705 21.9497 115.706 21.9497C114.984 21.9497 114.27 22.2231 113.701 22.6467L113.652 21.2186L113.638 21.2117ZM115.616 26.2137C116.136 26.2137 116.539 25.9882 116.802 25.6397C117.08 25.2776 117.156 24.8197 117.156 24.3209H116.421C115.664 24.3209 114.54 24.4439 114.54 25.4279C114.54 25.9746 115.005 26.2137 115.616 26.2137Z" fill="#777A7E"/>
<path d="M79.1992 38.9928H79.1715C78.665 39.6146 77.9711 39.8606 77.1801 39.8606C75.1886 39.8606 74.4531 38.2411 74.4531 36.4918C74.4531 34.7425 75.1886 33.1571 77.1801 33.1571C78.0266 33.1571 78.6164 33.4441 79.1229 34.0523H79.1507V30.3828H80.8437V39.7035H79.1992V38.9791V38.9928ZM77.645 38.5691C78.769 38.5691 79.1368 37.4006 79.1368 36.4918C79.1368 35.583 78.7066 34.4555 77.6241 34.4555C76.5417 34.4555 76.2225 35.6376 76.2225 36.4918C76.2225 37.346 76.5348 38.5691 77.6519 38.5691H77.645Z" fill="#777A7E"/>
<path d="M87.432 39.3473C86.8145 39.6821 86.1067 39.8598 85.1977 39.8598C83.0537 39.8598 81.8047 38.6434 81.8047 36.5388C81.8047 34.6869 82.8039 33.1562 84.8231 33.1562C87.2308 33.1562 87.9177 34.7826 87.9177 37.0239H83.4214C83.4977 38.0557 84.2263 38.6366 85.2741 38.6366C86.0929 38.6366 86.8006 38.3359 87.432 37.9874V39.3404V39.3473ZM86.2941 35.8827C86.2455 35.0764 85.8639 34.3794 84.9202 34.3794C83.9765 34.3794 83.4908 35.0286 83.4214 35.8827H86.301H86.2941Z" fill="#777A7E"/>
<path d="M96.8987 32.6243C96.3436 32.3852 95.726 32.2485 95.1085 32.2485C94.4909 32.2485 93.7207 32.5082 93.7207 33.4512C93.7207 34.9545 97.5856 34.319 97.5856 37.23C97.5856 39.1297 96.0591 39.854 94.2758 39.854C93.3183 39.854 92.8881 39.731 92.0138 39.5192L92.1803 37.9543C92.784 38.2755 93.4779 38.4873 94.1717 38.4873C94.8656 38.4873 95.7399 38.1525 95.7399 37.3667C95.7399 35.713 91.875 36.3963 91.875 33.5263C91.875 31.5857 93.4015 30.875 94.9558 30.875C95.7121 30.875 96.4199 30.9775 97.0652 31.1825L96.8987 32.6107V32.6243Z" fill="#777A7E"/>
<path d="M98.943 33.6414C99.6022 33.3407 100.483 33.1562 101.205 33.1562C103.19 33.1562 104.008 33.9626 104.008 35.8554V36.6754C104.008 37.3246 104.022 37.8098 104.036 38.2812C104.05 38.7664 104.071 39.2106 104.112 39.7094H102.621C102.558 39.3746 102.558 38.9509 102.544 38.7527H102.516C102.128 39.4634 101.281 39.8598 100.511 39.8598C99.3593 39.8598 98.2422 39.1764 98.2422 37.9601C98.2422 37.0034 98.7071 36.4431 99.3524 36.1356C99.9977 35.8281 100.83 35.7598 101.538 35.7598H102.475C102.475 34.7279 102.01 34.3794 101.011 34.3794C100.289 34.3794 99.5744 34.6528 99.0054 35.0764L98.9569 33.6483L98.943 33.6414ZM100.927 38.6434C101.441 38.6434 101.85 38.4179 102.114 38.0694C102.392 37.7072 102.468 37.2494 102.468 36.7506H101.739C100.983 36.7506 99.8589 36.8736 99.8589 37.8576C99.8589 38.4043 100.324 38.6434 100.934 38.6434H100.927Z" fill="#777A7E"/>
<path d="M105.344 30.3906H107.037V39.7113H105.344V30.3906Z" fill="#777A7E"/>
<path d="M114.42 39.7124H112.818V38.8446H112.79C112.269 39.4664 111.541 39.8627 110.66 39.8627C109.119 39.8627 108.453 38.7967 108.453 37.3549V33.3164H110.146V36.7331C110.146 37.5189 110.16 38.5712 111.243 38.5712C112.464 38.5712 112.734 37.2661 112.734 36.4461V33.3164H114.427V39.7192L114.42 39.7124Z" fill="#777A7E"/>
<path d="M116.351 34.5311H115.102V33.3147H116.351V32.0369L118.044 31.5039V33.3216H119.542V34.5379H118.044V37.5241C118.044 38.0707 118.196 38.5832 118.842 38.5832C119.147 38.5832 119.438 38.5217 119.612 38.4124L119.66 39.7312C119.306 39.8337 118.918 39.8816 118.411 39.8816C117.086 39.8816 116.357 39.0752 116.357 37.8042V34.5447L116.351 34.5311Z" fill="#777A7E"/>
<path d="M123.469 31.0312H125.703C127.625 31.0312 129.374 31.5779 129.374 33.6553C129.374 35.7326 127.875 36.4159 125.981 36.4159H125.238V39.7096H123.469V31.0312ZM125.231 35.0493H125.849C126.73 35.0493 127.528 34.7623 127.528 33.7578C127.528 32.7533 126.758 32.4047 125.849 32.4047H125.231V35.0561V35.0493Z" fill="#777A7E"/>
<path d="M136.092 39.7094H134.489V38.8416H134.462C133.941 39.4634 133.213 39.8598 132.332 39.8598C130.791 39.8598 130.125 38.7938 130.125 37.3519V33.3134H131.818V36.7301C131.818 37.5159 131.832 38.5683 132.914 38.5683C134.136 38.5683 134.406 37.2631 134.406 36.4431V33.3134H136.099V39.7163L136.092 39.7094ZM133.227 30.6211H134.954L133.227 32.4388H132.179L133.227 30.6211Z" fill="#777A7E"/>
<path d="M137.469 30.3906H139.162V34.1353H139.19C139.654 33.5271 140.251 33.165 141.132 33.165C143.124 33.165 143.859 34.7298 143.859 36.4996C143.859 38.2695 143.131 39.8685 141.132 39.8685C140.411 39.8685 139.634 39.6225 139.141 38.9391H139.113V39.725H137.469V30.4043V30.3906ZM140.661 38.5701C141.771 38.5701 142.09 37.3743 142.09 36.4928C142.09 35.6113 141.785 34.4565 140.688 34.4565C139.592 34.4565 139.176 35.5976 139.176 36.4928C139.176 37.388 139.543 38.5701 140.668 38.5701H140.661Z" fill="#777A7E"/>
<path d="M144.852 30.3906H146.545V39.7113H144.852V30.3906Z" fill="#777A7E"/>
<path d="M147.992 30.5547H149.685V32.1469H147.992V30.5547ZM147.992 33.3085H149.685V39.7114H147.992V33.3085Z" fill="#777A7E"/>
<path d="M155.315 34.6869C155.009 34.5502 154.683 34.4477 154.163 34.4477C153.115 34.4477 152.449 35.2678 152.449 36.4773C152.449 37.6868 153.018 38.5682 154.205 38.5682C154.683 38.5682 155.211 38.3974 155.502 38.2676L155.578 39.6479C155.086 39.7983 154.579 39.8598 153.885 39.8598C151.755 39.8598 150.68 38.4316 150.68 36.4773C150.68 34.5229 151.79 33.1562 153.823 33.1562C154.503 33.1562 154.996 33.2314 155.467 33.3681L155.315 34.6869Z" fill="#777A7E"/>
<path d="M156.631 33.6414C157.29 33.3407 158.171 33.1562 158.893 33.1562C160.877 33.1562 161.696 33.9626 161.696 35.8554V36.6754C161.696 37.3246 161.71 37.8098 161.724 38.2812C161.737 38.7664 161.758 39.2106 161.8 39.7094H160.308C160.246 39.3746 160.246 38.9509 160.232 38.7527H160.204C159.815 39.4634 158.969 39.8598 158.199 39.8598C157.047 39.8598 155.93 39.1764 155.93 37.9601C155.93 37.0034 156.395 36.4431 157.04 36.1356C157.685 35.8281 158.518 35.7598 159.226 35.7598H160.162C160.162 34.7279 159.697 34.3794 158.698 34.3794C157.977 34.3794 157.262 34.6528 156.693 35.0764L156.644 33.6483L156.631 33.6414ZM158.608 38.6434C159.128 38.6434 159.531 38.4179 159.795 38.0694C160.072 37.7072 160.148 37.2494 160.148 36.7506H159.42C158.664 36.7506 157.539 36.8736 157.539 37.8576C157.539 38.4043 158.004 38.6434 158.615 38.6434H158.608Z" fill="#777A7E"/>
<path d="M37.7344 29.0902C37.7344 22.5097 43.1466 17.1797 49.8287 17.1797C56.5107 17.1797 61.9229 22.5097 61.9229 29.0902C61.9229 35.6707 56.5107 41.0007 49.8287 41.0007C43.1466 41.0007 37.7344 35.6707 37.7344 29.0902Z" fill="#AAACAE"/>
<path fill-rule="evenodd" clip-rule="evenodd" d="M47.5242 24.0664H50.5981C51.7708 24.0664 52.8532 24.3534 52.8532 25.7543C52.8532 26.9911 51.9997 27.5036 50.8479 27.5036H47.5242V24.0664ZM44.2422 36.2503H51.4724C54.1716 36.2503 56.7389 34.9724 56.7389 31.9931C56.7389 30.1618 55.823 28.7814 54.005 28.2689C55.3026 27.6539 56.0312 26.6426 56.0312 25.2008C56.0312 22.4606 54.1091 21.5586 51.2642 21.5586H44.2422V36.2503ZM47.5242 29.7039H51.0977C52.4993 29.7039 53.4569 30.2984 53.4569 31.8018C53.4569 33.3051 52.3259 33.7356 51.0353 33.7356H47.5242V29.7039Z" fill="white"/>
<path d="M33.5376 18.418V26.413H41.6282V31.6336H33.5376V39.5945H28.1462V31.6336H20.0625V26.413H28.1462V18.418H33.5376Z" fill="#328CA8"/>
<path fill-rule="evenodd" clip-rule="evenodd" d="M18.4164 18.4023H25.4454L7.09929 39.5515H0.0703125L18.4164 18.4023Z" fill="#777A7E"/>
<path d="M79.0194 6.7173C78.5475 6.82663 78.041 6.91547 77.5553 6.91547C75.4736 6.91547 74.0234 5.89047 74.0234 3.7448C74.0234 1.59914 75.3696 0.355469 77.5553 0.355469C77.9785 0.355469 78.5406 0.437469 79.0124 0.615135L78.9222 1.68797C78.4365 1.41464 77.9924 1.35314 77.5275 1.35314C76.2022 1.35314 75.3696 2.3508 75.3696 3.64914C75.3696 4.94747 76.1814 5.91097 77.5553 5.91097C78.0618 5.91097 78.6585 5.80164 78.9638 5.6513L79.0194 6.71047V6.7173Z" fill="#777A7E"/>
<path d="M82.0318 2.02344C83.4404 2.02344 84.5228 2.9596 84.5228 4.50394C84.5228 5.8501 83.6069 6.92294 82.0318 6.92294C80.4567 6.92294 79.5547 5.8501 79.5547 4.50394C79.5547 2.9596 80.6302 2.02344 82.0318 2.02344ZM82.0318 5.9731C82.9824 5.9731 83.2322 5.13944 83.2322 4.3536C83.2322 3.6361 82.8437 2.96644 82.0318 2.96644C81.22 2.96644 80.8453 3.6566 80.8453 4.3536C80.8453 5.12577 81.0951 5.9731 82.0318 5.9731Z" fill="#777A7E"/>
<path d="M85.4922 2.13277H86.6648V2.76827H86.6857C87.0742 2.23527 87.6016 2.02344 88.2469 2.02344C89.371 2.02344 89.8567 2.80244 89.8567 3.85477V6.80677H88.6216V4.3126C88.6216 3.7386 88.6146 2.96644 87.8167 2.96644C86.9216 2.96644 86.7273 3.9231 86.7273 4.5176V6.80677H85.4922V2.13277Z" fill="#777A7E"/>
<path d="M93.9428 3.11677C93.5681 2.98694 93.2905 2.9186 92.8395 2.9186C92.5064 2.9186 92.1109 3.03477 92.1109 3.43794C92.1109 4.18277 94.2619 3.71127 94.2619 5.3991C94.2619 6.49244 93.2766 6.92294 92.2705 6.92294C91.7987 6.92294 91.3199 6.84094 90.8689 6.72477L90.9452 5.7271C91.3338 5.91844 91.7362 6.0346 92.1595 6.0346C92.4717 6.0346 92.9713 5.91844 92.9713 5.4606C92.9713 4.54494 90.8203 5.1736 90.8203 3.47894C90.8203 2.4676 91.7154 2.02344 92.6799 2.02344C93.2628 2.02344 93.6375 2.11227 94.026 2.19427L93.9428 3.10994V3.11677Z" fill="#777A7E"/>
<path d="M97.3912 2.02344C98.7998 2.02344 99.8822 2.9596 99.8822 4.50394C99.8822 5.8501 98.9663 6.92294 97.3912 6.92294C95.8161 6.92294 94.9141 5.8501 94.9141 4.50394C94.9141 2.9596 95.9896 2.02344 97.3912 2.02344ZM97.3912 5.9731C98.3418 5.9731 98.5916 5.13944 98.5916 4.3536C98.5916 3.6361 98.203 2.96644 97.3912 2.96644C96.5794 2.96644 96.2047 3.6566 96.2047 4.3536C96.2047 5.12577 96.4545 5.9731 97.3912 5.9731Z" fill="#777A7E"/>
<path d="M100.874 2.13179H101.97V3.19096H101.991C102.047 2.75363 102.553 2.01563 103.289 2.01563C103.407 2.01563 103.539 2.01562 103.664 2.04979V3.27296C103.552 3.21146 103.33 3.17046 103.108 3.17046C102.102 3.17046 102.102 4.40729 102.102 5.07696V6.79213H100.867V2.13179H100.874Z" fill="#777A7E"/>
<path d="M107.355 3.1441C107.133 3.0416 106.897 2.97327 106.515 2.97327C105.752 2.97327 105.259 3.5746 105.259 4.4561C105.259 5.3376 105.676 5.97994 106.543 5.97994C106.89 5.97994 107.279 5.8501 107.494 5.76127L107.549 6.76577C107.188 6.8751 106.821 6.92294 106.314 6.92294C104.753 6.92294 103.969 5.87744 103.969 4.44927C103.969 3.09627 104.781 2.02344 106.265 2.02344C106.765 2.02344 107.126 2.0781 107.466 2.1806L107.355 3.1441Z" fill="#777A7E"/>
<path d="M108.398 0.117188H109.634V1.27885H108.398V0.117188ZM108.398 2.13302H109.634V6.80702H108.398V2.13302Z" fill="#777A7E"/>
<path d="M117.062 1.6333C116.653 1.46247 116.202 1.35997 115.751 1.35997C115.3 1.35997 114.738 1.5513 114.738 2.24147C114.738 3.34164 117.562 2.87697 117.562 5.00214C117.562 6.3893 116.445 6.91547 115.147 6.91547C114.446 6.91547 114.134 6.82664 113.496 6.66947L113.614 5.5283C114.058 5.76747 114.564 5.9178 115.071 5.9178C115.577 5.9178 116.216 5.6718 116.216 5.0978C116.216 3.8883 113.398 4.38714 113.398 2.2893C113.398 0.874802 114.516 0.355469 115.647 0.355469C116.202 0.355469 116.715 0.430635 117.187 0.580969L117.069 1.62647L117.062 1.6333Z" fill="#777A7E"/>
<path d="M118.834 2.37877C119.313 2.1601 119.958 2.02344 120.485 2.02344C121.935 2.02344 122.532 2.6111 122.532 3.99144V4.59277C122.532 5.06427 122.539 5.4196 122.553 5.76127C122.56 6.1166 122.581 6.4446 122.608 6.80677H121.519C121.471 6.56077 121.471 6.25327 121.464 6.10977H121.443C121.158 6.6291 120.541 6.9161 119.979 6.9161C119.139 6.9161 118.32 6.41727 118.32 5.52894C118.32 4.83194 118.66 4.42194 119.132 4.19644C119.604 3.97094 120.208 3.9231 120.728 3.9231H121.408C121.408 3.17144 121.068 2.91177 120.339 2.91177C119.812 2.91177 119.292 3.10994 118.875 3.41744L118.841 2.37194L118.834 2.37877ZM120.284 6.02777C120.666 6.02777 120.957 5.86377 121.151 5.61094C121.353 5.35127 121.408 5.0096 121.408 4.64744H120.874C120.319 4.64744 119.5 4.73627 119.5 5.45377C119.5 5.85694 119.84 6.02777 120.284 6.02777Z" fill="#777A7E"/>
<path d="M123.75 2.13277H124.923V2.76827H124.943C125.332 2.23527 125.859 2.02344 126.505 2.02344C127.629 2.02344 128.114 2.80244 128.114 3.85477V6.80677H126.879V4.3126C126.879 3.7386 126.872 2.96644 126.074 2.96644C125.179 2.96644 124.985 3.9231 124.985 4.5176V6.80677H123.75V2.13277Z" fill="#777A7E"/>
<path d="M129.406 0.117188H130.641V1.27885H129.406V0.117188ZM129.406 2.13302H130.641V6.80702H129.406V2.13302Z" fill="#777A7E"/>
<path d="M132.353 3.01869H131.438V2.13035H132.353V1.19419L133.589 0.804688V2.13035H134.685V3.01869H133.589V5.19852C133.589 5.59485 133.7 5.97069 134.171 5.97069C134.393 5.97069 134.602 5.92285 134.733 5.84085L134.768 6.80435C134.511 6.87952 134.227 6.91369 133.859 6.91369C132.888 6.91369 132.353 6.32602 132.353 5.39669V3.01869Z" fill="#777A7E"/>
<path d="M135.74 2.37877C136.219 2.1601 136.864 2.02344 137.391 2.02344C138.842 2.02344 139.438 2.6111 139.438 3.99144V4.59277C139.438 5.06427 139.445 5.4196 139.459 5.76127C139.466 6.1166 139.487 6.4446 139.515 6.80677H138.425C138.377 6.56077 138.377 6.25327 138.37 6.10977H138.349C138.065 6.6291 137.447 6.9161 136.885 6.9161C136.045 6.9161 135.227 6.41727 135.227 5.52894C135.227 4.83194 135.567 4.42194 136.038 4.19644C136.51 3.97094 137.114 3.9231 137.634 3.9231H138.314C138.314 3.17144 137.974 2.91177 137.246 2.91177C136.718 2.91177 136.198 3.10994 135.782 3.41744L135.747 2.37194L135.74 2.37877ZM137.183 6.02777C137.565 6.02777 137.856 5.86377 138.051 5.61094C138.252 5.35127 138.307 5.0096 138.307 4.64744H137.773C137.218 4.64744 136.399 4.73627 136.399 5.45377C136.399 5.85694 136.739 6.02777 137.183 6.02777Z" fill="#777A7E"/>
<path d="M140.687 2.13179H141.783V3.19096H141.804C141.859 2.75363 142.366 2.01563 143.101 2.01563C143.219 2.01563 143.351 2.01562 143.476 2.04979V3.27296C143.365 3.21146 143.143 3.17046 142.921 3.17046C141.915 3.17046 141.915 4.40729 141.915 5.07696V6.79213H140.68V2.13179H140.687Z" fill="#777A7E"/>
<path d="M144.273 0.117188H145.509V1.27885H144.273V0.117188ZM144.273 2.13302H145.509V6.80702H144.273V2.13302Z" fill="#777A7E"/>
<path d="M152.555 6.27983H152.535C152.167 6.73083 151.66 6.91533 151.077 6.91533C149.62 6.91533 149.086 5.73317 149.086 4.45533C149.086 3.1775 149.62 2.02267 151.077 2.02267C151.695 2.02267 152.125 2.2345 152.5 2.67867H152.521V0H153.756V6.806H152.555V6.27983ZM151.417 5.97233C152.236 5.97233 152.507 5.11817 152.507 4.45533C152.507 3.7925 152.195 2.96567 151.397 2.96567C150.599 2.96567 150.377 3.82667 150.377 4.45533C150.377 5.084 150.606 5.97233 151.417 5.97233Z" fill="#777A7E"/>
<path d="M158.827 6.5471C158.375 6.7931 157.855 6.92294 157.196 6.92294C155.628 6.92294 154.719 6.0346 154.719 4.4971C154.719 3.1441 155.447 2.02344 156.918 2.02344C158.681 2.02344 159.18 3.21244 159.18 4.8456H155.898C155.954 5.59727 156.488 6.02777 157.251 6.02777C157.848 6.02777 158.369 5.8091 158.827 5.55627V6.5471ZM158.001 4.01194C157.966 3.42427 157.689 2.91177 156.995 2.91177C156.301 2.91177 155.954 3.38327 155.898 4.01194H158.001Z" fill="#777A7E"/>
<path d="M162.828 0.472656H165.076C165.909 0.472656 167.151 0.711823 167.151 2.09899C167.151 2.85066 166.638 3.37682 165.867 3.51349V3.53399C166.742 3.61599 167.345 4.19682 167.345 4.97582C167.345 6.57482 165.888 6.80716 165.076 6.80716H162.828V0.472656ZM164.119 3.03516H164.646C165.187 3.03516 165.86 2.91899 165.86 2.26299C165.86 1.52499 165.208 1.47032 164.618 1.47032H164.119V3.03516ZM164.119 5.80949H164.729C165.326 5.80949 166.055 5.66599 166.055 4.92799C166.055 4.10116 165.375 3.97132 164.729 3.97132H164.119V5.80266V5.80949Z" fill="#777A7E"/>
<path d="M168.56 2.37877C169.039 2.1601 169.684 2.02344 170.212 2.02344C171.662 2.02344 172.259 2.6111 172.259 3.99144V4.59277C172.259 5.06427 172.266 5.4196 172.28 5.76127C172.286 6.1166 172.307 6.4446 172.335 6.80677H171.246C171.197 6.56077 171.197 6.25327 171.19 6.10977H171.169C170.885 6.6291 170.267 6.9161 169.705 6.9161C168.866 6.9161 168.047 6.41727 168.047 5.52894C168.047 4.83194 168.387 4.42194 168.859 4.19644C169.331 3.97094 169.934 3.9231 170.455 3.9231H171.135C171.135 3.17144 170.795 2.91177 170.066 2.91177C169.539 2.91177 169.018 3.10994 168.602 3.41744L168.567 2.37194L168.56 2.37877ZM170.011 6.02777C170.392 6.02777 170.684 5.86377 170.878 5.61094C171.079 5.35127 171.135 5.0096 171.135 4.64744H170.6C170.045 4.64744 169.226 4.73627 169.226 5.45377C169.226 5.85694 169.566 6.02777 170.011 6.02777Z" fill="#777A7E"/>
<path d="M173.499 2.13179H174.595V3.19096H174.616C174.672 2.75363 175.178 2.01563 175.914 2.01563C176.032 2.01563 176.164 2.01562 176.289 2.04979V3.27296C176.177 3.21146 175.955 3.17046 175.733 3.17046C174.727 3.17046 174.727 4.40729 174.727 5.07696V6.79213H173.492V2.13179H173.499Z" fill="#777A7E"/>
<path d="M179.98 3.1441C179.758 3.0416 179.522 2.97327 179.14 2.97327C178.377 2.97327 177.884 3.5746 177.884 4.4561C177.884 5.3376 178.301 5.97994 179.168 5.97994C179.515 5.97994 179.904 5.8501 180.119 5.76127L180.174 6.76577C179.813 6.8751 179.446 6.92294 178.939 6.92294C177.378 6.92294 176.594 5.87744 176.594 4.44927C176.594 3.09627 177.406 2.02344 178.89 2.02344C179.39 2.02344 179.751 2.0781 180.091 2.1806L179.98 3.1441Z" fill="#777A7E"/>
<path d="M184.803 6.5471C184.352 6.7931 183.832 6.92294 183.172 6.92294C181.604 6.92294 180.695 6.0346 180.695 4.4971C180.695 3.1441 181.424 2.02344 182.895 2.02344C184.657 2.02344 185.157 3.21244 185.157 4.8456H181.875C181.93 5.59727 182.465 6.02777 183.228 6.02777C183.825 6.02777 184.345 5.8091 184.803 5.55627V6.5471ZM183.977 4.01194C183.943 3.42427 183.665 2.91177 182.971 2.91177C182.277 2.91177 181.93 3.38327 181.875 4.01194H183.977Z" fill="#777A7E"/>
<path d="M186.148 0H187.384V6.806H186.148V0Z" fill="#777A7E"/>
<path d="M190.86 2.02344C192.269 2.02344 193.351 2.9596 193.351 4.50394C193.351 5.8501 192.435 6.92294 190.86 6.92294C189.285 6.92294 188.383 5.8501 188.383 4.50394C188.383 2.9596 189.458 2.02344 190.86 2.02344ZM190.86 5.9731C191.811 5.9731 192.06 5.13944 192.06 4.3536C192.06 3.6361 191.672 2.96644 190.86 2.96644C190.048 2.96644 189.673 3.6566 189.673 4.3536C189.673 5.12577 189.923 5.9731 190.86 5.9731Z" fill="#777A7E"/>
<path d="M194.312 2.13277H195.485V2.76827H195.506C195.895 2.23527 196.422 2.02344 197.067 2.02344C198.191 2.02344 198.677 2.80244 198.677 3.85477V6.80677H197.442V4.3126C197.442 3.7386 197.435 2.96644 196.637 2.96644C195.742 2.96644 195.548 3.9231 195.548 4.5176V6.80677H194.312V2.13277Z" fill="#777A7E"/>
<path d="M200.162 2.37877C200.641 2.1601 201.286 2.02344 201.813 2.02344C203.264 2.02344 203.86 2.6111 203.86 3.99144V4.59277C203.86 5.06427 203.867 5.4196 203.881 5.76127C203.888 6.1166 203.909 6.4446 203.937 6.80677H202.847C202.799 6.56077 202.799 6.25327 202.792 6.10977H202.771C202.486 6.6291 201.869 6.9161 201.307 6.9161C200.467 6.9161 199.648 6.41727 199.648 5.52894C199.648 4.83194 199.988 4.42194 200.46 4.19644C200.932 3.97094 201.536 3.9231 202.056 3.9231H202.736C202.736 3.17144 202.396 2.91177 201.668 2.91177C201.14 2.91177 200.62 3.10994 200.204 3.41744L200.169 2.37194L200.162 2.37877ZM201.605 6.02777C201.987 6.02777 202.278 5.86377 202.473 5.61094C202.674 5.35127 202.729 5.0096 202.729 4.64744H202.195C201.64 4.64744 200.821 4.73627 200.821 5.45377C200.821 5.85694 201.161 6.02777 201.605 6.02777Z" fill="#777A7E"/>
<path d="M55.1328 0.539062H59.1226C60.2259 0.539062 61.3083 0.887563 61.3083 2.07656C61.3083 2.93756 60.8434 3.3954 59.9969 3.60723V3.62773C60.8781 3.7439 61.4263 4.42723 61.4263 5.04906C61.4263 6.62756 60.1357 6.78473 58.8173 6.78473H55.1328V0.539062ZM57.4226 2.93073H58.0332C58.4565 2.93073 58.9214 2.80773 58.9214 2.3294C58.9214 1.85106 58.5189 1.72123 58.0818 1.72123H57.4157V2.93073H57.4226ZM57.4226 5.50006H58.061C58.5051 5.50006 58.9908 5.33606 58.9908 4.8509C58.9908 4.3179 58.5328 4.2154 58.0818 4.2154H57.4296V5.49323L57.4226 5.50006Z" fill="#777A7E"/>
<path d="M49.3481 2.25517C48.7999 2.06383 48.1546 1.94083 47.4676 1.94083C47.086 1.94083 46.4199 1.94767 46.4199 2.35083C46.4199 3.164 49.7574 2.39867 49.7574 4.804C49.7574 6.47817 48.0783 6.90183 46.6627 6.90183C45.726 6.90183 44.9558 6.813 44.0468 6.608V4.9885C44.6991 5.255 45.504 5.3985 46.2325 5.3985C46.8085 5.3985 47.3219 5.28233 47.3219 4.968C47.3219 4.1275 43.9844 4.886 43.9844 2.46017C43.9844 0.738167 45.8023 0.4375 47.2456 0.4375C47.9256 0.4375 48.6819 0.5195 49.3481 0.649333V2.24833V2.25517Z" fill="#777A7E"/>
<path d="M38.9416 6.649C38.4837 6.772 37.8106 6.90183 37.1931 6.90183C35.0837 6.90183 33.3906 5.8085 33.3906 3.58083C33.3906 1.483 35.1531 0.4375 37.1931 0.4375C37.8661 0.4375 38.2686 0.5195 38.9208 0.635667V2.2825C38.5184 2.1595 38.109 2.05017 37.6996 2.05017C36.6657 2.05017 35.8816 2.59683 35.8816 3.615C35.8816 4.68783 36.6102 5.2345 37.6163 5.2345C38.0604 5.2345 38.4906 5.14567 38.9347 4.99533V6.649H38.9416Z" fill="#777A7E"/>
</svg>
