<svg preserveAspectRatio="none" width="100%" height="100%" overflow="visible" style="display: block;" viewBox="0 0 233.7 47.0007" fill="none" xmlns="http://www.w3.org/2000/svg">
<g id="ASPB logo">
<path d="M91.102 21.3237L95.0632 31.272H92.8201L91.9531 28.9925H87.8567L86.9738 31.272H84.8739L88.8112 21.3237H91.102ZM89.9327 23.3212H89.9009L88.4373 27.4258H91.3883L89.9248 23.3212H89.9327Z" fill="var(--fill-0, #777A7E)"/>
<path d="M102.615 23.932V30.559C102.615 32.5565 101.804 34.4365 98.6779 34.4365C97.9143 34.4365 97.0314 34.319 96.1008 33.9351L96.2599 32.3136C96.8564 32.627 97.8189 32.956 98.4313 32.956C100.571 32.956 100.674 31.3736 100.674 30.1047H100.643C100.277 30.7313 99.4097 31.2718 98.3279 31.2718C96.1326 31.2718 95.2894 29.5328 95.2894 27.5667C95.2894 25.7963 96.2121 23.7597 98.4472 23.7597C99.4336 23.7597 100.197 24.0887 100.73 24.9268H100.762V23.932H102.615ZM100.674 27.5275C100.674 26.2742 100.181 25.248 99.0518 25.248C97.7314 25.248 97.3178 26.4465 97.3178 27.5745C97.3178 28.5693 97.8507 29.7992 98.9643 29.7992C100.181 29.7992 100.674 28.7573 100.674 27.5353V27.5275Z" fill="var(--fill-0, #777A7E)"/>
<path d="M110.177 30.8567C109.469 31.2405 108.657 31.4442 107.615 31.4442C105.158 31.4442 103.726 30.0498 103.726 27.6372C103.726 25.5143 104.871 23.7597 107.186 23.7597C109.946 23.7597 110.733 25.624 110.733 28.1933H105.579C105.667 29.3762 106.502 30.042 107.703 30.042C108.641 30.042 109.453 29.6973 110.177 29.2978V30.8567ZM108.164 22.9372H106.963L104.983 20.8535H106.963L108.164 22.9372ZM108.872 26.8852C108.816 25.9608 108.379 25.1618 107.297 25.1618C106.215 25.1618 105.659 25.906 105.579 26.8852H108.88H108.872Z" fill="var(--fill-0, #777A7E)"/>
<path d="M111.822 23.932H113.659V24.9268H113.691C114.304 24.0887 115.123 23.7597 116.141 23.7597C117.907 23.7597 118.67 24.9817 118.67 26.6345V31.264H116.73V27.3473C116.73 26.4465 116.714 25.2402 115.473 25.2402C114.073 25.2402 113.763 26.7363 113.763 27.6763V31.264H111.822V23.9242V23.932Z" fill="var(--fill-0, #777A7E)"/>
<path d="M125.07 25.5143C124.72 25.3577 124.346 25.2402 123.75 25.2402C122.549 25.2402 121.785 26.1802 121.785 27.5667C121.785 28.9532 122.437 29.9637 123.797 29.9637C124.346 29.9637 124.951 29.7678 125.285 29.619L125.372 31.2013C124.808 31.3737 124.227 31.4441 123.431 31.4441C120.99 31.4441 119.757 29.807 119.757 27.5667C119.757 25.3263 121.029 23.7597 123.36 23.7597C124.139 23.7597 124.704 23.8458 125.245 24.0025L125.07 25.5143Z" fill="var(--fill-0, #777A7E)"/>
<path d="M126.294 20.7684H128.235V22.5936H126.294V20.7684ZM126.294 23.9331H128.235V31.2729H126.294V23.9331Z" fill="var(--fill-0, #777A7E)"/>
<path d="M130.187 24.3158C130.943 23.9712 131.953 23.7597 132.781 23.7597C135.055 23.7597 135.994 24.684 135.994 26.8538V27.7938C135.994 28.538 136.01 29.0942 136.026 29.6347C136.042 30.1908 136.074 30.7 136.113 31.2718H134.403C134.332 30.888 134.332 30.4023 134.316 30.1752H134.284C133.838 30.9898 132.868 31.4441 131.985 31.4441C130.665 31.4441 129.384 30.6608 129.384 29.2665C129.384 28.1698 129.917 27.5275 130.657 27.175C131.396 26.8225 132.351 26.7442 133.162 26.7442H134.236C134.236 25.5613 133.703 25.1618 132.558 25.1618C131.731 25.1618 130.911 25.4752 130.259 25.9608L130.203 24.3237L130.187 24.3158ZM132.454 30.0498C133.051 30.0498 133.512 29.7913 133.815 29.3918C134.133 28.9767 134.22 28.4518 134.22 27.88H133.377C132.51 27.88 131.221 28.021 131.221 29.149C131.221 29.7757 131.754 30.0498 132.454 30.0498Z" fill="var(--fill-0, #777A7E)"/>
<path d="M90.7086 44.699H90.6768C90.0961 45.4118 89.3007 45.6938 88.3939 45.6938C86.1111 45.6938 85.2679 43.8373 85.2679 41.832C85.2679 39.8267 86.1111 38.0093 88.3939 38.0093C89.3643 38.0093 90.0404 38.3383 90.6211 39.0355H90.6529V34.829H92.5937V45.5136H90.7086V44.6833V44.699ZM88.9268 44.2133C90.2154 44.2133 90.637 42.8738 90.637 41.832C90.637 40.7902 90.1438 39.4977 88.903 39.4977C87.6621 39.4977 87.2962 40.8528 87.2962 41.832C87.2962 42.8112 87.6542 44.2133 88.9348 44.2133H88.9268Z" fill="var(--fill-0, #777A7E)"/>
<path d="M100.146 45.1053C99.4382 45.4891 98.6269 45.6928 97.5849 45.6928C95.1271 45.6928 93.6953 44.2985 93.6953 41.8858C93.6953 39.763 94.8407 38.0083 97.1554 38.0083C99.9155 38.0083 100.703 39.8726 100.703 42.442H95.5486C95.6361 43.6248 96.4713 44.2906 97.6724 44.2906C98.611 44.2906 99.4223 43.946 100.146 43.5465V45.1053ZM98.8417 41.1338C98.786 40.2095 98.3485 39.4105 97.2667 39.4105C96.185 39.4105 95.6282 40.1546 95.5486 41.1338H98.8496H98.8417Z" fill="var(--fill-0, #777A7E)"/>
<path d="M110.998 37.3985C110.362 37.1244 109.654 36.9677 108.946 36.9677C108.238 36.9677 107.355 37.2654 107.355 38.3464C107.355 40.0697 111.786 39.3412 111.786 42.6782C111.786 44.8559 110.036 45.6862 107.991 45.6862C106.894 45.6862 106.401 45.5452 105.398 45.3024L105.589 43.5085C106.281 43.8767 107.077 44.1195 107.872 44.1195C108.668 44.1195 109.67 43.7357 109.67 42.8349C109.67 40.9392 105.239 41.7225 105.239 38.4325C105.239 36.2079 106.989 35.3932 108.771 35.3932C109.638 35.3932 110.449 35.5107 111.189 35.7457L110.998 37.3829V37.3985Z" fill="var(--fill-0, #777A7E)"/>
<path d="M113.342 38.5645C114.097 38.2198 115.107 38.0083 115.935 38.0083C118.21 38.0083 119.148 38.9326 119.148 41.1025V42.0425C119.148 42.7866 119.164 43.3428 119.18 43.8833C119.196 44.4395 119.22 44.9486 119.267 45.5204H117.557C117.486 45.1366 117.486 44.651 117.47 44.4238H117.438C116.993 45.2385 116.022 45.6928 115.139 45.6928C113.819 45.6928 112.538 44.9095 112.538 43.5151C112.538 42.4185 113.071 41.7761 113.811 41.4236C114.551 41.0711 115.505 40.9928 116.316 40.9928H117.39C117.39 39.81 116.857 39.4105 115.712 39.4105C114.885 39.4105 114.065 39.7238 113.413 40.2095L113.358 38.5723L113.342 38.5645ZM115.617 44.2985C116.205 44.2985 116.674 44.04 116.977 43.6405C117.295 43.2253 117.382 42.7005 117.382 42.1286H116.547C115.68 42.1286 114.392 42.2696 114.392 43.3976C114.392 44.0243 114.925 44.2985 115.624 44.2985H115.617Z" fill="var(--fill-0, #777A7E)"/>
<path d="M120.679 34.838H122.62V45.5226H120.679V34.838Z" fill="var(--fill-0, #777A7E)"/>
<path d="M131.084 45.5239H129.247V44.529H129.215C128.618 45.2419 127.783 45.6962 126.773 45.6962C125.007 45.6962 124.243 44.4742 124.243 42.8214V38.1919H126.184V42.1086C126.184 43.0094 126.2 44.2157 127.441 44.2157C128.841 44.2157 129.151 42.7196 129.151 41.7796V38.1919H131.092V45.5317L131.084 45.5239Z" fill="var(--fill-0, #777A7E)"/>
<path d="M133.297 39.5843H131.865V38.19H133.297V36.7252L135.237 36.1142V38.1978H136.955V39.5921H135.237V43.0153C135.237 43.642 135.412 44.2295 136.152 44.2295C136.502 44.2295 136.836 44.159 137.035 44.0336L137.091 45.5455C136.685 45.663 136.24 45.7178 135.659 45.7178C134.14 45.7178 133.305 44.7935 133.305 43.3365V39.6L133.297 39.5843Z" fill="var(--fill-0, #777A7E)"/>
<path d="M141.456 35.5723H144.018C146.221 35.5723 148.225 36.199 148.225 38.5803C148.225 40.9617 146.507 41.745 144.336 41.745H143.485V45.5206H141.456V35.5723ZM143.477 40.1783H144.185C145.195 40.1783 146.11 39.8493 146.11 38.6978C146.11 37.5463 145.227 37.1468 144.185 37.1468H143.477V40.1862V40.1783Z" fill="var(--fill-0, #777A7E)"/>
<path d="M155.927 45.5205H154.09V44.5256H154.058C153.462 45.2385 152.626 45.6928 151.616 45.6928C149.85 45.6928 149.087 44.4708 149.087 42.818V38.1885H151.028V42.1051C151.028 43.006 151.044 44.2123 152.284 44.2123C153.684 44.2123 153.994 42.7161 153.994 41.7761V38.1885H155.935V45.5283L155.927 45.5205ZM152.642 35.1022H154.623L152.642 37.1858H151.441L152.642 35.1022Z" fill="var(--fill-0, #777A7E)"/>
<path d="M157.505 34.838H159.446V39.1306H159.478C160.011 38.4334 160.695 38.0183 161.705 38.0183C163.988 38.0183 164.831 39.8121 164.831 41.8409C164.831 43.8698 163.996 45.7028 161.705 45.7028C160.878 45.7028 159.987 45.4208 159.422 44.6374H159.39V45.5383H157.505V34.838ZM161.164 44.2144C162.437 44.2144 162.803 42.8436 162.803 41.8331C162.803 40.8226 162.453 39.4988 161.196 39.4988C159.939 39.4988 159.462 40.8069 159.462 41.8331C159.462 42.8593 159.883 44.2144 161.172 44.2144H161.164Z" fill="var(--fill-0, #777A7E)"/>
<path d="M165.968 34.838H167.909V45.5226H165.968V34.838Z" fill="var(--fill-0, #777A7E)"/>
<path d="M169.569 35.026H171.509V36.8512H169.569V35.026ZM169.569 38.1829H171.509V45.5227H169.569V38.1829Z" fill="var(--fill-0, #777A7E)"/>
<path d="M177.963 39.763C177.613 39.6063 177.239 39.4888 176.642 39.4888C175.441 39.4888 174.678 40.4288 174.678 41.8153C174.678 43.2018 175.33 44.2123 176.69 44.2123C177.239 44.2123 177.844 44.0165 178.178 43.8676L178.265 45.45C177.7 45.6223 177.12 45.6928 176.324 45.6928C173.882 45.6928 172.649 44.0556 172.649 41.8153C172.649 39.575 173.922 38.0083 176.253 38.0083C177.032 38.0083 177.597 38.0945 178.138 38.2511L177.963 39.763Z" fill="var(--fill-0, #777A7E)"/>
<path d="M179.471 38.5645C180.227 38.2198 181.237 38.0083 182.064 38.0083C184.339 38.0083 185.278 38.9326 185.278 41.1025V42.0425C185.278 42.7866 185.294 43.3428 185.309 43.8833C185.325 44.4395 185.349 44.9486 185.397 45.5204H183.687C183.615 45.1366 183.615 44.651 183.599 44.4238H183.567C183.122 45.2385 182.152 45.6928 181.269 45.6928C179.948 45.6928 178.668 44.9095 178.668 43.5151C178.668 42.4185 179.201 41.7761 179.94 41.4236C180.68 41.0711 181.635 40.9928 182.446 40.9928H183.52C183.52 39.81 182.987 39.4105 181.841 39.4105C181.014 39.4105 180.195 39.7238 179.543 40.2095L179.487 38.5723L179.471 38.5645ZM181.738 44.2985C182.335 44.2985 182.796 44.04 183.098 43.6405C183.416 43.2253 183.504 42.7005 183.504 42.1286H182.669C181.802 42.1286 180.513 42.2696 180.513 43.3976C180.513 44.0243 181.046 44.2985 181.746 44.2985H181.738Z" fill="var(--fill-0, #777A7E)"/>
<path d="M43.1758 33.3472C43.1758 25.8037 49.3801 19.6937 57.0399 19.6937C64.6998 19.6937 70.9041 25.8037 70.9041 33.3472C70.9041 40.8907 64.6998 47.0007 57.0399 47.0007C49.3801 47.0007 43.1758 40.8907 43.1758 33.3472Z" fill="#AAACAE"/>
<path fill-rule="evenodd" clip-rule="evenodd" d="M54.3983 27.5883H57.922C59.2662 27.5883 60.5071 27.9173 60.5071 29.5231C60.5071 30.9409 59.5287 31.5284 58.2083 31.5284H54.3983V27.5883ZM50.6359 41.5551H58.9242C62.0184 41.5551 64.9614 40.0903 64.9614 36.6749C64.9614 34.5756 63.9115 32.9933 61.8275 32.4058C63.3149 31.7008 64.1501 30.5414 64.1501 28.8886C64.1501 25.7475 61.9468 24.7135 58.6856 24.7135H50.6359V41.5551ZM54.3983 34.0508H58.4947C60.1014 34.0508 61.1991 34.7323 61.1991 36.4556C61.1991 38.1789 59.9026 38.6724 58.4231 38.6724H54.3983V34.0508Z" fill="white"/>
<path d="M38.3649 21.1132V30.2782H47.6394V36.2629H38.3649V45.3887H32.1845V36.2629H22.9178V30.2782H32.1845V21.1132H38.3649Z" fill="#328CA8"/>
<path fill-rule="evenodd" clip-rule="evenodd" d="M21.0309 21.0953H29.0885L8.05759 45.3394H0L21.0309 21.0953Z" fill="var(--fill-0, #777A7E)"/>
<path d="M90.5024 7.70015C89.9615 7.82548 89.3808 7.92732 88.824 7.92732C86.4378 7.92732 84.7753 6.75232 84.7753 4.29266C84.7753 1.833 86.3185 0.407332 88.824 0.407332C89.3092 0.407332 89.9535 0.501332 90.4944 0.704998L90.391 1.93483C89.8342 1.6215 89.3252 1.551 88.7922 1.551C87.273 1.551 86.3185 2.69466 86.3185 4.18299C86.3185 5.67132 87.2491 6.77582 88.824 6.77582C89.4047 6.77582 90.0888 6.65049 90.4387 6.47815L90.5024 7.69232V7.70015Z" fill="var(--fill-0, #777A7E)"/>
<path d="M93.9557 2.31955C95.5704 2.31955 96.8112 3.39271 96.8112 5.16304C96.8112 6.7062 95.7613 7.93603 93.9557 7.93603C92.1501 7.93603 91.116 6.7062 91.116 5.16304C91.116 3.39271 92.3489 2.31955 93.9557 2.31955ZM93.9557 6.8472C95.0454 6.8472 95.3318 5.89154 95.3318 4.99071C95.3318 4.16821 94.8863 3.40054 93.9557 3.40054C93.025 3.40054 92.5955 4.19171 92.5955 4.99071C92.5955 5.87587 92.8819 6.8472 93.9557 6.8472Z" fill="var(--fill-0, #777A7E)"/>
<path d="M97.9224 2.44488H99.2667V3.17338H99.2906C99.736 2.56238 100.341 2.31955 101.08 2.31955C102.369 2.31955 102.926 3.21254 102.926 4.41887V7.80287H101.51V4.94371C101.51 4.28571 101.502 3.40054 100.587 3.40054C99.561 3.40054 99.3383 4.49721 99.3383 5.17871V7.80287H97.9224V2.44488Z" fill="var(--fill-0, #777A7E)"/>
<path d="M107.61 3.57288C107.18 3.42404 106.862 3.34571 106.345 3.34571C105.963 3.34571 105.51 3.47888 105.51 3.94104C105.51 4.79487 107.976 4.25437 107.976 6.1892C107.976 7.44253 106.846 7.93603 105.693 7.93603C105.152 7.93603 104.603 7.84203 104.086 7.70887L104.173 6.5652C104.619 6.78454 105.08 6.9177 105.565 6.9177C105.923 6.9177 106.496 6.78453 106.496 6.2597C106.496 5.21004 104.03 5.9307 104.03 3.98804C104.03 2.82871 105.056 2.31955 106.162 2.31955C106.83 2.31955 107.26 2.42138 107.705 2.51538L107.61 3.56504V3.57288Z" fill="var(--fill-0, #777A7E)"/>
<path d="M111.563 2.31955C113.177 2.31955 114.418 3.39271 114.418 5.16304C114.418 6.7062 113.368 7.93603 111.563 7.93603C109.757 7.93603 108.723 6.7062 108.723 5.16304C108.723 3.39271 109.956 2.31955 111.563 2.31955ZM111.563 6.8472C112.652 6.8472 112.939 5.89154 112.939 4.99071C112.939 4.16821 112.493 3.40054 111.563 3.40054C110.632 3.40054 110.203 4.19171 110.203 4.99071C110.203 5.87587 110.489 6.8472 111.563 6.8472Z" fill="var(--fill-0, #777A7E)"/>
<path d="M116.812 2.44376V3.65792H116.836C116.9 3.15659 117.48 2.31059 118.323 2.31059C118.459 2.31059 118.61 2.31059 118.753 2.34976V3.75192C118.626 3.68142 118.371 3.63442 118.117 3.63442C116.963 3.63442 116.963 5.05225 116.963 5.81992V7.78608H115.547V2.44376H116.812Z" fill="var(--fill-0, #777A7E)"/>
<path d="M122.984 3.60421C122.73 3.48671 122.46 3.40838 122.022 3.40838C121.147 3.40838 120.582 4.09771 120.582 5.10821C120.582 6.1187 121.06 6.85504 122.054 6.85504C122.452 6.85504 122.897 6.7062 123.144 6.60437L123.207 7.75587C122.794 7.8812 122.372 7.93603 121.791 7.93603C120.002 7.93603 119.103 6.73754 119.103 5.10037C119.103 3.54938 120.033 2.31955 121.736 2.31955C122.308 2.31955 122.722 2.38221 123.112 2.49971L122.984 3.60421Z" fill="var(--fill-0, #777A7E)"/>
<path d="M124.181 0.134337H125.597V1.466H124.181V0.134337ZM124.181 2.44516H125.597V7.80315H124.181V2.44516Z" fill="var(--fill-0, #777A7E)"/>
<path d="M134.112 1.87232C133.643 1.67649 133.126 1.55899 132.609 1.55899C132.092 1.55899 131.448 1.77832 131.448 2.56948C131.448 3.83065 134.685 3.29798 134.685 5.73414C134.685 7.32431 133.404 7.92747 131.917 7.92747C131.114 7.92747 130.756 7.82564 130.024 7.64547L130.159 6.33731C130.668 6.61147 131.249 6.78381 131.829 6.78381C132.41 6.78381 133.142 6.50181 133.142 5.84381C133.142 4.45731 129.912 5.02914 129.912 2.62432C129.912 1.00282 131.193 0.407488 132.49 0.407488C133.126 0.407488 133.715 0.493654 134.255 0.665987L134.12 1.86448L134.112 1.87232Z" fill="var(--fill-0, #777A7E)"/>
<path d="M136.143 2.72688C136.692 2.47621 137.432 2.31955 138.036 2.31955C139.699 2.31955 140.383 2.99321 140.383 4.57554V5.26487C140.383 5.80537 140.391 6.2127 140.407 6.60437C140.415 7.0117 140.438 7.3877 140.47 7.80287H139.221C139.166 7.52087 139.166 7.16837 139.158 7.00387H139.134C138.808 7.5992 138.1 7.9282 137.456 7.9282C136.493 7.9282 135.555 7.35637 135.555 6.33804C135.555 5.53904 135.944 5.06904 136.485 4.81054C137.026 4.55204 137.718 4.49721 138.315 4.49721H139.094C139.094 3.63554 138.704 3.33788 137.869 3.33788C137.265 3.33788 136.668 3.56504 136.191 3.91754L136.151 2.71904L136.143 2.72688ZM137.806 6.90987C138.243 6.90987 138.577 6.72187 138.8 6.43204C139.031 6.13437 139.094 5.7427 139.094 5.32754H138.482C137.845 5.32754 136.907 5.42937 136.907 6.25187C136.907 6.71404 137.297 6.90987 137.806 6.90987Z" fill="var(--fill-0, #777A7E)"/>
<path d="M141.779 2.44488H143.123V3.17338H143.147C143.592 2.56238 144.197 2.31955 144.937 2.31955C146.225 2.31955 146.782 3.21254 146.782 4.41887V7.80287H145.366V4.94371C145.366 4.28571 145.358 3.40054 144.444 3.40054C143.417 3.40054 143.195 4.49721 143.195 5.17871V7.80287H141.779V2.44488Z" fill="var(--fill-0, #777A7E)"/>
<path d="M148.263 0.134337H149.679V1.466H148.263V0.134337ZM148.263 2.44516H149.679V7.80315H148.263V2.44516Z" fill="var(--fill-0, #777A7E)"/>
<path d="M151.641 3.46044H150.591V2.44211H151.641V1.36894L153.057 0.922445V2.44211H154.314V3.46044H153.057V5.95927C153.057 6.4136 153.184 6.84443 153.725 6.84443C153.98 6.84443 154.218 6.7896 154.37 6.6956L154.409 7.8001C154.115 7.88626 153.789 7.92543 153.367 7.92543C152.254 7.92543 151.641 7.25176 151.641 6.18643V3.46044Z" fill="var(--fill-0, #777A7E)"/>
<path d="M155.524 2.72688C156.072 2.47621 156.812 2.31955 157.417 2.31955C159.079 2.31955 159.763 2.99321 159.763 4.57554V5.26487C159.763 5.80537 159.771 6.2127 159.787 6.60437C159.795 7.0117 159.819 7.3877 159.851 7.80287H158.602C158.546 7.52087 158.546 7.16837 158.538 7.00387H158.514C158.188 7.5992 157.48 7.9282 156.836 7.9282C155.873 7.9282 154.935 7.35637 154.935 6.33804C154.935 5.53904 155.325 5.06904 155.866 4.81054C156.406 4.55204 157.098 4.49721 157.695 4.49721H158.475C158.475 3.63554 158.085 3.33788 157.25 3.33788C156.645 3.33788 156.048 3.56504 155.571 3.91754L155.531 2.71904L155.524 2.72688ZM157.178 6.90987C157.615 6.90987 157.95 6.72187 158.172 6.43204C158.403 6.13437 158.467 5.7427 158.467 5.32754H157.854C157.218 5.32754 156.279 5.42937 156.279 6.25187C156.279 6.71404 156.669 6.90987 157.178 6.90987Z" fill="var(--fill-0, #777A7E)"/>
<path d="M162.451 2.44376V3.65792H162.475C162.538 3.15659 163.119 2.31059 163.962 2.31059C164.097 2.31059 164.248 2.31059 164.392 2.34976V3.75192C164.264 3.68142 164.01 3.63442 163.755 3.63442C162.602 3.63442 162.602 5.05225 162.602 5.81992V7.78608H161.186V2.44376H162.451Z" fill="var(--fill-0, #777A7E)"/>
<path d="M165.306 0.134337H166.722V1.466H165.306V0.134337ZM165.306 2.44516H166.722V7.80315H165.306V2.44516Z" fill="var(--fill-0, #777A7E)"/>
<path d="M174.8 7.19882H174.776C174.354 7.71582 173.773 7.92732 173.105 7.92732C171.435 7.92732 170.822 6.57215 170.822 5.10732C170.822 3.64249 171.435 2.31866 173.105 2.31866C173.813 2.31866 174.306 2.56149 174.736 3.07066H174.76V0H176.176V7.80198H174.8V7.19882ZM173.495 6.84632C174.434 6.84632 174.744 5.86715 174.744 5.10732C174.744 4.34749 174.386 3.39966 173.471 3.39966C172.556 3.39966 172.302 4.38666 172.302 5.10732C172.302 5.82799 172.564 6.84632 173.495 6.84632Z" fill="var(--fill-0, #777A7E)"/>
<path d="M181.988 7.5052C181.471 7.7872 180.875 7.93603 180.119 7.93603C178.322 7.93603 177.28 6.9177 177.28 5.15521C177.28 3.60421 178.115 2.31955 179.801 2.31955C181.821 2.31955 182.394 3.68254 182.394 5.5547H178.632C178.695 6.41637 179.308 6.90987 180.183 6.90987C180.867 6.90987 181.463 6.6592 181.988 6.36937V7.5052ZM181.042 4.59904C181.002 3.92537 180.684 3.33788 179.889 3.33788C179.093 3.33788 178.695 3.87837 178.632 4.59904H181.042Z" fill="var(--fill-0, #777A7E)"/>
<path d="M186.576 0.541824H189.153C190.107 0.541824 191.531 0.81599 191.531 2.40615C191.531 3.26782 190.942 3.87098 190.06 4.02765V4.05115C191.062 4.14515 191.754 4.81098 191.754 5.70398C191.754 7.53698 190.083 7.80331 189.153 7.80331H186.576V0.541824ZM188.055 3.47932H188.66C189.28 3.47932 190.052 3.34615 190.052 2.59415C190.052 1.74815 189.304 1.68549 188.628 1.68549H188.055V3.47932ZM188.055 6.65964H188.755C189.439 6.65964 190.274 6.49514 190.274 5.64915C190.274 4.70132 189.495 4.55248 188.755 4.55248H188.055V6.65964Z" fill="var(--fill-0, #777A7E)"/>
<path d="M193.147 2.72688C193.696 2.47621 194.435 2.31955 195.04 2.31955C196.702 2.31955 197.386 2.99321 197.386 4.57554V5.26487C197.386 5.80537 197.394 6.2127 197.41 6.60437C197.418 7.0117 197.442 7.3877 197.474 7.80287H196.225C196.169 7.52087 196.169 7.16837 196.161 7.00387H196.137C195.811 7.5992 195.103 7.9282 194.459 7.9282C193.497 7.9282 192.558 7.35637 192.558 6.33804C192.558 5.53904 192.948 5.06904 193.489 4.81054C194.03 4.55204 194.722 4.49721 195.318 4.49721H196.098C196.098 3.63554 195.708 3.33788 194.873 3.33788C194.268 3.33788 193.672 3.56504 193.194 3.91754L193.155 2.71904L193.147 2.72688ZM194.809 6.90987C195.247 6.90987 195.581 6.72187 195.803 6.43204C196.034 6.13437 196.098 5.7427 196.098 5.32754H195.485C194.849 5.32754 193.91 5.42937 193.91 6.25187C193.91 6.71404 194.3 6.90987 194.809 6.90987Z" fill="var(--fill-0, #777A7E)"/>
<path d="M200.065 2.44376V3.65792H200.089C200.152 3.15659 200.733 2.31059 201.576 2.31059C201.712 2.31059 201.863 2.31059 202.006 2.34976V3.75192C201.879 3.68142 201.624 3.63442 201.369 3.63442C200.216 3.63442 200.216 5.05225 200.216 5.81992V7.78608H198.8V2.44376H200.065Z" fill="var(--fill-0, #777A7E)"/>
<path d="M206.237 3.60421C205.983 3.48671 205.712 3.40838 205.275 3.40838C204.4 3.40838 203.835 4.09771 203.835 5.10821C203.835 6.1187 204.312 6.85504 205.307 6.85504C205.704 6.85504 206.15 6.7062 206.396 6.60437L206.46 7.75587C206.046 7.8812 205.625 7.93603 205.044 7.93603C203.255 7.93603 202.356 6.73754 202.356 5.10037C202.356 3.54938 203.286 2.31955 204.989 2.31955C205.561 2.31955 205.975 2.38221 206.365 2.49971L206.237 3.60421Z" fill="var(--fill-0, #777A7E)"/>
<path d="M211.766 7.5052C211.249 7.7872 210.653 7.93603 209.897 7.93603C208.099 7.93603 207.057 6.9177 207.057 5.15521C207.057 3.60421 207.893 2.31955 209.579 2.31955C211.599 2.31955 212.172 3.68254 212.172 5.5547H208.41C208.473 6.41637 209.086 6.90987 209.961 6.90987C210.645 6.90987 211.241 6.6592 211.766 6.36937V7.5052ZM210.82 4.59904C210.78 3.92537 210.462 3.33788 209.666 3.33788C208.871 3.33788 208.473 3.87837 208.41 4.59904H210.82Z" fill="var(--fill-0, #777A7E)"/>
<path d="M213.309 0H214.724V7.80198H213.309V0Z" fill="var(--fill-0, #777A7E)"/>
<path d="M218.71 2.31955C220.324 2.31955 221.565 3.39271 221.565 5.16304C221.565 6.7062 220.515 7.93603 218.71 7.93603C216.904 7.93603 215.87 6.7062 215.87 5.16304C215.87 3.39271 217.103 2.31955 218.71 2.31955ZM218.71 6.8472C219.799 6.8472 220.086 5.89154 220.086 4.99071C220.086 4.16821 219.64 3.40054 218.71 3.40054C217.779 3.40054 217.349 4.19171 217.349 4.99071C217.349 5.87587 217.636 6.8472 218.71 6.8472Z" fill="var(--fill-0, #777A7E)"/>
<path d="M222.667 2.44488H224.012V3.17338H224.036C224.481 2.56238 225.085 2.31955 225.825 2.31955C227.114 2.31955 227.671 3.21254 227.671 4.41887V7.80287H226.255V4.94371C226.255 4.28571 226.247 3.40054 225.332 3.40054C224.306 3.40054 224.083 4.49721 224.083 5.17871V7.80287H222.667V2.44488Z" fill="var(--fill-0, #777A7E)"/>
<path d="M229.373 2.72688C229.922 2.47621 230.661 2.31955 231.266 2.31955C232.928 2.31955 233.612 2.99321 233.612 4.57554V5.26487C233.612 5.80537 233.62 6.2127 233.636 6.60437C233.644 7.0117 233.668 7.3877 233.7 7.80287H232.451C232.395 7.52087 232.395 7.16837 232.387 7.00387H232.364C232.037 7.5992 231.33 7.9282 230.685 7.9282C229.723 7.9282 228.784 7.35637 228.784 6.33804C228.784 5.53904 229.174 5.06904 229.715 4.81054C230.256 4.55204 230.948 4.49721 231.544 4.49721H232.324C232.324 3.63554 231.934 3.33788 231.099 3.33788C230.494 3.33788 229.898 3.56504 229.421 3.91754L229.381 2.71904L229.373 2.72688ZM231.027 6.90987C231.465 6.90987 231.799 6.72187 232.022 6.43204C232.252 6.13437 232.316 5.7427 232.316 5.32754H231.703C231.067 5.32754 230.128 5.42937 230.128 6.25187C230.128 6.71404 230.518 6.90987 231.027 6.90987Z" fill="var(--fill-0, #777A7E)"/>
<path d="M63.1203 0.617948H67.694C68.9587 0.617948 70.1995 1.01745 70.1995 2.38044C70.1995 3.36744 69.6666 3.89227 68.6962 4.13511V4.15861C69.7064 4.29177 70.3347 5.07511 70.3347 5.78794C70.3347 7.59743 68.8553 7.7776 67.344 7.7776H63.1203V0.617948ZM66.4451 3.35961C66.9304 3.35961 67.4633 3.21861 67.4633 2.67028C67.4633 2.12195 67.0019 1.97311 66.5008 1.97311H65.7372V3.35961H66.4451ZM65.7452 6.30494H66.477C66.986 6.30494 67.5428 6.11694 67.5428 5.56077C67.5428 4.94977 67.0178 4.83227 66.5008 4.83227H65.7531V6.2971L65.7452 6.30494Z" fill="var(--fill-0, #777A7E)"/>
<path d="M56.489 2.58519C55.8606 2.36585 55.1209 2.22485 54.3334 2.22485C53.8959 2.22485 53.1323 2.23269 53.1323 2.69485C53.1323 3.62702 56.9583 2.74969 56.9583 5.50701C56.9583 7.42617 55.0334 7.91184 53.4107 7.91184C52.3369 7.91184 51.454 7.81001 50.412 7.57501V5.71851C51.1597 6.02401 52.0824 6.18851 52.9176 6.18851C53.5778 6.18851 54.1664 6.05534 54.1664 5.69501C54.1664 4.73151 50.3404 5.60101 50.3404 2.82018C50.3404 0.846189 52.4244 0.501523 54.0789 0.501523C54.8584 0.501523 55.7254 0.595523 56.489 0.744356V2.58519Z" fill="var(--fill-0, #777A7E)"/>
<path d="M44.5597 7.62181C44.0348 7.76281 43.2632 7.91165 42.5553 7.91165C40.1372 7.91165 38.1964 6.65832 38.1964 4.10466C38.1964 1.69983 40.2167 0.501332 42.5553 0.501332C43.3268 0.501332 43.7882 0.595332 44.5359 0.728498V2.61633C44.0745 2.47533 43.6052 2.34999 43.1359 2.34999C41.9508 2.34999 41.0519 2.97666 41.0519 4.14382C41.0519 5.37365 41.8871 6.00032 43.0405 6.00032C43.5495 6.00032 44.0427 5.89849 44.5518 5.72615V7.62181H44.5597Z" fill="var(--fill-0, #777A7E)"/>
</g>
</svg>
