<?xml version="1.0" encoding="UTF-8"?>
<svg viewBox="0 0 204 41" xmlns="http://www.w3.org/2000/svg">
<path d="m77.551 18.602h1.9914l3.4555 8.6783h-1.9567l-0.7563-1.9885h-3.5735l-0.7702 1.9885h-1.8318l3.4347-8.6783h0.0069zm0.9714 1.7425h-0.0277l-1.2768 3.5806h2.5743l-1.2767-3.5806h0.0069z" fill="#777A7E"/>
<path d="m89.586 20.877v5.781c0 1.7425-0.7077 3.3825-3.4347 3.3825-0.6661 0-1.4363-0.1025-2.2481-0.4373l0.1387-1.4145c0.5205 0.2733 1.36 0.5603 1.8943 0.5603 1.8666 0 1.9568-1.3803 1.9568-2.4873h-0.0278c-0.3192 0.5466-1.0755 1.0181-2.0192 1.0181-1.9151 0-2.6506-1.517-2.6506-3.2321 0-1.5444 0.8049-3.321 2.7547-3.321 0.8604 0 1.5265 0.287 1.9914 1.0181h0.0278v-0.8678h1.6167zm-1.693 3.1365c0-1.0933-0.4302-1.9885-1.4155-1.9885-1.1519 0-1.5127 1.0455-1.5127 2.0295 0 0.8678 0.4649 1.9407 1.4363 1.9407 1.0617 0 1.4919-0.9089 1.4919-1.9749v-0.0068z" fill="#777A7E"/>
<path d="m96.182 26.918c-0.6175 0.3348-1.3253 0.5125-2.2343 0.5125-2.144 0-3.393-1.2164-3.393-3.321 0-1.8519 0.9992-3.3825 3.0184-3.3825 2.4077 0 3.0946 1.6263 3.0946 3.8676h-4.4963c0.0763 1.0319 0.8049 1.6127 1.8527 1.6127 0.8188 0 1.5265-0.3007 2.1579-0.6492v1.3599zm-1.7555-6.9085h-1.0477l-1.7278-1.8177h1.7278l1.0477 1.8177zm0.6176 3.444c-0.0486-0.8064-0.4302-1.5034-1.3739-1.5034s-1.4294 0.6492-1.4988 1.5034h2.8796-0.0069z" fill="#777A7E"/>
<path d="m97.617 20.877h1.6029v0.8678h0.0277c0.5343-0.7311 1.2492-1.0181 2.1372-1.0181 1.54 0 2.206 1.066 2.206 2.5078v4.0385h-1.693v-3.4167c0-0.7858-0.013-1.8381-1.096-1.8381-1.2211 0-1.4917 1.3051-1.4917 2.1251v3.1297h-1.6931v-6.4028 0.0068z" fill="#777A7E"/>
<path d="m109.17 22.257c-0.305-0.1366-0.631-0.2391-1.152-0.2391-1.047 0-1.714 0.82-1.714 2.0295s0.569 2.091 1.756 2.091c0.479 0 1.006-0.1709 1.298-0.3007l0.076 1.3803c-0.493 0.1504-0.999 0.2119-1.693 0.2119-2.13 0-3.206-1.4282-3.206-3.3825 0-1.9544 1.11-3.321 3.143-3.321 0.68 0 1.173 0.0751 1.645 0.2118l-0.153 1.3188z" fill="#777A7E"/>
<path d="m110.24 18.117h1.693v1.5922h-1.693v-1.5922zm0 2.7607h1.693v6.4028h-1.693v-6.4028z" fill="#777A7E"/>
<path d="m113.64 21.212c0.66-0.3006 1.541-0.4851 2.262-0.4851 1.985 0 2.804 0.8063 2.804 2.6991v0.82c0 0.6492 0.014 1.1344 0.027 1.6059 0.014 0.4851 0.042 0.9293 0.077 1.4281h-1.492c-0.063-0.3348-0.063-0.7585-0.076-0.9566h-0.028c-0.389 0.7106-1.235 1.107-2.006 1.107-1.151 0-2.268-0.6834-2.268-1.8997 0-0.9567 0.464-1.517 1.11-1.8245 0.645-0.3075 1.478-0.3758 2.185-0.3758h0.937c0-1.0319-0.465-1.3804-1.464-1.3804-0.722 0-1.436 0.2734-2.005 0.697l-0.049-1.4281-0.014-0.0069zm1.978 5.002c0.52 0 0.923-0.2255 1.186-0.574 0.278-0.3621 0.354-0.82 0.354-1.3188h-0.735c-0.757 0-1.881 0.123-1.881 1.107 0 0.5467 0.465 0.7858 1.076 0.7858z" fill="#777A7E"/>
<path d="m79.199 38.993h-0.0277c-0.5065 0.6218-1.2004 0.8678-1.9914 0.8678-1.9915 0-2.727-1.6195-2.727-3.3688s0.7355-3.3347 2.727-3.3347c0.8465 0 1.4363 0.287 1.9428 0.8952h0.0278v-3.6695h1.693v9.3207h-1.6445v-0.7244 0.0137zm-1.5542-0.4237c1.124 0 1.4918-1.1685 1.4918-2.0773s-0.4302-2.0363-1.5127-2.0363c-1.0824 0-1.4016 1.1821-1.4016 2.0363s0.3123 2.0773 1.4294 2.0773h-0.0069z" fill="#777A7E"/>
<path d="m87.432 39.347c-0.6175 0.3348-1.3253 0.5125-2.2343 0.5125-2.144 0-3.393-1.2164-3.393-3.321 0-1.8519 0.9992-3.3826 3.0184-3.3826 2.4077 0 3.0946 1.6264 3.0946 3.8677h-4.4963c0.0763 1.0318 0.8049 1.6127 1.8527 1.6127 0.8188 0 1.5265-0.3007 2.1579-0.6492v1.3599zm-1.1379-3.4646c-0.0486-0.8063-0.4302-1.5033-1.3739-1.5033s-1.4294 0.6492-1.4988 1.5033h2.8796-0.0069z" fill="#777A7E"/>
<path d="m96.899 32.624c-0.5551-0.2391-1.1727-0.3758-1.7902-0.3758-0.6176 0-1.3878 0.2597-1.3878 1.2027 0 1.5033 3.8649 0.8678 3.8649 3.7788 0 1.8997-1.5265 2.624-3.3098 2.624-0.9575 0-1.3877-0.123-2.262-0.3348l0.1665-1.5649c0.6037 0.3212 1.2976 0.533 1.9914 0.533 0.6939 0 1.5682-0.3348 1.5682-1.1206 0-1.6537-3.8649-0.9704-3.8649-3.8404 0-1.9406 1.5265-2.6513 3.0808-2.6513 0.7563 0 1.4641 0.1025 2.1094 0.3075l-0.1665 1.4282v0.0136z" fill="#777A7E"/>
<path d="m98.943 33.641c0.6592-0.3007 1.54-0.4852 2.262-0.4852 1.985 0 2.803 0.8064 2.803 2.6992v0.82c0 0.6492 0.014 1.1344 0.028 1.6058 0.014 0.4852 0.035 0.9294 0.076 1.4282h-1.491c-0.063-0.3348-0.063-0.7585-0.077-0.9567h-0.028c-0.388 0.7107-1.235 1.1071-2.005 1.1071-1.1517 0-2.2688-0.6834-2.2688-1.8997 0-0.9567 0.4649-1.517 1.1102-1.8245s1.4776-0.3758 2.1856-0.3758h0.937c0-1.0319-0.465-1.3804-1.464-1.3804-0.722 0-1.4366 0.2734-2.0056 0.697l-0.0485-1.4281-0.0139-0.0069zm1.984 5.002c0.514 0 0.923-0.2255 1.187-0.574 0.278-0.3622 0.354-0.82 0.354-1.3188h-0.729c-0.756 0-1.8801 0.123-1.8801 1.107 0 0.5467 0.4651 0.7858 1.0751 0.7858h-7e-3z" fill="#777A7E"/>
<path d="m105.34 30.391h1.693v9.3207h-1.693v-9.3207z" fill="#777A7E"/>
<path d="m114.42 39.712h-1.602v-0.8678h-0.028c-0.521 0.6218-1.249 1.0181-2.13 1.0181-1.541 0-2.207-1.066-2.207-2.5078v-4.0385h1.693v3.4167c0 0.7858 0.014 1.8381 1.097 1.8381 1.221 0 1.491-1.3051 1.491-2.1251v-3.1297h1.693v6.4028l-7e-3 -0.0068z" fill="#777A7E"/>
<path d="m116.35 34.531h-1.249v-1.2164h1.249v-1.2778l1.693-0.533v1.8177h1.498v1.2163h-1.498v2.9862c0 0.5466 0.152 1.0591 0.798 1.0591 0.305 0 0.596-0.0615 0.77-0.1708l0.048 1.3188c-0.354 0.1025-0.742 0.1504-1.249 0.1504-1.325 0-2.054-0.8064-2.054-2.0774v-3.2595l-6e-3 -0.0136z" fill="#777A7E"/>
<path d="m123.47 31.031h2.234c1.922 0 3.671 0.5467 3.671 2.6241 0 2.0773-1.499 2.7606-3.393 2.7606h-0.743v3.2937h-1.769v-8.6784zm1.762 4.0181h0.618c0.881 0 1.679-0.287 1.679-1.2915s-0.77-1.3531-1.679-1.3531h-0.618v2.6514-0.0068z" fill="#777A7E"/>
<path d="m136.09 39.709h-1.603v-0.8678h-0.027c-0.521 0.6218-1.249 1.0182-2.13 1.0182-1.541 0-2.207-1.066-2.207-2.5079v-4.0385h1.693v3.4167c0 0.7858 0.014 1.8382 1.096 1.8382 1.222 0 1.492-1.3052 1.492-2.1252v-3.1297h1.693v6.4029l-7e-3 -0.0069zm-2.865-9.0883h1.727l-1.727 1.8177h-1.048l1.048-1.8177z" fill="#777A7E"/>
<path d="m137.47 30.391h1.693v3.7447h0.028c0.464-0.6082 1.061-0.9703 1.942-0.9703 1.992 0 2.727 1.5648 2.727 3.3346 0 1.7699-0.728 3.3689-2.727 3.3689-0.721 0-1.498-0.246-1.991-0.9294h-0.028v0.7859h-1.644v-9.3344zm3.192 8.1795c1.11 0 1.429-1.1958 1.429-2.0773s-0.305-2.0363-1.402-2.0363c-1.096 0-1.512 1.1411-1.512 2.0363s0.367 2.0773 1.492 2.0773h-7e-3z" fill="#777A7E"/>
<path d="m144.85 30.391h1.693v9.3207h-1.693v-9.3207z" fill="#777A7E"/>
<path d="m147.99 30.555h1.693v1.5922h-1.693v-1.5922zm0 2.7538h1.693v6.4029h-1.693v-6.4029z" fill="#777A7E"/>
<path d="m155.32 34.687c-0.306-0.1367-0.632-0.2392-1.152-0.2392-1.048 0-1.714 0.8201-1.714 2.0296s0.569 2.0909 1.756 2.0909c0.478 0 1.006-0.1708 1.297-0.3006l0.076 1.3803c-0.492 0.1504-0.999 0.2119-1.693 0.2119-2.13 0-3.205-1.4282-3.205-3.3825 0-1.9544 1.11-3.3211 3.143-3.3211 0.68 0 1.173 0.0752 1.644 0.2119l-0.152 1.3188z" fill="#777A7E"/>
<path d="m156.63 33.641c0.659-0.3007 1.54-0.4852 2.262-0.4852 1.984 0 2.803 0.8064 2.803 2.6992v0.82c0 0.6492 0.014 1.1344 0.028 1.6058 0.013 0.4852 0.034 0.9294 0.076 1.4282h-1.492c-0.062-0.3348-0.062-0.7585-0.076-0.9567h-0.028c-0.389 0.7107-1.235 1.1071-2.005 1.1071-1.152 0-2.269-0.6834-2.269-1.8997 0-0.9567 0.465-1.517 1.11-1.8245s1.478-0.3758 2.186-0.3758h0.936c0-1.0319-0.465-1.3804-1.464-1.3804-0.721 0-1.436 0.2734-2.005 0.697l-0.049-1.4281-0.013-0.0069zm1.977 5.002c0.52 0 0.923-0.2255 1.187-0.574 0.277-0.3622 0.353-0.82 0.353-1.3188h-0.728c-0.756 0-1.881 0.123-1.881 1.107 0 0.5467 0.465 0.7858 1.076 0.7858h-7e-3z" fill="#777A7E"/>
<path d="m37.734 29.09c0-6.5805 5.4122-11.91 12.094-11.91 6.682 0 12.094 5.33 12.094 11.91s-5.4122 11.91-12.094 11.91c-6.6821 0-12.094-5.33-12.094-11.91z" fill="#AAACAE"/>
<path d="m47.524 24.066h3.0739c1.1727 0 2.2551 0.287 2.2551 1.6879 0 1.2368-0.8535 1.7493-2.0053 1.7493h-3.3237v-3.4372zm-3.282 12.184h7.2302c2.6992 0 5.2665-1.2779 5.2665-4.2572 0-1.8313-0.9159-3.2117-2.7339-3.7242 1.2976-0.615 2.0262-1.6263 2.0262-3.0681 0-2.7402-1.9221-3.6422-4.767-3.6422h-7.022v14.692zm3.282-6.5464h3.5735c1.4016 0 2.3592 0.5945 2.3592 2.0979 0 1.5033-1.131 1.9338-2.4216 1.9338h-3.5111v-4.0317z" clip-rule="evenodd" fill="#fff" fill-rule="evenodd"/>
<path d="m33.538 18.418v7.995h8.0906v5.2206h-8.0906v7.9609h-5.3914v-7.9609h-8.0837v-5.2206h8.0837v-7.995h5.3914z" fill="#328CA8"/>
<path d="m18.416 18.402h7.029l-18.346 21.149h-7.029l18.346-21.149z" clip-rule="evenodd" fill="#777A7E" fill-rule="evenodd"/>
<path d="m79.019 6.7173c-0.4719 0.10933-0.9784 0.19817-1.4641 0.19817-2.0817 0-3.5319-1.025-3.5319-3.1707 0-2.1457 1.3462-3.3893 3.5319-3.3893 0.4232 0 0.9853 0.082 1.4571 0.25967l-0.0902 1.0728c-0.4857-0.27333-0.9298-0.33483-1.3947-0.33483-1.3253 0-2.1579 0.99766-2.1579 2.296 0 1.2983 0.8118 2.2618 2.1857 2.2618 0.5065 0 1.1032-0.10933 1.4085-0.25967l0.0556 1.0592v0.00683z" fill="#777A7E"/>
<path d="m82.032 2.0234c1.4086 0 2.491 0.93616 2.491 2.4805 0 1.3462-0.9159 2.419-2.491 2.419s-2.4771-1.0728-2.4771-2.419c0-1.5443 1.0755-2.4805 2.4771-2.4805zm0 3.9497c0.9506 0 1.2004-0.83366 1.2004-1.6195 0-0.7175-0.3885-1.3872-1.2004-1.3872-0.8118 0-1.1865 0.69016-1.1865 1.3872 0 0.77217 0.2498 1.6195 1.1865 1.6195z" fill="#777A7E"/>
<path d="m85.492 2.1328h1.1726v0.6355h0.0209c0.3885-0.533 0.9159-0.74483 1.5612-0.74483 1.1241 0 1.6098 0.779 1.6098 1.8313v2.952h-1.2351v-2.4942c0-0.574-7e-3 -1.3462-0.8049-1.3462-0.8951 0-1.0894 0.95666-1.0894 1.5512v2.2892h-1.2351v-4.674z" fill="#777A7E"/>
<path d="m93.943 3.1168c-0.3747-0.12983-0.6523-0.19817-1.1033-0.19817-0.3331 0-0.7286 0.11617-0.7286 0.51934 0 0.74483 2.151 0.27333 2.151 1.9612 0 1.0933-0.9853 1.5238-1.9914 1.5238-0.4718 0-0.9506-0.082-1.4016-0.19817l0.0763-0.99767c0.3886 0.19134 0.791 0.3075 1.2143 0.3075 0.3122 0 0.8118-0.11616 0.8118-0.574 0-0.91566-2.151-0.287-2.151-1.9817 0-1.0113 0.8951-1.4555 1.8596-1.4555 0.5829 0 0.9576 0.08883 1.3461 0.17083l-0.0832 0.91567v0.00683z" fill="#777A7E"/>
<path d="m97.391 2.0234c1.4086 0 2.491 0.93616 2.491 2.4805 0 1.3462-0.9159 2.419-2.491 2.419s-2.4771-1.0728-2.4771-2.419c0-1.5443 1.0755-2.4805 2.4771-2.4805zm0 3.9497c0.9506 0 1.2004-0.83366 1.2004-1.6195 0-0.7175-0.3886-1.3872-1.2004-1.3872s-1.1865 0.69016-1.1865 1.3872c0 0.77217 0.2498 1.6195 1.1865 1.6195z" fill="#777A7E"/>
<path d="m100.87 2.1318h1.096v1.0592h0.021c0.056-0.43733 0.562-1.1753 1.298-1.1753 0.118 0 0.25-1e-5 0.375 0.03416v1.2232c-0.112-0.0615-0.334-0.1025-0.556-0.1025-1.006 0-1.006 1.2368-1.006 1.9065v1.7152h-1.235v-4.6603h7e-3z" fill="#777A7E"/>
<path d="m107.36 3.1441c-0.222-0.1025-0.458-0.17083-0.84-0.17083-0.763 0-1.256 0.60133-1.256 1.4828s0.417 1.5238 1.284 1.5238c0.347 0 0.736-0.12984 0.951-0.21867l0.055 1.0045c-0.361 0.10933-0.728 0.15717-1.235 0.15717-1.561 0-2.345-1.0455-2.345-2.4737 0-1.353 0.812-2.4258 2.296-2.4258 0.5 0 0.861 0.05466 1.201 0.15716l-0.111 0.9635z" fill="#777A7E"/>
<path d="m108.4 0.11719h1.236v1.1617h-1.236v-1.1617zm0 2.0158h1.236v4.674h-1.236v-4.674z" fill="#777A7E"/>
<path d="m117.06 1.6333c-0.409-0.17083-0.86-0.27333-1.311-0.27333s-1.013 0.19133-1.013 0.8815c0 1.1002 2.824 0.6355 2.824 2.7607 0 1.3872-1.117 1.9133-2.415 1.9133-0.701 0-1.013-0.08883-1.651-0.246l0.118-1.1412c0.444 0.23917 0.95 0.3895 1.457 0.3895 0.506 0 1.145-0.246 1.145-0.82 0-1.2095-2.818-0.71066-2.818-2.8085 0-1.4145 1.118-1.9338 2.249-1.9338 0.555 0 1.068 0.075166 1.54 0.2255l-0.118 1.0455-7e-3 0.00683z" fill="#777A7E"/>
<path d="m118.83 2.3788c0.479-0.21867 1.124-0.35533 1.651-0.35533 1.45 0 2.047 0.58766 2.047 1.968v0.60133c0 0.4715 7e-3 0.82683 0.021 1.1685 7e-3 0.35533 0.028 0.68333 0.055 1.0455h-1.089c-0.048-0.246-0.048-0.5535-0.055-0.697h-0.021c-0.285 0.51933-0.902 0.80633-1.464 0.80633-0.84 0-1.659-0.49883-1.659-1.3872 0-0.697 0.34-1.107 0.812-1.3325s1.076-0.27334 1.596-0.27334h0.68c0-0.75166-0.34-1.0113-1.069-1.0113-0.527 0-1.047 0.19817-1.464 0.50567l-0.034-1.0455-7e-3 0.00683zm1.45 3.649c0.382 0 0.673-0.164 0.867-0.41683 0.202-0.25967 0.257-0.60134 0.257-0.9635h-0.534c-0.555 0-1.374 0.08883-1.374 0.80633 0 0.40317 0.34 0.574 0.784 0.574z" fill="#777A7E"/>
<path d="m123.75 2.1328h1.173v0.6355h0.02c0.389-0.533 0.916-0.74483 1.562-0.74483 1.124 0 1.609 0.779 1.609 1.8313v2.952h-1.235v-2.4942c0-0.574-7e-3 -1.3462-0.805-1.3462-0.895 0-1.089 0.95666-1.089 1.5512v2.2892h-1.235v-4.674z" fill="#777A7E"/>
<path d="m129.41 0.11719h1.235v1.1617h-1.235v-1.1617zm0 2.0158h1.235v4.674h-1.235v-4.674z" fill="#777A7E"/>
<path d="m132.35 3.0187h-0.915v-0.88834h0.915v-0.93616l1.236-0.3895v1.3257h1.096v0.88834h-1.096v2.1798c0 0.39633 0.111 0.77217 0.582 0.77217 0.222 0 0.431-0.04784 0.562-0.12984l0.035 0.9635c-0.257 0.07517-0.541 0.10934-0.909 0.10934-0.971 0-1.506-0.58767-1.506-1.517v-2.378z" fill="#777A7E"/>
<path d="m135.74 2.3788c0.479-0.21867 1.124-0.35533 1.651-0.35533 1.451 0 2.047 0.58766 2.047 1.968v0.60133c0 0.4715 7e-3 0.82683 0.021 1.1685 7e-3 0.35533 0.028 0.68333 0.056 1.0455h-1.09c-0.048-0.246-0.048-0.5535-0.055-0.697h-0.021c-0.284 0.51933-0.902 0.80633-1.464 0.80633-0.84 0-1.658-0.49883-1.658-1.3872 0-0.697 0.34-1.107 0.811-1.3325 0.472-0.2255 1.076-0.27334 1.596-0.27334h0.68c0-0.75166-0.34-1.0113-1.068-1.0113-0.528 0-1.048 0.19817-1.464 0.50567l-0.035-1.0455-7e-3 0.00683zm1.443 3.649c0.382 0 0.673-0.164 0.868-0.41683 0.201-0.25967 0.256-0.60134 0.256-0.9635h-0.534c-0.555 0-1.374 0.08883-1.374 0.80633 0 0.40317 0.34 0.574 0.784 0.574z" fill="#777A7E"/>
<path d="m140.69 2.1318h1.096v1.0592h0.021c0.055-0.43733 0.562-1.1753 1.297-1.1753 0.118 0 0.25-1e-5 0.375 0.03416v1.2232c-0.111-0.0615-0.333-0.1025-0.555-0.1025-1.006 0-1.006 1.2368-1.006 1.9065v1.7152h-1.235v-4.6603h7e-3z" fill="#777A7E"/>
<path d="m144.27 0.11719h1.236v1.1617h-1.236v-1.1617zm0 2.0158h1.236v4.674h-1.236v-4.674z" fill="#777A7E"/>
<path d="m152.56 6.2798h-0.02c-0.368 0.451-0.875 0.6355-1.458 0.6355-1.457 0-1.991-1.1822-1.991-2.46 0-1.2778 0.534-2.4327 1.991-2.4327 0.618 0 1.048 0.21183 1.423 0.656h0.021v-2.6787h1.235v6.806h-1.201v-0.52617zm-1.138-0.3075c0.819 0 1.09-0.85416 1.09-1.517 0-0.66283-0.312-1.4897-1.11-1.4897s-1.02 0.861-1.02 1.4897c0 0.62867 0.229 1.517 1.04 1.517z" fill="#777A7E"/>
<path d="m158.83 6.5471c-0.452 0.246-0.972 0.37584-1.631 0.37584-1.568 0-2.477-0.88834-2.477-2.4258 0-1.353 0.728-2.4737 2.199-2.4737 1.763 0 2.262 1.189 2.262 2.8222h-3.282c0.056 0.75167 0.59 1.1822 1.353 1.1822 0.597 0 1.118-0.21867 1.576-0.4715v0.99083zm-0.826-2.5352c-0.035-0.58767-0.312-1.1002-1.006-1.1002s-1.041 0.4715-1.097 1.1002h2.103z" fill="#777A7E"/>
<path d="m162.83 0.47266h2.248c0.833 0 2.075 0.23917 2.075 1.6263 0 0.75167-0.513 1.2778-1.284 1.4145v0.0205c0.875 0.082 1.478 0.66283 1.478 1.4418 0 1.599-1.457 1.8313-2.269 1.8313h-2.248v-6.3345zm1.291 2.5625h0.527c0.541 0 1.214-0.11617 1.214-0.77217 0-0.738-0.652-0.79267-1.242-0.79267h-0.499v1.5648zm0 2.7743h0.61c0.597 0 1.326-0.1435 1.326-0.8815 0-0.82683-0.68-0.95667-1.326-0.95667h-0.61v1.8382z" fill="#777A7E"/>
<path d="m168.56 2.3788c0.479-0.21867 1.124-0.35533 1.652-0.35533 1.45 0 2.047 0.58766 2.047 1.968v0.60133c0 0.4715 7e-3 0.82683 0.021 1.1685 6e-3 0.35533 0.027 0.68333 0.055 1.0455h-1.089c-0.049-0.246-0.049-0.5535-0.056-0.697h-0.021c-0.284 0.51933-0.902 0.80633-1.464 0.80633-0.839 0-1.658-0.49883-1.658-1.3872 0-0.697 0.34-1.107 0.812-1.3325s1.075-0.27334 1.596-0.27334h0.68c0-0.75166-0.34-1.0113-1.069-1.0113-0.527 0-1.048 0.19817-1.464 0.50567l-0.035-1.0455-7e-3 0.00683zm1.451 3.649c0.381 0 0.673-0.164 0.867-0.41683 0.201-0.25967 0.257-0.60134 0.257-0.9635h-0.535c-0.555 0-1.374 0.08883-1.374 0.80633 0 0.40317 0.34 0.574 0.785 0.574z" fill="#777A7E"/>
<path d="m173.5 2.1318h1.096v1.0592h0.021c0.056-0.43733 0.562-1.1753 1.298-1.1753 0.118 0 0.25-1e-5 0.375 0.03416v1.2232c-0.112-0.0615-0.334-0.1025-0.556-0.1025-1.006 0-1.006 1.2368-1.006 1.9065v1.7152h-1.235v-4.6603h7e-3z" fill="#777A7E"/>
<path d="m179.98 3.1441c-0.222-0.1025-0.458-0.17083-0.84-0.17083-0.763 0-1.256 0.60133-1.256 1.4828s0.417 1.5238 1.284 1.5238c0.347 0 0.736-0.12984 0.951-0.21867l0.055 1.0045c-0.361 0.10933-0.728 0.15717-1.235 0.15717-1.561 0-2.345-1.0455-2.345-2.4737 0-1.353 0.812-2.4258 2.296-2.4258 0.5 0 0.861 0.05466 1.201 0.15716l-0.111 0.9635z" fill="#777A7E"/>
<path d="m184.8 6.5471c-0.451 0.246-0.971 0.37584-1.631 0.37584-1.568 0-2.477-0.88834-2.477-2.4258 0-1.353 0.729-2.4737 2.2-2.4737 1.762 0 2.262 1.189 2.262 2.8222h-3.282c0.055 0.75167 0.59 1.1822 1.353 1.1822 0.597 0 1.117-0.21867 1.575-0.4715v0.99083zm-0.826-2.5352c-0.034-0.58767-0.312-1.1002-1.006-1.1002s-1.041 0.4715-1.096 1.1002h2.102z" fill="#777A7E"/>
<path d="M186.148 0H187.384V6.806H186.148V0Z" fill="#777A7E"/>
<path d="m190.86 2.0234c1.409 0 2.491 0.93616 2.491 2.4805 0 1.3462-0.916 2.419-2.491 2.419s-2.477-1.0728-2.477-2.419c0-1.5443 1.075-2.4805 2.477-2.4805zm0 3.9497c0.951 0 1.2-0.83366 1.2-1.6195 0-0.7175-0.388-1.3872-1.2-1.3872s-1.187 0.69016-1.187 1.3872c0 0.77217 0.25 1.6195 1.187 1.6195z" fill="#777A7E"/>
<path d="m194.31 2.1328h1.173v0.6355h0.021c0.389-0.533 0.916-0.74483 1.561-0.74483 1.124 0 1.61 0.779 1.61 1.8313v2.952h-1.235v-2.4942c0-0.574-7e-3 -1.3462-0.805-1.3462-0.895 0-1.089 0.95666-1.089 1.5512v2.2892h-1.236v-4.674z" fill="#777A7E"/>
<path d="m200.16 2.3788c0.479-0.21867 1.124-0.35533 1.651-0.35533 1.451 0 2.047 0.58766 2.047 1.968v0.60133c0 0.4715 7e-3 0.82683 0.021 1.1685 7e-3 0.35533 0.028 0.68333 0.056 1.0455h-1.09c-0.048-0.246-0.048-0.5535-0.055-0.697h-0.021c-0.285 0.51933-0.902 0.80633-1.464 0.80633-0.84 0-1.659-0.49883-1.659-1.3872 0-0.697 0.34-1.107 0.812-1.3325s1.076-0.27334 1.596-0.27334h0.68c0-0.75166-0.34-1.0113-1.068-1.0113-0.528 0-1.048 0.19817-1.464 0.50567l-0.035-1.0455-7e-3 0.00683zm1.443 3.649c0.382 0 0.673-0.164 0.868-0.41683 0.201-0.25967 0.256-0.60134 0.256-0.9635h-0.534c-0.555 0-1.374 0.08883-1.374 0.80633 0 0.40317 0.34 0.574 0.784 0.574z" fill="#777A7E"/>
<path d="m55.133 0.53906h3.9898c1.1033 0 2.1857 0.3485 2.1857 1.5375 0 0.861-0.4649 1.3188-1.3114 1.5307v0.0205c0.8812 0.11617 1.4294 0.7995 1.4294 1.4213 0 1.5785-1.2906 1.7357-2.609 1.7357h-3.6845v-6.2457zm2.2898 2.3917h0.6106c0.4233 0 0.8882-0.123 0.8882-0.60133 0-0.47834-0.4025-0.60817-0.8396-0.60817h-0.6661v1.2095h0.0069zm0 2.5693h0.6384c0.4441 0 0.9298-0.164 0.9298-0.64916 0-0.533-0.458-0.6355-0.909-0.6355h-0.6522v1.2778l-7e-3 0.00683z" fill="#777A7E"/>
<path d="m49.348 2.2552c-0.5482-0.19134-1.1935-0.31434-1.8805-0.31434-0.3816 0-1.0477 0.00684-1.0477 0.41 0 0.81317 3.3375 0.04784 3.3375 2.4532 0 1.6742-1.6791 2.0978-3.0947 2.0978-0.9367 0-1.7069-0.08883-2.6159-0.29383v-1.6195c0.6523 0.2665 1.4572 0.41 2.1857 0.41 0.576 0 1.0894-0.11617 1.0894-0.4305 0-0.8405-3.3375-0.082-3.3375-2.5078 0-1.722 1.8179-2.0227 3.2612-2.0227 0.68 0 1.4363 0.082 2.1025 0.21183v1.6058z" fill="#777A7E"/>
<path d="m38.942 6.649c-0.4579 0.123-1.131 0.25283-1.7485 0.25283-2.1094 0-3.8025-1.0933-3.8025-3.321 0-2.0978 1.7625-3.1433 3.8025-3.1433 0.673 0 1.0755 0.082 1.7277 0.19817v1.6468c-0.4024-0.123-0.8118-0.23233-1.2212-0.23233-1.0339 0-1.818 0.54666-1.818 1.5648 0 1.0728 0.7286 1.6195 1.7347 1.6195 0.4441 0 0.8743-0.08883 1.3184-0.23917v1.6537h0.0069z" fill="#777A7E"/>
</svg>
