<?xml version="1.0" encoding="UTF-8"?>
<svg display="block" fill="none" overflow="visible" preserveAspectRatio="none" viewBox="0 0 233.7 47.001" xmlns="http://www.w3.org/2000/svg">
<path d="m91.102 21.324 3.9612 9.9483h-2.2431l-0.867-2.2795h-4.0964l-0.8829 2.2795h-2.0999l3.9373-9.9483h2.2908zm-1.1693 1.9975h-0.0318l-1.4636 4.1046h2.951l-1.4635-4.1046h0.0079z" fill="var(--fill-0, #777A7E)"/>
<path d="m102.62 23.932v6.627c0 1.9975-0.811 3.8775-3.9371 3.8775-0.7636 0-1.6465-0.1175-2.5771-0.5014l0.1591-1.6215c0.5965 0.3134 1.559 0.6424 2.1714 0.6424 2.1397 0 2.2427-1.5824 2.2427-2.8513h-0.031c-0.366 0.6266-1.2333 1.1671-2.3151 1.1671-2.1953 0-3.0385-1.739-3.0385-3.7051 0-1.7704 0.9227-3.807 3.1578-3.807 0.9864 0 1.7498 0.329 2.2828 1.1671h0.032v-0.9948h1.853zm-1.941 3.5955c0-1.2533-0.493-2.2795-1.6222-2.2795-1.3204 0-1.734 1.1985-1.734 2.3265 0 0.9948 0.5329 2.2247 1.6465 2.2247 1.2167 0 1.7097-1.0419 1.7097-2.2639v-0.0078z" fill="var(--fill-0, #777A7E)"/>
<path d="m110.18 30.857c-0.708 0.3838-1.52 0.5875-2.562 0.5875-2.457 0-3.889-1.3944-3.889-3.807 0-2.1229 1.145-3.8775 3.46-3.8775 2.76 0 3.547 1.8643 3.547 4.4336h-5.154c0.088 1.1829 0.923 1.8487 2.124 1.8487 0.938 0 1.75-0.3447 2.474-0.7442v1.5589zm-2.013-7.9195h-1.201l-1.98-2.0837h1.98l1.201 2.0837zm0.708 3.948c-0.056-0.9244-0.493-1.7234-1.575-1.7234s-1.638 0.7442-1.718 1.7234h3.301-8e-3z" fill="var(--fill-0, #777A7E)"/>
<path d="m111.82 23.932h1.837v0.9948h0.032c0.613-0.8381 1.432-1.1671 2.45-1.1671 1.766 0 2.529 1.222 2.529 2.8748v4.6295h-1.94v-3.9167c0-0.9008-0.016-2.1071-1.257-2.1071-1.4 0-1.71 1.4961-1.71 2.4361v3.5877h-1.941v-7.3398 0.0078z" fill="var(--fill-0, #777A7E)"/>
<path d="m125.07 25.514c-0.35-0.1566-0.724-0.2741-1.32-0.2741-1.201 0-1.965 0.94-1.965 2.3265s0.652 2.397 2.012 2.397c0.549 0 1.154-0.1959 1.488-0.3447l0.087 1.5823c-0.564 0.1724-1.145 0.2428-1.941 0.2428-2.441 0-3.674-1.6371-3.674-3.8774 0-2.2404 1.272-3.807 3.603-3.807 0.779 0 1.344 0.0861 1.885 0.2428l-0.175 1.5118z" fill="var(--fill-0, #777A7E)"/>
<path d="m126.29 20.768h1.941v1.8252h-1.941v-1.8252zm0 3.1647h1.941v7.3398h-1.941v-7.3398z" fill="var(--fill-0, #777A7E)"/>
<path d="m130.19 24.316c0.756-0.3446 1.766-0.5561 2.594-0.5561 2.274 0 3.213 0.9243 3.213 3.0941v0.94c0 0.7442 0.016 1.3004 0.032 1.8409 0.016 0.5561 0.048 1.0653 0.087 1.6371h-1.71c-0.071-0.3838-0.071-0.8695-0.087-1.0966h-0.032c-0.446 0.8146-1.416 1.2689-2.299 1.2689-1.32 0-2.601-0.7833-2.601-2.1776 0-1.0967 0.533-1.739 1.273-2.0915 0.739-0.3525 1.694-0.4308 2.505-0.4308h1.074c0-1.1829-0.533-1.5824-1.678-1.5824-0.827 0-1.647 0.3134-2.299 0.799l-0.056-1.6371-0.016-0.0079zm2.267 5.734c0.597 0 1.058-0.2585 1.361-0.658 0.318-0.4151 0.405-0.94 0.405-1.5118h-0.843c-0.867 0-2.156 0.141-2.156 1.269 0 0.6267 0.533 0.9008 1.233 0.9008z" fill="var(--fill-0, #777A7E)"/>
<path d="m90.709 44.699h-0.0318c-0.5807 0.7128-1.3761 0.9948-2.2829 0.9948-2.2828 0-3.126-1.8565-3.126-3.8618s0.8432-3.8227 3.126-3.8227c0.9704 0 1.6465 0.329 2.2272 1.0262h0.0318v-4.2065h1.9408v10.685h-1.8851v-0.8303 0.0157zm-1.7818-0.4857c1.2886 0 1.7102-1.3395 1.7102-2.3813s-0.4932-2.3343-1.734-2.3343c-1.2409 0-1.6068 1.3551-1.6068 2.3343s0.358 2.3813 1.6386 2.3813h-8e-3z" fill="var(--fill-0, #777A7E)"/>
<path d="m100.15 45.105c-0.7078 0.3838-1.5191 0.5875-2.5611 0.5875-2.4578 0-3.8896-1.3943-3.8896-3.807 0-2.1228 1.1454-3.8775 3.4601-3.8775 2.7601 0 3.5476 1.8643 3.5476 4.4337h-5.1544c0.0875 1.1828 0.9227 1.8486 2.1238 1.8486 0.9386 0 1.7499-0.3446 2.4736-0.7441v1.5588zm-1.3043-3.9715c-0.0557-0.9243-0.4932-1.7233-1.575-1.7233-1.0817 0-1.6385 0.7441-1.7181 1.7233h3.301-0.0079z" fill="var(--fill-0, #777A7E)"/>
<path d="m111 37.398c-0.636-0.2741-1.344-0.4308-2.052-0.4308s-1.591 0.2977-1.591 1.3787c0 1.7233 4.431 0.9948 4.431 4.3318 0 2.1777-1.75 3.008-3.795 3.008-1.097 0-1.59-0.141-2.593-0.3838l0.191-1.7939c0.692 0.3682 1.488 0.611 2.283 0.611 0.796 0 1.798-0.3838 1.798-1.2846 0-1.8957-4.431-1.1124-4.431-4.4024 0-2.2246 1.75-3.0393 3.532-3.0393 0.867 0 1.678 0.1175 2.418 0.3525l-0.191 1.6372v0.0156z" fill="var(--fill-0, #777A7E)"/>
<path d="m113.34 38.564c0.755-0.3447 1.765-0.5562 2.593-0.5562 2.275 0 3.213 0.9243 3.213 3.0942v0.94c0 0.7441 0.016 1.3003 0.032 1.8408 0.016 0.5562 0.04 1.0653 0.087 1.6371h-1.71c-0.071-0.3838-0.071-0.8694-0.087-1.0966h-0.032c-0.445 0.8147-1.416 1.269-2.299 1.269-1.32 0-2.601-0.7833-2.601-2.1777 0-1.0966 0.533-1.739 1.273-2.0915s1.694-0.4308 2.505-0.4308h1.074c0-1.1828-0.533-1.5823-1.678-1.5823-0.827 0-1.647 0.3133-2.299 0.799l-0.055-1.6372-0.016-0.0078zm2.275 5.734c0.588 0 1.057-0.2585 1.36-0.658 0.318-0.4152 0.405-0.94 0.405-1.5119h-0.835c-0.867 0-2.155 0.141-2.155 1.269 0 0.6267 0.533 0.9009 1.232 0.9009h-7e-3z" fill="var(--fill-0, #777A7E)"/>
<path d="m120.68 34.838h1.941v10.685h-1.941v-10.685z" fill="var(--fill-0, #777A7E)"/>
<path d="m131.08 45.524h-1.837v-0.9949h-0.032c-0.597 0.7129-1.432 1.1672-2.442 1.1672-1.766 0-2.53-1.222-2.53-2.8748v-4.6295h1.941v3.9167c0 0.9008 0.016 2.1071 1.257 2.1071 1.4 0 1.71-1.4961 1.71-2.4361v-3.5877h1.941v7.3398l-8e-3 -0.0078z" fill="var(--fill-0, #777A7E)"/>
<path d="m133.3 39.584h-1.432v-1.3943h1.432v-1.4648l1.94-0.611v2.0836h1.718v1.3943h-1.718v3.4232c0 0.6267 0.175 1.2142 0.915 1.2142 0.35 0 0.684-0.0705 0.883-0.1959l0.056 1.5119c-0.406 0.1175-0.851 0.1723-1.432 0.1723-1.519 0-2.354-0.9243-2.354-2.3813v-3.7365l-8e-3 -0.0157z" fill="var(--fill-0, #777A7E)"/>
<path d="m141.46 35.572h2.562c2.203 0 4.207 0.6267 4.207 3.008 0 2.3814-1.718 3.1647-3.889 3.1647h-0.851v3.7756h-2.029v-9.9483zm2.021 4.606h0.708c1.01 0 1.925-0.329 1.925-1.4805s-0.883-1.551-1.925-1.551h-0.708v3.0394-0.0079z" fill="var(--fill-0, #777A7E)"/>
<path d="m155.93 45.52h-1.837v-0.9949h-0.032c-0.596 0.7129-1.432 1.1672-2.442 1.1672-1.766 0-2.529-1.222-2.529-2.8748v-4.6295h1.941v3.9166c0 0.9009 0.016 2.1072 1.256 2.1072 1.4 0 1.71-1.4962 1.71-2.4362v-3.5876h1.941v7.3398l-8e-3 -0.0078zm-3.285-10.418h1.981l-1.981 2.0836h-1.201l1.201-2.0836z" fill="var(--fill-0, #777A7E)"/>
<path d="m157.5 34.838h1.941v4.2926h0.032c0.533-0.6972 1.217-1.1123 2.227-1.1123 2.283 0 3.126 1.7938 3.126 3.8226 0 2.0289-0.835 3.8619-3.126 3.8619-0.827 0-1.718-0.282-2.283-1.0654h-0.032v0.9009h-1.885v-10.7zm3.659 9.3764c1.273 0 1.639-1.3708 1.639-2.3813s-0.35-2.3343-1.607-2.3343-1.734 1.3081-1.734 2.3343 0.421 2.3813 1.71 2.3813h-8e-3z" fill="var(--fill-0, #777A7E)"/>
<path d="m165.97 34.838h1.941v10.685h-1.941v-10.685z" fill="var(--fill-0, #777A7E)"/>
<path d="m169.57 35.026h1.94v1.8252h-1.94v-1.8252zm0 3.1569h1.94v7.3398h-1.94v-7.3398z" fill="var(--fill-0, #777A7E)"/>
<path d="m177.96 39.763c-0.35-0.1567-0.724-0.2742-1.321-0.2742-1.201 0-1.964 0.94-1.964 2.3265s0.652 2.397 2.012 2.397c0.549 0 1.154-0.1958 1.488-0.3447l0.087 1.5824c-0.565 0.1723-1.145 0.2428-1.941 0.2428-2.442 0-3.675-1.6372-3.675-3.8775s1.273-3.807 3.604-3.807c0.779 0 1.344 0.0862 1.885 0.2428l-0.175 1.5119z" fill="var(--fill-0, #777A7E)"/>
<path d="m179.47 38.564c0.756-0.3447 1.766-0.5562 2.593-0.5562 2.275 0 3.214 0.9243 3.214 3.0942v0.94c0 0.7441 0.016 1.3003 0.031 1.8408 0.016 0.5562 0.04 1.0653 0.088 1.6371h-1.71c-0.072-0.3838-0.072-0.8694-0.088-1.0966h-0.032c-0.445 0.8147-1.415 1.269-2.298 1.269-1.321 0-2.601-0.7833-2.601-2.1777 0-1.0966 0.533-1.739 1.272-2.0915 0.74-0.3525 1.695-0.4308 2.506-0.4308h1.074c0-1.1828-0.533-1.5823-1.679-1.5823-0.827 0-1.646 0.3133-2.298 0.799l-0.056-1.6372-0.016-0.0078zm2.267 5.734c0.597 0 1.058-0.2585 1.36-0.658 0.318-0.4152 0.406-0.94 0.406-1.5119h-0.835c-0.867 0-2.156 0.141-2.156 1.269 0 0.6267 0.533 0.9009 1.233 0.9009h-8e-3z" fill="var(--fill-0, #777A7E)"/>
<path d="m43.176 33.347c0-7.5435 6.2043-13.654 13.864-13.654 7.6599 0 13.864 6.11 13.864 13.654s-6.2043 13.654-13.864 13.654c-7.6598 0-13.864-6.11-13.864-13.654z" fill="#AAACAE"/>
<path d="m54.398 27.588h3.5237c1.3442 0 2.5851 0.329 2.5851 1.9348 0 1.4178-0.9784 2.0053-2.2988 2.0053h-3.81v-3.9401zm-3.7624 13.967h8.2883c3.0942 0 6.0372-1.4648 6.0372-4.8802 0-2.0993-1.0499-3.6816-3.1339-4.2691 1.4874-0.705 2.3226-1.8644 2.3226-3.5172 0-3.1411-2.2033-4.1751-5.4645-4.1751h-8.0497v16.842zm3.7624-7.5043h4.0964c1.6067 0 2.7044 0.6815 2.7044 2.4048s-1.2965 2.2168-2.776 2.2168h-4.0248v-4.6216z" clip-rule="evenodd" fill="#fff" fill-rule="evenodd"/>
<path d="m38.365 21.113v9.165h9.2745v5.9847h-9.2745v9.1258h-6.1804v-9.1258h-9.2667v-5.9847h9.2667v-9.165h6.1804z" fill="#328CA8"/>
<path d="m21.031 21.095h8.0576l-21.031 24.244h-8.0576l21.031-24.244z" clip-rule="evenodd" fill="var(--fill-0, #777A7E)" fill-rule="evenodd"/>
<path d="m90.502 7.7002c-0.5409 0.12533-1.1216 0.22717-1.6784 0.22717-2.3862 0-4.0487-1.175-4.0487-3.6347s1.5432-3.8853 4.0487-3.8853c0.4852 0 1.1295 0.094 1.6704 0.29767l-0.1034 1.2298c-0.5568-0.31333-1.0658-0.38383-1.5988-0.38383-1.5192 0-2.4737 1.1437-2.4737 2.632s0.9306 2.5928 2.5055 2.5928c0.5807 0 1.2648-0.12533 1.6147-0.29767l0.0637 1.2142v0.00783z" fill="var(--fill-0, #777A7E)"/>
<path d="m93.956 2.3196c1.6147 0 2.8555 1.0732 2.8555 2.8435 0 1.5432-1.0499 2.773-2.8555 2.773s-2.8397-1.2298-2.8397-2.773c0-1.7703 1.2329-2.8435 2.8397-2.8435zm0 4.5276c1.0897 0 1.3761-0.95566 1.3761-1.8565 0-0.8225-0.4455-1.5902-1.3761-1.5902-0.9307 0-1.3602 0.79117-1.3602 1.5902 0 0.88516 0.2864 1.8565 1.3602 1.8565z" fill="var(--fill-0, #777A7E)"/>
<path d="m97.922 2.4449h1.3443v0.7285h0.0239c0.4454-0.611 1.0504-0.85383 1.7894-0.85383 1.289 0 1.846 0.89299 1.846 2.0993v3.384h-1.416v-2.8592c0-0.658-8e-3 -1.5432-0.923-1.5432-1.026 0-1.2487 1.0967-1.2487 1.7782v2.6242h-1.4159v-5.358z" fill="var(--fill-0, #777A7E)"/>
<path d="m107.61 3.5729c-0.43-0.14884-0.748-0.22717-1.265-0.22717-0.382 0-0.835 0.13317-0.835 0.59533 0 0.85383 2.466 0.31333 2.466 2.2482 0 1.2533-1.13 1.7468-2.283 1.7468-0.541 0-1.09-0.094-1.607-0.22716l0.087-1.1437c0.446 0.21934 0.907 0.3525 1.392 0.3525 0.358 0 0.931-0.13317 0.931-0.658 0-1.0497-2.466-0.329-2.466-2.2717 0-1.1593 1.026-1.6685 2.132-1.6685 0.668 0 1.098 0.10183 1.543 0.19583l-0.095 1.0497v0.00784z" fill="var(--fill-0, #777A7E)"/>
<path d="m111.56 2.3196c1.614 0 2.855 1.0732 2.855 2.8435 0 1.5432-1.05 2.773-2.855 2.773-1.806 0-2.84-1.2298-2.84-2.773 0-1.7703 1.233-2.8435 2.84-2.8435zm0 4.5276c1.089 0 1.376-0.95566 1.376-1.8565 0-0.8225-0.446-1.5902-1.376-1.5902-0.931 0-1.36 0.79117-1.36 1.5902 0 0.88516 0.286 1.8565 1.36 1.8565z" fill="var(--fill-0, #777A7E)"/>
<path d="m116.81 2.4438v1.2142h0.024c0.064-0.50133 0.644-1.3473 1.487-1.3473 0.136 0 0.287 0 0.43 0.03917v1.4022c-0.127-0.0705-0.382-0.1175-0.636-0.1175-1.154 0-1.154 1.4178-1.154 2.1855v1.9662h-1.416v-5.3423h1.265z" fill="var(--fill-0, #777A7E)"/>
<path d="m122.98 3.6042c-0.254-0.1175-0.524-0.19583-0.962-0.19583-0.875 0-1.44 0.68933-1.44 1.6998 0 1.0105 0.478 1.7468 1.472 1.7468 0.398 0 0.843-0.14884 1.09-0.25067l0.063 1.1515c-0.413 0.12533-0.835 0.18016-1.416 0.18016-1.789 0-2.688-1.1985-2.688-2.8357 0-1.551 0.93-2.7808 2.633-2.7808 0.572 0 0.986 0.06266 1.376 0.18016l-0.128 1.1045z" fill="var(--fill-0, #777A7E)"/>
<path d="m124.18 0.13434h1.416v1.3317h-1.416v-1.3317zm0 2.3108h1.416v5.358h-1.416v-5.358z" fill="var(--fill-0, #777A7E)"/>
<path d="m134.11 1.8723c-0.469-0.19583-0.986-0.31333-1.503-0.31333s-1.161 0.21933-1.161 1.0105c0 1.2612 3.237 0.7285 3.237 3.1647 0 1.5902-1.281 2.1933-2.768 2.1933-0.803 0-1.161-0.10183-1.893-0.282l0.135-1.3082c0.509 0.27416 1.09 0.4465 1.67 0.4465 0.581 0 1.313-0.282 1.313-0.94 0-1.3865-3.23-0.81467-3.23-3.2195 0-1.6215 1.281-2.2168 2.578-2.2168 0.636 0 1.225 0.086166 1.765 0.2585l-0.135 1.1985-8e-3 0.00784z" fill="var(--fill-0, #777A7E)"/>
<path d="m136.14 2.7269c0.549-0.25067 1.289-0.40733 1.893-0.40733 1.663 0 2.347 0.67366 2.347 2.256v0.68933c0 0.5405 8e-3 0.94783 0.024 1.3395 8e-3 0.40733 0.031 0.78333 0.063 1.1985h-1.249c-0.055-0.282-0.055-0.6345-0.063-0.799h-0.024c-0.326 0.59533-1.034 0.92433-1.678 0.92433-0.963 0-1.901-0.57183-1.901-1.5902 0-0.799 0.389-1.269 0.93-1.5275s1.233-0.31333 1.83-0.31333h0.779c0-0.86167-0.39-1.1593-1.225-1.1593-0.604 0-1.201 0.22716-1.678 0.57966l-0.04-1.1985-8e-3 0.00784zm1.663 4.183c0.437 0 0.771-0.188 0.994-0.47783 0.231-0.29767 0.294-0.68934 0.294-1.1045h-0.612c-0.637 0-1.575 0.10183-1.575 0.92433 0 0.46217 0.39 0.658 0.899 0.658z" fill="var(--fill-0, #777A7E)"/>
<path d="m141.78 2.4449h1.344v0.7285h0.024c0.445-0.611 1.05-0.85383 1.79-0.85383 1.288 0 1.845 0.89299 1.845 2.0993v3.384h-1.416v-2.8592c0-0.658-8e-3 -1.5432-0.922-1.5432-1.027 0-1.249 1.0967-1.249 1.7782v2.6242h-1.416v-5.358z" fill="var(--fill-0, #777A7E)"/>
<path d="m148.26 0.13434h1.416v1.3317h-1.416v-1.3317zm0 2.3108h1.416v5.358h-1.416v-5.358z" fill="var(--fill-0, #777A7E)"/>
<path d="m151.64 3.4604h-1.05v-1.0183h1.05v-1.0732l1.416-0.4465v1.5197h1.257v1.0183h-1.257v2.4988c0 0.45433 0.127 0.88516 0.668 0.88516 0.255 0 0.493-0.05483 0.645-0.14883l0.039 1.1045c-0.294 0.08616-0.62 0.12533-1.042 0.12533-1.113 0-1.726-0.67367-1.726-1.739v-2.726z" fill="var(--fill-0, #777A7E)"/>
<path d="m155.52 2.7269c0.548-0.25067 1.288-0.40733 1.893-0.40733 1.662 0 2.346 0.67366 2.346 2.256v0.68933c0 0.5405 8e-3 0.94783 0.024 1.3395 8e-3 0.40733 0.032 0.78333 0.064 1.1985h-1.249c-0.056-0.282-0.056-0.6345-0.064-0.799h-0.024c-0.326 0.59533-1.034 0.92433-1.678 0.92433-0.963 0-1.901-0.57183-1.901-1.5902 0-0.799 0.39-1.269 0.931-1.5275 0.54-0.2585 1.232-0.31333 1.829-0.31333h0.78c0-0.86167-0.39-1.1593-1.225-1.1593-0.605 0-1.202 0.22716-1.679 0.57966l-0.04-1.1985-7e-3 0.00784zm1.654 4.183c0.437 0 0.772-0.188 0.994-0.47783 0.231-0.29767 0.295-0.68934 0.295-1.1045h-0.613c-0.636 0-1.575 0.10183-1.575 0.92433 0 0.46217 0.39 0.658 0.899 0.658z" fill="var(--fill-0, #777A7E)"/>
<path d="m162.45 2.4438v1.2142h0.024c0.063-0.50133 0.644-1.3473 1.487-1.3473 0.135 0 0.286 0 0.43 0.03917v1.4022c-0.128-0.0705-0.382-0.1175-0.637-0.1175-1.153 0-1.153 1.4178-1.153 2.1855v1.9662h-1.416v-5.3423h1.265z" fill="var(--fill-0, #777A7E)"/>
<path d="m165.31 0.13434h1.416v1.3317h-1.416v-1.3317zm0 2.3108h1.416v5.358h-1.416v-5.358z" fill="var(--fill-0, #777A7E)"/>
<path d="m174.8 7.1988h-0.024c-0.422 0.517-1.003 0.7285-1.671 0.7285-1.67 0-2.283-1.3552-2.283-2.82s0.613-2.7887 2.283-2.7887c0.708 0 1.201 0.24283 1.631 0.752h0.024v-3.0707h1.416v7.802h-1.376v-0.60316zm-1.305-0.3525c0.939 0 1.249-0.97917 1.249-1.739s-0.358-1.7077-1.273-1.7077-1.169 0.987-1.169 1.7077c0 0.72067 0.262 1.739 1.193 1.739z" fill="var(--fill-0, #777A7E)"/>
<path d="m181.99 7.5052c-0.517 0.282-1.113 0.43083-1.869 0.43083-1.797 0-2.839-1.0183-2.839-2.7808 0-1.551 0.835-2.8357 2.521-2.8357 2.02 0 2.593 1.363 2.593 3.2352h-3.762c0.063 0.86167 0.676 1.3552 1.551 1.3552 0.684 0 1.28-0.25067 1.805-0.5405v1.1358zm-0.946-2.9062c-0.04-0.67367-0.358-1.2612-1.153-1.2612-0.796 0-1.194 0.54049-1.257 1.2612h2.41z" fill="var(--fill-0, #777A7E)"/>
<path d="m186.58 0.54182h2.577c0.954 0 2.378 0.27417 2.378 1.8643 0 0.86167-0.589 1.4648-1.471 1.6215v0.0235c1.002 0.094 1.694 0.75983 1.694 1.6528 0 1.833-1.671 2.0993-2.601 2.0993h-2.577v-7.2615zm1.479 2.9375h0.605c0.62 0 1.392-0.13317 1.392-0.88517 0-0.846-0.748-0.90866-1.424-0.90866h-0.573v1.7938zm0 3.1803h0.7c0.684 0 1.519-0.1645 1.519-1.0105 0-0.94783-0.779-1.0967-1.519-1.0967h-0.7v2.1072z" fill="var(--fill-0, #777A7E)"/>
<path d="m193.15 2.7269c0.549-0.25067 1.288-0.40733 1.893-0.40733 1.662 0 2.346 0.67366 2.346 2.256v0.68933c0 0.5405 8e-3 0.94783 0.024 1.3395 8e-3 0.40733 0.032 0.78333 0.064 1.1985h-1.249c-0.056-0.282-0.056-0.6345-0.064-0.799h-0.024c-0.326 0.59533-1.034 0.92433-1.678 0.92433-0.962 0-1.901-0.57183-1.901-1.5902 0-0.799 0.39-1.269 0.931-1.5275s1.233-0.31333 1.829-0.31333h0.78c0-0.86167-0.39-1.1593-1.225-1.1593-0.605 0-1.201 0.22716-1.679 0.57966l-0.039-1.1985-8e-3 0.00784zm1.662 4.183c0.438 0 0.772-0.188 0.994-0.47783 0.231-0.29767 0.295-0.68934 0.295-1.1045h-0.613c-0.636 0-1.575 0.10183-1.575 0.92433 0 0.46217 0.39 0.658 0.899 0.658z" fill="var(--fill-0, #777A7E)"/>
<path d="m200.06 2.4438v1.2142h0.024c0.063-0.50133 0.644-1.3473 1.487-1.3473 0.136 0 0.287 0 0.43 0.03917v1.4022c-0.127-0.0705-0.382-0.1175-0.637-0.1175-1.153 0-1.153 1.4178-1.153 2.1855v1.9662h-1.416v-5.3423h1.265z" fill="var(--fill-0, #777A7E)"/>
<path d="m206.24 3.6042c-0.254-0.1175-0.525-0.19583-0.962-0.19583-0.875 0-1.44 0.68933-1.44 1.6998 0 1.0105 0.477 1.7468 1.472 1.7468 0.397 0 0.843-0.14884 1.089-0.25067l0.064 1.1515c-0.414 0.12533-0.835 0.18016-1.416 0.18016-1.789 0-2.688-1.1985-2.688-2.8357 0-1.551 0.93-2.7808 2.633-2.7808 0.572 0 0.986 0.06266 1.376 0.18016l-0.128 1.1045z" fill="var(--fill-0, #777A7E)"/>
<path d="m211.77 7.5052c-0.517 0.282-1.113 0.43083-1.869 0.43083-1.798 0-2.84-1.0183-2.84-2.7808 0-1.551 0.836-2.8357 2.522-2.8357 2.02 0 2.593 1.363 2.593 3.2352h-3.762c0.063 0.86167 0.676 1.3552 1.551 1.3552 0.684 0 1.28-0.25067 1.805-0.5405v1.1358zm-0.946-2.9062c-0.04-0.67367-0.358-1.2612-1.154-1.2612-0.795 0-1.193 0.54049-1.256 1.2612h2.41z" fill="var(--fill-0, #777A7E)"/>
<path d="m213.31 0h1.415v7.802h-1.415v-7.802z" fill="var(--fill-0, #777A7E)"/>
<path d="m218.71 2.3196c1.614 0 2.855 1.0732 2.855 2.8435 0 1.5432-1.05 2.773-2.855 2.773-1.806 0-2.84-1.2298-2.84-2.773 0-1.7703 1.233-2.8435 2.84-2.8435zm0 4.5276c1.089 0 1.376-0.95566 1.376-1.8565 0-0.8225-0.446-1.5902-1.376-1.5902-0.931 0-1.361 0.79117-1.361 1.5902 0 0.88516 0.287 1.8565 1.361 1.8565z" fill="var(--fill-0, #777A7E)"/>
<path d="m222.67 2.4449h1.345v0.7285h0.024c0.445-0.611 1.049-0.85383 1.789-0.85383 1.289 0 1.846 0.89299 1.846 2.0993v3.384h-1.416v-2.8592c0-0.658-8e-3 -1.5432-0.923-1.5432-1.026 0-1.249 1.0967-1.249 1.7782v2.6242h-1.416v-5.358z" fill="var(--fill-0, #777A7E)"/>
<path d="m229.37 2.7269c0.549-0.25067 1.288-0.40733 1.893-0.40733 1.662 0 2.346 0.67366 2.346 2.256v0.68933c0 0.5405 8e-3 0.94783 0.024 1.3395 8e-3 0.40733 0.032 0.78333 0.064 1.1985h-1.249c-0.056-0.282-0.056-0.6345-0.064-0.799h-0.023c-0.327 0.59533-1.034 0.92433-1.679 0.92433-0.962 0-1.901-0.57183-1.901-1.5902 0-0.799 0.39-1.269 0.931-1.5275s1.233-0.31333 1.829-0.31333h0.78c0-0.86167-0.39-1.1593-1.225-1.1593-0.605 0-1.201 0.22716-1.678 0.57966l-0.04-1.1985-8e-3 0.00784zm1.654 4.183c0.438 0 0.772-0.188 0.995-0.47783 0.23-0.29767 0.294-0.68934 0.294-1.1045h-0.613c-0.636 0-1.575 0.10183-1.575 0.92433 0 0.46217 0.39 0.658 0.899 0.658z" fill="var(--fill-0, #777A7E)"/>
<path d="m63.12 0.61795h4.5737c1.2647 0 2.5055 0.3995 2.5055 1.7625 0 0.987-0.5329 1.5118-1.5033 1.7547v0.0235c1.0102 0.13316 1.6385 0.9165 1.6385 1.6293 0 1.8095-1.4794 1.9897-2.9907 1.9897h-4.2237v-7.1597zm3.3248 2.7417c0.4853 0 1.0182-0.141 1.0182-0.68933s-0.4614-0.69717-0.9625-0.69717h-0.7636v1.3865h0.7079zm-0.6999 2.9453h0.7318c0.509 0 1.0658-0.188 1.0658-0.74417 0-0.611-0.525-0.7285-1.042-0.7285h-0.7477v1.4648l-0.0079 0.00784z" fill="var(--fill-0, #777A7E)"/>
<path d="m56.489 2.5852c-0.6284-0.21934-1.3681-0.36034-2.1556-0.36034-0.4375 0-1.2011 0.00784-1.2011 0.47 0 0.93217 3.826 0.05484 3.826 2.8122 0 1.9192-1.9249 2.4048-3.5476 2.4048-1.0738 0-1.9567-0.10183-2.9987-0.33683v-1.8565c0.7477 0.3055 1.6704 0.47 2.5056 0.47 0.6602 0 1.2488-0.13317 1.2488-0.4935 0-0.9635-3.826-0.094-3.826-2.8748 0-1.974 2.084-2.3187 3.7385-2.3187 0.7795 0 1.6465 0.094 2.4101 0.24283v1.8408z" fill="var(--fill-0, #777A7E)"/>
<path d="m44.56 7.6218c-0.5249 0.141-1.2965 0.28984-2.0044 0.28984-2.4181 0-4.3589-1.2533-4.3589-3.807 0-2.4048 2.0203-3.6033 4.3589-3.6033 0.7715 0 1.2329 0.094 1.9806 0.22717v1.8878c-0.4614-0.141-0.9307-0.26634-1.4-0.26634-1.1851 0-2.084 0.62667-2.084 1.7938 0 1.2298 0.8352 1.8565 1.9886 1.8565 0.509 0 1.0022-0.10183 1.5113-0.27417v1.8957h0.0079z" fill="var(--fill-0, #777A7E)"/>
</svg>
