<?xml version="1.0" encoding="UTF-8"?>
<svg viewBox="0 0 125 49" xmlns="http://www.w3.org/2000/svg">
<path d="m32.712 23.054c-0.0332 0.0067-0.0425 0.0053-0.0478 0.0093-1.0216 0.6634-2.0446 1.3253-3.0635 1.994-0.0439 0.0281-0.0758 0.107-0.0758 0.1632 0.0014 0.3704 4e-3 0.7408 0.0226 1.1113 0.0851 1.796 0.3826 3.5586 0.8237 5.2998 0.8104 3.2016 2.2119 6.1197 4.1263 8.797 0.8888 1.2424 1.8758 2.3952 2.9679 3.4584 1.2766 1.2424 2.6676 2.3403 4.1502 3.3192 1.0083 0.666 2.0578 1.2625 3.1631 1.756 0.1302 0.0575 0.2232 0.0508 0.3441-0.0281 0.9419-0.6232 1.8891-1.2384 2.835-1.8576 0.0531-0.0348 0.0996-0.0762 0.1661-0.127-8.8146-5.5794-13.996-13.514-15.412-23.896z" fill="#777A7E"/>
<path d="m82.856 18.546c-0.5274-2.5182-1.3909-4.912-2.6317-7.1614-0.8848-1.6061-1.9078-3.1187-3.1007-4.5122-0.9765-1.1407-2.0247-2.2066-3.1991-3.1374-0.8688-0.68739-1.7642-1.34-2.6716-1.9766-0.9844-0.69007-2.0485-1.2477-3.1445-1.7399-0.0558-0.025409-0.1515-0.025409-0.2019 0.0066867-1.023 0.66064-2.0419 1.3293-3.0981 2.0194 8.8292 5.582 14.016 13.518 15.436 23.933 1.0508-0.6861 2.0777-1.3547 3.0994-2.0314 0.0478-0.0321 0.0823-0.1231 0.0823-0.1859-0.0066-0.5109-0.0093-1.0231-0.0412-1.5326-0.081-1.2397-0.2736-2.4647-0.5287-3.6817z" fill="#777A7E"/>
<path d="m51.685 28.669c-0.279 0.8225-0.8955 1.2839-1.7019 1.5179-0.6602 0.1913-1.3391 0.2341-2.0219 0.2341-1.5278 0.0026-3.0555 0.0013-4.582 0-0.0438 0-0.0877-0.0054-0.1568-0.0094v-6.1504c0.0851-4e-3 0.1568-0.012 0.2285-0.012 1.5278 0 3.0556-0.0067 4.582 0 0.6523 4e-3 1.3019 0.0401 1.9356 0.2286 1.0017 0.2996 1.65 0.9281 1.8413 1.982 0.1342 0.7449 0.1196 1.4898-0.1248 2.2092zm-8.4626-12.837c0.0705-0.0054 0.1276-0.0134 0.1847-0.0134 1.6088 0 3.2176 0 4.8264 0.0094 0.5208 4e-3 1.0309 0.1056 1.5105 0.3223 0.6271 0.2835 1.0243 0.7569 1.1691 1.4416 0.1235 0.5844 0.1315 1.1702-0.0186 1.7466-0.2298 0.8799-0.8502 1.3547-1.6991 1.5366-0.4092 0.0882-0.8343 0.135-1.2541 0.1404-1.5119 0.016-3.025 0.0067-4.5368 0.0053-0.0572 0-0.1143-8e-3 -0.1821-0.0133v-5.1755zm13.608 10.935c-0.2551-2.0582-1.3763-3.4276-3.2893-4.1565-0.3295-0.1257-0.6776-0.1992-1.0283-0.3009 0.4264-0.214 0.8556-0.3945 1.2514-0.6339 0.7759-0.468 1.4401-1.0739 1.7975-1.9231 0.6815-1.6195 0.6178-3.2604-0.0664-4.8585-0.554-1.2919-1.6049-2.0662-2.8829-2.5516-1.1664-0.4427-2.3846-0.5925-3.6214-0.5951-3.4714-0.0067-6.9427-0.0027-10.414-0.0027h-0.2351v22.736c0.069 0.0027 0.1209 8e-3 0.1713 8e-3 3.6122 0 7.2244 8e-3 10.837-4e-3 1.4294-4e-3 2.8283-0.2059 4.1488-0.8051 1.3777-0.6258 2.3714-1.6275 2.9214-3.0464 0.4836-1.2451 0.5739-2.545 0.4105-3.8662z" fill="#777A7E"/>
<path d="m63.871 25.623c0.9924-3.132 1.9795-6.244 2.9666-9.356h0.069c0.9871 3.1133 1.9742 6.2253 2.9666 9.3547l-6.0022 0.0013zm12.437 4.4065c-0.8223-2.1691-1.65-4.337-2.471-6.5061-0.7081-1.8723-1.4056-3.7486-2.1123-5.6222-0.7466-1.9766-1.5039-3.9505-2.2438-5.9284-0.0678-0.1819-0.1515-0.2287-0.3322-0.2273-1.5052 0.0067-3.0117 0.0093-4.5168-0.0027-0.202 0-0.2817 0.0749-0.3455 0.2474-0.3361 0.9134-0.6815 1.8241-1.0229 2.7362-0.6802 1.8161-1.3617 3.6322-2.0432 5.4483-0.9366 2.4981-1.8745 4.9963-2.8111 7.4958-0.7174 1.9137-1.4348 3.8274-2.1508 5.7411-0.1316 0.3518-0.2604 0.7048-0.3973 1.0726 0.0665 0.0053 0.1023 0.0107 0.1395 0.0107 1.6314 0 3.2641-0.0027 4.8955 4e-3 0.1475 0 0.186-0.0642 0.2232-0.1846 0.1807-0.5817 0.3693-1.1621 0.5567-1.7425 0.3294-1.0271 0.6602-2.0528 0.991-3.0839h8.3815c0.5128 1.5941 1.0242 3.1668 1.5198 4.7449 0.0664 0.2113 0.1594 0.2674 0.3706 0.2661 1.5942-0.0094 3.1897-0.0054 4.7839-0.0054h0.2498c-0.0266-0.0909-0.0412-0.1551-0.0651-0.2166-0.5327-1.4163-1.0641-2.8325-1.5995-4.2474z" fill="#777A7E"/>
<path d="m10.288 28.885c-0.0479-0.1191-0.0731-0.1712-0.0891-0.2247-0.20188-0.6994-0.40116-1.3989-0.60176-2.0983-0.68949-2.4045-1.3803-4.8091-2.0698-7.2136-0.70676-2.462-1.4135-4.9227-2.1163-7.3861-0.0465-0.1618-0.11691-0.2193-0.29094-0.218-1.3949 0.0081-2.7898 0.0054-4.1834 0.0054h-0.93659c0.02657 0.0896 0.042512 0.1471 0.061111 0.2019 0.36002 1.0672 0.72137 2.1344 1.0827 3.2016 0.73865 2.1852 1.4786 4.3691 2.2186 6.5543 0.7599 2.2467 1.5185 4.4948 2.2784 6.7428 0.6523 1.9325 1.3059 3.8636 1.9542 5.7974 0.05845 0.1765 0.12886 0.2541 0.33345 0.2527 1.565-0.0107 3.13-0.0093 4.6962-0.0013 0.186 0.0013 0.263-0.0548 0.3228-0.234 1.0349-3.1602 2.0764-6.319 3.118-9.4764 1.3976-4.2327 2.7965-8.4653 4.194-12.698 0.0346-0.1043 0.0665-0.2086 0.105-0.3303h-5.1466c-1.6394 5.6877-3.2761 11.377-4.93 17.125z" fill="#777A7E"/>
<path d="m26.121 11.757h-4.849v22.725h4.849v-22.725z" fill="#777A7E"/>
<path d="m104.84 26.051c-1.447 0-2.893 0-4.34-0.0026-0.14 0-0.189 0.0454-0.21 0.1872-0.133 0.9281-0.3614 1.8255-0.8596 2.6319-0.5619 0.9107-1.3617 1.5138-2.3833 1.8134-0.8728 0.2554-1.7669 0.2822-2.6649 0.1792-1.3631-0.1565-2.4724-0.7636-3.296-1.8803-0.7054-0.9562-1.0522-2.0555-1.2515-3.2083-0.2736-1.59-0.2922-3.1882-0.0837-4.7863 0.1555-1.1889 0.4331-2.343 1.0801-3.3714 0.6722-1.0685 1.6008-1.7974 2.8363-2.101 0.9579-0.234 1.9224-0.246 2.8882-0.0722 1.2328 0.222 2.1867 0.876 2.8562 1.9365 0.4424 0.6994 0.6882 1.4791 0.8392 2.2868 0.04 0.2153 0.12 0.2822 0.342 0.2809 1.484-0.0107 2.966-0.0067 4.45-0.0067h0.277c-0.015-0.119-0.027-0.214-0.039-0.3089-0.13-1.0231-0.388-2.0127-0.804-2.9569-0.534-1.2143-1.266-2.2841-2.281-3.1507-0.698-0.5965-1.468-1.0766-2.3072-1.4363-1.1213-0.4801-2.2996-0.7182-3.5152-0.7958-1.7191-0.1096-3.4023 0.0535-5.0284 0.646-1.6832 0.6125-3.0887 1.6275-4.21 3.0277-1.0269 1.2825-1.6792 2.7549-2.079 4.345-0.3548 1.4109-0.477 2.8459-0.4438 4.2982 0.0346 1.5353 0.2684 3.0331 0.7705 4.4854 0.4012 1.1608 0.9619 2.2374 1.7271 3.2003 1.0123 1.2731 2.2677 2.2306 3.7623 2.8605 1.2368 0.5216 2.5334 0.7663 3.8712 0.8158 1.921 0.0709 3.7769-0.1792 5.5255-1.0405 1.324-0.6526 2.423-1.5686 3.272-2.7803 0.785-1.122 1.292-2.3684 1.567-3.7084 0.093-0.4494 0.152-0.9054 0.229-1.3681l3e-3 -0.0201h-0.505 5e-3z" fill="#777A7E"/>
<path d="m124.93 26.915c-0.102-0.8385-0.382-1.6209-0.897-2.3003-0.896-1.1862-2.083-1.9819-3.468-2.454-1.597-0.5456-3.215-1.0297-4.824-1.5419-0.915-0.2915-1.855-0.5176-2.695-1.0084-0.734-0.4279-1.174-1.0351-1.203-1.9217-0.033-1.0057 0.449-1.7506 1.395-2.0929 1.076-0.3905 2.179-0.4039 3.286-0.2073 1.289 0.2287 2.251 0.8906 2.761 2.0849 0.042 0.0989 0.097 0.2447 0.157 0.4319 2e-3 0.0054 4e-3 0.0121 6e-3 0.0174 6e-3 0.0201 0.011 0.0428 0.018 0.0629 0.051 0.1885 0.092 0.3798 0.138 0.5683 0.076 0.3972 0.126 0.8693 0.095 1.3855h4.866s0.084-1.1661-0.065-2.006c-0.237-1.9779-1.18-3.5439-2.744-4.7435-1.058-0.8118-2.261-1.3159-3.549-1.6115-1.613-0.3704-3.243-0.4105-4.883-0.1979-1.264 0.1645-2.48 0.4841-3.588 1.1421-0.964 0.5724-1.731 1.3413-2.25 2.347-0.405 0.7863-0.593 1.6329-0.649 2.5102-0.065 1.0311 0.034 2.0434 0.507 2.9782 0.597 1.1822 1.551 2.0127 2.699 2.6239 1.216 0.6472 2.519 1.0752 3.83 1.475 1.261 0.3852 2.524 0.761 3.78 1.1608 0.559 0.1779 1.073 0.4614 1.524 0.8479 0.526 0.4507 0.771 1.0365 0.799 1.7252 0.023 0.551-0.082 1.0672-0.396 1.5259-0.429 0.6272-1.07 0.9361-1.777 1.0832-1.396 0.2889-2.79 0.2394-4.142-0.2367-1.439-0.5055-2.315-1.5165-2.567-3.0451-0.039-0.238-0.06-0.4801-0.088-0.7128h-2e-3c-0.031-0.4052-0.02-0.7569-0.02-0.7569h-4.978c-8e-3 0.0909 0.042 0.7756 0.07 1.1528 7e-3 0.0829 0.012 0.1644 0.019 0.246v0.0027c5e-3 0.0642 0.012 0.1284 0.018 0.1926 0.141 1.3534 0.598 2.5864 1.421 3.6723 1.259 1.6623 2.967 2.6279 4.934 3.1762 1.586 0.4426 3.204 0.5643 4.845 0.4587 1.546-0.099 3.027-0.4293 4.39-1.1996 1.26-0.7115 2.2-1.7131 2.765-3.0612 0.507-1.2156 0.619-2.4821 0.462-3.7739z" fill="#777A7E"/>
</svg>
