<svg preserveAspectRatio="none" width="100%" height="100%" overflow="visible" style="display: block;" viewBox="0 0 304 63" fill="none" xmlns="http://www.w3.org/2000/svg">
<g id="VIBACS Logo">
<path d="M300.444 44.2278H301.622V38.036H304V37.0421H298.056V38.036H300.444V44.2278ZM297.303 41.4904V37.0421H296.125V41.4904C296.125 42.6837 295.483 43.4128 294.389 43.4128C293.295 43.4128 292.653 42.6941 292.653 41.4904V37.0421H291.475V41.4904C291.475 43.2752 292.589 44.3637 294.389 44.3637C296.188 44.3637 297.303 43.2752 297.303 41.4904ZM286.282 44.2278H290.922V43.2666H287.46V37.0439H286.282V44.2278ZM281.867 38.8803L282.077 38.1821L282.288 38.8803L283.351 41.6796H280.805L281.869 38.8803H281.867ZM285.549 44.2278L282.793 37.0439H281.415L278.659 44.2278H279.836L280.446 42.6115H283.707L284.317 44.2278H285.549ZM274.074 38.8184C274.074 38.2475 274.548 37.8778 275.368 37.8778C276.188 37.8778 276.767 38.2681 276.967 39.1571H278.219C277.967 37.5821 276.81 36.9063 275.399 36.9063C273.769 36.9063 272.863 37.8365 272.863 38.9146C272.863 41.7999 277.198 40.2885 277.198 42.3175C277.198 42.9623 276.683 43.3956 275.704 43.3956C274.724 43.3956 274.147 42.952 273.947 42.1387H272.716C273.011 43.6398 274.105 44.3688 275.693 44.3688C277.282 44.3688 278.407 43.5761 278.407 42.161C278.407 39.2242 274.072 40.7132 274.072 38.8218M266.647 38.8803L266.857 38.1821L267.068 38.8803L268.131 41.6796H265.585L266.649 38.8803H266.647ZM270.328 44.2278L267.571 37.0439H266.193L263.437 44.2278H264.615L265.224 42.6115H268.486L269.095 44.2278H270.328ZM258.285 44.2278H262.925V43.2666H259.463V37.0439H258.285V44.2278ZM250.3 44.2278H255.235V43.277H251.478V40.9849H254.834V40.0443H251.478V37.9947H255.235V37.0439H250.3V44.2278ZM246.507 37.993C247.359 37.993 247.854 38.4573 247.854 39.176C247.854 39.8947 247.359 40.3693 246.486 40.3693H245.034V37.9913H246.507V37.993ZM243.855 44.2278H245.033V41.3219H246.431C247.221 41.3219 247.536 41.4801 247.726 42.3037L248.157 44.2261H249.398L248.862 42.0699C248.705 41.4251 248.474 41.0348 248.053 40.8129C248.695 40.4966 249.063 39.9257 249.063 39.1124C249.063 37.8451 248.085 37.0421 246.537 37.0421H243.855V44.2278ZM240.203 41.0158C241.119 41.0158 241.655 41.4595 241.655 42.1455C241.655 42.8316 241.15 43.2873 240.319 43.2873H238.541V41.0158H240.203ZM239.962 37.9827C240.771 37.9827 241.256 38.3954 241.256 39.0608C241.256 39.6729 240.782 40.0959 239.941 40.0959H238.542V37.9827H239.963H239.962ZM237.363 44.2278H240.35C241.929 44.2278 242.865 43.4781 242.865 42.1782C242.865 41.3322 242.391 40.7098 241.507 40.445C242.127 40.1802 242.464 39.6626 242.464 38.9972C242.464 37.7918 241.507 37.0421 239.992 37.0421H237.363V44.2278ZM232.874 43.3715C231.475 43.3715 230.633 42.3364 230.633 40.6462C230.633 38.9559 231.475 37.8984 232.874 37.8984C234.272 37.8984 235.104 38.9439 235.104 40.6462C235.104 42.3484 234.274 43.3715 232.874 43.3715ZM232.874 44.3654C234.988 44.3654 236.303 42.9503 236.303 40.6462C236.303 38.3421 234.988 36.9063 232.874 36.9063C230.759 36.9063 229.434 38.3438 229.434 40.6462C229.434 42.9485 230.739 44.3654 232.874 44.3654ZM224.452 38.8184C224.452 38.2475 224.926 37.8778 225.747 37.8778C226.567 37.8778 227.145 38.2681 227.346 39.1571H228.597C228.344 37.5821 227.188 36.9063 225.777 36.9063C224.146 36.9063 223.242 37.8365 223.242 38.9146C223.242 41.7999 227.577 40.2885 227.577 42.3175C227.577 42.9623 227.061 43.3956 226.084 43.3956C225.106 43.3956 224.528 42.952 224.327 42.1387H223.096C223.391 43.6398 224.485 44.3688 226.074 44.3688C227.662 44.3688 228.787 43.5761 228.787 42.161C228.787 39.2242 224.452 40.7132 224.452 38.8218M215.51 44.2278H220.444V43.277H216.688V40.9849H220.044V40.0443H216.688V37.9947H220.444V37.0439H215.51V44.2278ZM211.163 44.2278H212.341V38.036H214.719V37.0421H208.775V38.036H211.163V44.2278ZM208.387 39.176C208.049 37.6869 206.83 36.9046 205.409 36.9046C203.348 36.9046 202.095 38.3421 202.095 40.6444C202.095 42.9468 203.336 44.3637 205.377 44.3637C206.786 44.3637 207.986 43.5607 208.375 42.1335H207.133C206.859 42.9468 206.197 43.3698 205.377 43.3698C204.062 43.3698 203.293 42.345 203.293 40.6444C203.293 38.9439 204.072 37.8967 205.377 37.8967C206.229 37.8967 206.912 38.3507 207.154 39.1743H208.385L208.387 39.176ZM198.289 38.8803L198.5 38.1821L198.71 38.8803L199.773 41.6796H197.228L198.291 38.8803H198.289ZM201.972 44.2278L199.215 37.0439H197.837L195.081 44.2278H196.259L196.868 42.6115H200.129L200.739 44.2278H201.972ZM192.674 37.993C193.62 37.993 194.178 38.5312 194.178 39.3669C194.178 40.2025 193.631 40.7304 192.643 40.7304H191.318V37.9947H192.675L192.674 37.993ZM190.138 44.2278H191.316V41.6813H192.704C194.334 41.6813 195.387 40.825 195.387 39.3566C195.387 37.8881 194.356 37.0421 192.684 37.0421H190.138V44.2278ZM181.134 44.2278H182.312L182.282 38.4383L182.787 39.9395L184.533 44.2296H185.375L187.111 39.9498L187.626 38.4074L187.596 44.2296H188.774V37.0456H187.228L185.23 42.0217L184.988 42.7835L184.747 42.0217L182.727 37.0456H181.138V44.2296L181.134 44.2278ZM178.618 44.2278H179.796V37.0421H178.618V44.2278ZM176.079 38.2784H176.604C176.604 38.796 176.478 39.176 176.257 39.6729H176.889C177.214 39.1124 177.383 38.6378 177.383 37.8451V37.0421H176.079V38.2784ZM172.348 44.2278H176.988V43.2666H173.526V37.0439H172.348V44.2278ZM167.793 44.2278H168.97V37.0421H167.793V44.2278Z" fill="var(--fill-0, #808080)"/>
<path d="M265.676 28.2401C265.339 26.7511 264.12 25.9687 262.699 25.9687C260.638 25.9687 259.384 27.4062 259.384 29.7086C259.384 32.0109 260.626 33.4278 262.666 33.4278C264.075 33.4278 265.276 32.6248 265.664 31.1976H264.423C264.149 32.0109 263.487 32.4339 262.666 32.4339C261.352 32.4339 260.583 31.4091 260.583 29.7086C260.583 28.008 261.362 26.9608 262.666 26.9608C263.519 26.9608 264.202 27.4148 264.445 28.2401H265.676ZM257.15 33.2902H258.328V26.1045H257.15V33.2902ZM252.803 33.2902H253.981V27.0984H256.359V26.1045H250.415V27.0984H252.803V33.2902ZM247.474 27.9444L247.684 27.2463L247.895 27.9444L248.958 30.7437H246.412L247.476 27.9444H247.474ZM251.156 33.2902L248.4 26.1045H247.022L244.266 33.2902H245.443L246.053 31.6739H249.314L249.924 33.2902H251.156ZM248.359 25.4185L247.433 24.1392H246.097L247.308 25.4185H248.361H248.359ZM235.894 33.2902H237.072L237.041 27.5008L237.546 29.0019L239.292 33.292H240.134L241.87 29.0122L242.386 27.4698L242.353 33.292H243.531V26.1063H241.985L239.985 31.0824L239.744 31.8442L239.503 31.0824L237.482 26.1063H235.894V33.292V33.2902ZM233.377 33.2902H234.555V26.1045H233.377V33.2902ZM227.946 33.2902H232.586V32.329H229.124V26.1063H227.946V33.292V33.2902ZM227.027 28.2401C226.69 26.7511 225.471 25.9687 224.05 25.9687C221.989 25.9687 220.735 27.4062 220.735 29.7086C220.735 32.0109 221.977 33.4278 224.017 33.4278C225.426 33.4278 226.627 32.6248 227.015 31.1976H225.774C225.5 32.0109 224.837 32.4339 224.017 32.4339C222.703 32.4339 221.934 31.4091 221.934 29.7086C221.934 28.008 222.713 26.9608 224.017 26.9608C224.87 26.9608 225.553 27.4148 225.796 28.2401H227.027ZM216.423 33.2902H217.601V26.1045H216.423V33.2902ZM210.04 26.1063H208.799L211.566 33.292H212.934L215.69 26.1063H214.522L212.492 31.4521L212.281 32.1709L212.071 31.4521L210.04 26.1063ZM202.242 33.2902H203.42L203.389 27.7432L203.851 28.6201L206.839 33.2902H208.07V26.1045H206.892L206.923 31.6413L206.471 30.7953L203.473 26.1045H202.242V33.2902ZM197.827 27.9444L198.037 27.2463L198.248 27.9444L199.311 30.7437H196.765L197.828 27.9444H197.827ZM201.509 33.2902L198.753 26.1045H197.375L194.618 33.2902H195.796L196.406 31.6739H199.667L200.277 33.2902H201.509ZM194.44 28.2401C194.103 26.7511 192.884 25.9687 191.463 25.9687C189.402 25.9687 188.149 27.4062 188.149 29.7086C188.149 32.0109 189.39 33.4278 191.431 33.4278C192.84 33.4278 194.04 32.6248 194.428 31.1976H193.187C192.913 32.0109 192.251 32.4339 191.431 32.4339C190.116 32.4339 189.347 31.4091 189.347 29.7086C189.347 28.008 190.126 26.9608 191.431 26.9608C192.283 26.9608 192.966 27.4148 193.209 28.2401H194.44ZM180.826 33.2902H185.466V32.329H182.004V26.1063H180.826V33.292V33.2902ZM174.916 33.2902H179.85V32.3394H176.094V30.0473H179.45V29.1068H176.094V27.0571H179.85V26.1063H174.916V33.292V33.2902ZM170.244 32.329H168.97V27.0675H170.244C171.77 27.0675 172.674 28.039 172.674 29.7086C172.674 31.3782 171.77 32.329 170.244 32.329ZM167.793 33.2902H170.244C172.485 33.2902 173.874 31.9594 173.874 29.7086C173.874 27.4578 172.485 26.1063 170.244 26.1063H167.793V33.292V33.2902Z" fill="var(--fill-0, #808080)"/>
<path d="M289.917 17.0068L290.127 16.3087L290.338 17.0068L291.401 19.8061H288.855L289.919 17.0068H289.917ZM293.599 22.3544L290.843 15.1687H289.465L286.708 22.3544H287.886L288.496 20.7381H291.757L292.367 22.3544H293.599ZM280.151 22.3544H281.329L281.298 16.8073L281.761 17.6843L284.748 22.3544H285.979V15.1687H284.801L284.834 20.7054L284.382 19.8594L281.384 15.1687H280.153V22.3544H280.151ZM275.662 21.4981C274.264 21.4981 273.421 20.4629 273.421 18.7727C273.421 17.0825 274.264 16.025 275.662 16.025C277.061 16.025 277.893 17.0704 277.893 18.7727C277.893 20.475 277.063 21.4981 275.662 21.4981ZM275.662 22.4919C277.777 22.4919 279.092 21.0768 279.092 18.7727C279.092 16.4686 277.777 15.0328 275.662 15.0328C273.548 15.0328 272.223 16.4703 272.223 18.7727C272.223 21.0751 273.528 22.4919 275.662 22.4919ZM267.277 22.3544H271.917V21.3932H268.455V15.1704H267.277V22.3561V22.3544ZM261.367 22.3544H266.301V21.4035H262.545V19.1114H265.9V18.1709H262.545V16.1213H266.301V15.1704H261.367V22.3561V22.3544ZM260.446 17.3043C260.109 15.8135 258.89 15.0328 257.469 15.0328C255.407 15.0328 254.154 16.4703 254.154 18.7727C254.154 21.0751 255.395 22.4919 257.436 22.4919C258.845 22.4919 260.045 21.6889 260.434 20.2618H259.193C258.919 21.0751 258.256 21.4981 257.436 21.4981C256.121 21.4981 255.353 20.4733 255.353 18.7727C255.353 17.0721 256.132 16.025 257.436 16.025C258.289 16.025 258.972 16.4789 259.215 17.3043H260.446ZM250.737 16.1195C251.59 16.1195 252.084 16.5838 252.084 17.3025C252.084 18.0213 251.59 18.4959 250.716 18.4959H249.265V16.1178H250.737V16.1195ZM248.087 22.3544H249.265V19.4485H250.663C251.453 19.4485 251.768 19.6066 251.958 20.4303L252.389 22.3526H253.63L253.094 20.1964C252.937 19.5516 252.706 19.1613 252.285 18.9395C252.927 18.6231 253.295 18.0522 253.295 17.2389C253.295 15.9717 252.316 15.1687 250.77 15.1687H248.087V22.3544ZM243.671 17.0068L243.882 16.3087L244.093 17.0068L245.156 19.8061H242.61L243.673 17.0068H243.671ZM247.354 22.3544L244.598 15.1687H243.22L240.463 22.3544H241.641L242.25 20.7381H245.512L246.121 22.3544H247.354ZM237.532 19.1424C238.448 19.1424 238.984 19.586 238.984 20.2721C238.984 20.9582 238.479 21.4138 237.649 21.4138H235.87V19.1424H237.532ZM237.291 16.1092C238.101 16.1092 238.585 16.5219 238.585 17.1873C238.585 17.7995 238.113 18.2225 237.27 18.2225H235.871V16.1092H237.292H237.291ZM234.692 22.3544H237.679C239.258 22.3544 240.194 21.6047 240.194 20.3048C240.194 19.4588 239.72 18.8363 238.837 18.5715C239.456 18.3067 239.794 17.7892 239.794 17.1237C239.794 15.9184 238.837 15.1687 237.322 15.1687H234.692V22.3544ZM228.212 17.0068L228.422 16.3087L228.633 17.0068L229.696 19.8061H227.15L228.214 17.0068H228.212ZM231.893 22.3544L229.136 15.1687H227.758L225.002 22.3544H226.18L226.789 20.7381H230.051L230.66 22.3544H231.893ZM219.123 17.0068L219.333 16.3087L219.544 17.0068L220.607 19.8061H218.061L219.124 17.0068H219.123ZM222.804 22.3544L220.047 15.1687H218.669L215.913 22.3544H217.091L217.7 20.7381H220.961L221.571 22.3544H222.804ZM214.024 22.3544H215.202V15.1687H214.024V22.3544ZM213.086 17.3043C212.749 15.8135 211.53 15.0328 210.109 15.0328C208.048 15.0328 206.794 16.4703 206.794 18.7727C206.794 21.0751 208.036 22.4919 210.076 22.4919C211.485 22.4919 212.685 21.6889 213.074 20.2618H211.833C211.559 21.0751 210.896 21.4981 210.076 21.4981C208.761 21.4981 207.993 20.4733 207.993 18.7727C207.993 17.0721 208.772 16.025 210.076 16.025C210.929 16.025 211.612 16.4789 211.855 17.3043H213.086ZM201.064 22.3544L201.032 16.8073L201.494 17.6843L204.481 22.3544H205.712V15.1687H204.534L204.565 20.7054L204.113 19.8594L201.116 15.1687H199.885V22.3544H201.064ZM195.471 17.0068L195.682 16.3087L195.892 17.0068L196.955 19.8061H194.41L195.473 17.0068H195.471ZM199.154 22.3544L196.397 15.1687H195.019L192.263 22.3544H193.441L194.05 20.7381H197.311L197.921 22.3544H199.154ZM196.356 14.4826L195.43 13.205H194.095L195.305 14.4826H196.358H196.356ZM187.111 22.3544H191.751V21.3932H188.289V15.1704H187.111V22.3561V22.3544ZM184.593 22.3544H185.771V15.1687H184.593V22.3544ZM183.333 18.6145H180.513V19.5344H182.206C182.133 20.9083 181.343 21.4998 180.366 21.4998C179.041 21.4998 178.251 20.475 178.251 18.7744C178.251 17.0739 179.03 16.0267 180.335 16.0267C181.188 16.0267 181.86 16.4806 182.114 17.306H183.345C183.007 15.8152 181.788 15.0346 180.367 15.0346C178.306 15.0346 177.053 16.472 177.053 18.7744C177.053 21.0768 178.304 22.4936 180.261 22.4936C181.177 22.4936 181.944 22.124 182.386 21.3416L182.48 22.3561H183.333V18.6145ZM174.817 22.3544H175.995V15.1687H174.817V22.3544ZM168.435 15.1687H167.193L169.96 22.3544H171.328L174.084 15.1687H172.917L170.886 20.5145L170.676 21.2333L170.465 20.5145L168.435 15.1687Z" fill="var(--fill-0, #808080)"/>
<path d="M42.1553 29.6415C42.1125 29.6501 42.1005 29.6484 42.0937 29.6535C40.7771 30.5064 39.4589 31.3575 38.1457 32.2173C38.0909 32.2534 38.0481 32.3548 38.0481 32.4253C38.0481 32.9016 38.0533 33.3779 38.0773 33.8542C38.1868 36.1635 38.5703 38.4298 39.1404 40.6685C40.1848 44.7849 41.991 48.5368 44.458 51.9792C45.6033 53.5766 46.8754 55.0588 48.2827 56.4258C49.9279 58.0232 51.7204 59.4349 53.631 60.6935C54.9305 61.5498 56.283 62.3167 57.7074 62.9512C57.8752 63.0252 57.995 63.0166 58.1508 62.9151C59.3646 62.1138 60.5853 61.3229 61.8043 60.5268C61.8728 60.482 61.9327 60.4287 62.0183 60.3634C50.659 53.1915 43.982 42.9898 42.157 29.6398" fill="var(--fill-0, #808080)"/>
<path d="M106.776 23.8452C106.096 20.6074 104.983 17.5295 103.384 14.6374C102.244 12.5723 100.926 10.6275 99.3885 8.83584C98.1301 7.36913 96.7793 5.9987 95.2659 4.80195C94.1462 3.91814 92.9923 3.07903 91.823 2.26056C90.5544 1.37331 89.183 0.656289 87.7706 0.0235218C87.6987 -0.00914825 87.5755 -0.00914825 87.5104 0.0321192C86.1921 0.88326 84.879 1.74128 83.5179 2.62853C94.8961 9.80563 101.58 20.009 103.41 33.4003C104.764 32.5182 106.088 31.6567 107.404 30.7884C107.466 30.7471 107.51 30.6302 107.51 30.5494C107.502 29.8926 107.498 29.234 107.457 28.5789C107.355 26.9832 107.105 25.4082 106.778 23.8434" fill="var(--fill-0, #808080)"/>
<path d="M66.6082 36.8616C66.2487 37.9191 65.456 38.5123 64.4151 38.8132C63.5642 39.0591 62.6894 39.1141 61.8094 39.1141C59.8406 39.1175 57.8717 39.1141 55.9046 39.1141C55.8481 39.1141 55.7916 39.1072 55.7026 39.1021V31.1942C55.8122 31.189 55.9046 31.1787 55.9971 31.1787C57.9659 31.1787 59.9347 31.1701 61.9019 31.1804C62.7425 31.1856 63.5797 31.232 64.3963 31.4745C65.6872 31.8596 66.5226 32.6678 66.7692 34.0227C66.9421 34.9788 66.9232 35.9348 66.6099 36.8599M55.7009 20.3563C55.7916 20.3495 55.8652 20.3391 55.9389 20.3391C58.0121 20.3409 60.0854 20.3374 62.1587 20.3512C62.8298 20.3563 63.4872 20.487 64.1052 20.7656C64.9133 21.1284 65.4252 21.7388 65.6118 22.6192C65.771 23.3706 65.7813 24.1237 65.5879 24.8648C65.2917 25.9962 64.4922 26.6066 63.3982 26.8405C62.8709 26.954 62.323 27.0142 61.782 27.0193C59.8337 27.0399 57.8837 27.0279 55.9354 27.0262C55.8618 27.0262 55.7882 27.0159 55.7009 27.009V20.3563ZM73.2372 34.4165C72.9085 31.7685 71.4635 30.0095 68.9982 29.0724C68.5736 28.9107 68.1251 28.8162 67.6731 28.6855C68.2227 28.4104 68.7757 28.1782 69.2858 27.8704C70.2857 27.2686 71.1417 26.4897 71.6022 25.3978C72.4805 23.3156 72.3983 21.2058 71.5166 19.151C70.8027 17.49 69.4485 16.4944 67.8015 15.8702C66.2984 15.3011 64.7284 15.1085 63.1345 15.1051C58.661 15.0965 54.1875 15.1016 49.7139 15.1016H49.4109V44.3344C49.4999 44.3379 49.5667 44.3448 49.6317 44.3448C54.2867 44.3448 58.9418 44.3551 63.5968 44.3396C65.4389 44.3327 67.2417 44.0748 68.9434 43.3045C70.7188 42.4998 71.9994 41.2119 72.7082 39.3875C73.3314 37.7832 73.4478 36.1119 73.2372 34.4113" fill="var(--fill-0, #808080)"/>
<path d="M82.3127 32.9446C83.5916 28.9176 84.8636 24.9164 86.1356 20.9152C86.1647 20.9152 86.1956 20.9152 86.2247 20.9152C87.4967 24.9181 88.7687 28.9193 90.0476 32.9429H82.311L82.3127 32.9446ZM98.339 38.6103C97.2792 35.8213 96.2126 33.034 95.1546 30.245C94.2421 27.8378 93.3433 25.4254 92.4308 23.0164C91.4686 20.475 90.4945 17.937 89.5392 15.3939C89.4518 15.1601 89.344 15.0999 89.1111 15.1016C87.1714 15.1102 85.23 15.1137 83.2902 15.0982C83.03 15.0965 82.9273 15.1945 82.8451 15.4163C82.412 16.5907 81.9668 17.7616 81.5269 18.9343C80.6503 21.2694 79.772 23.6044 78.8938 25.9395C77.6868 29.1515 76.4781 32.3634 75.2711 35.5754C74.3466 38.036 73.4221 40.4966 72.4993 42.9571C72.3298 43.4094 72.1638 43.8633 71.9874 44.3362C72.073 44.343 72.1193 44.3499 72.1672 44.3499C74.2696 44.3499 76.3736 44.3465 78.476 44.3551C78.6661 44.3551 78.7157 44.2725 78.7636 44.1178C78.9965 43.3698 79.2396 42.6236 79.481 41.8773C79.9056 40.5567 80.3319 39.2379 80.7582 37.9122H91.5593C92.2202 39.9618 92.8793 41.9839 93.5179 44.0129C93.6035 44.2846 93.7234 44.3568 93.9956 44.3551C96.05 44.343 98.1061 44.3482 100.161 44.3482H100.482C100.448 44.2313 100.429 44.1487 100.399 44.0696C99.712 42.2487 99.0272 40.4278 98.3373 38.6086" fill="var(--fill-0, #808080)"/>
<path d="M13.2597 37.1384C13.1997 36.9854 13.1655 36.9183 13.145 36.8496C12.8847 35.9503 12.6279 35.051 12.3694 34.1517C11.4809 31.0601 10.5906 27.9685 9.70207 24.8768C8.79127 21.7113 7.88047 18.5474 6.97481 15.3802C6.91489 15.1738 6.82415 15.0982 6.59987 15.0999C4.80224 15.1102 3.00632 15.1068 1.20869 15.1068H0C0.0342406 15.222 0.054785 15.2959 0.0787534 15.3664C0.542713 16.7386 1.00839 18.1107 1.47406 19.4828C2.42595 22.2925 3.38126 25.1004 4.33315 27.91C5.31243 30.7987 6.29 33.6892 7.26928 36.5796C8.10988 39.0642 8.9522 41.5472 9.78767 44.0335C9.863 44.2605 9.95374 44.3602 10.2174 44.3585C12.2342 44.3448 14.2509 44.3465 16.2694 44.3568C16.5091 44.3568 16.6084 44.2863 16.6854 44.0559C18.0191 39.9928 19.3613 35.9314 20.7036 31.8717C22.5046 26.4295 24.3074 20.9874 26.1085 15.5452C26.153 15.4111 26.1941 15.277 26.2437 15.1205H19.6113C17.5021 22.4352 15.3946 29.7481 13.2631 37.1401" fill="var(--fill-0, #808080)"/>
<path d="M33.6619 15.1171H27.413V44.3362H33.6619V15.1171Z" fill="var(--fill-0, #808080)"/>
<path d="M135.112 33.4949C133.247 33.4949 131.383 33.4949 129.518 33.4914C129.339 33.4914 129.274 33.5499 129.248 33.7321C129.077 34.9255 128.781 36.0792 128.139 37.1161C127.414 38.287 126.384 39.0625 125.067 39.4477C123.942 39.7761 122.79 39.8105 121.635 39.6781C119.878 39.4769 118.448 38.6963 117.387 37.2605C116.478 36.0311 116.031 34.6177 115.774 33.1355C115.422 31.091 115.398 29.0363 115.666 26.9815C115.867 25.4529 116.225 23.969 117.058 22.6467C117.925 21.2728 119.121 20.3357 120.715 19.9454C121.95 19.6445 123.193 19.629 124.437 19.8525C126.024 20.138 127.255 20.9788 128.118 22.3423C128.688 23.2416 129.005 24.2441 129.2 25.2826C129.251 25.5577 129.354 25.6454 129.64 25.642C131.552 25.6282 133.463 25.6351 135.375 25.6351H135.731C135.713 25.4821 135.697 25.36 135.682 25.2379C135.514 23.9225 135.182 22.6501 134.646 21.4362C133.958 19.8749 133.014 18.4993 131.706 17.3851C130.806 16.6182 129.815 16.0009 128.733 15.5384C127.288 14.9211 125.771 14.615 124.203 14.5153C121.987 14.3743 119.818 14.584 117.723 15.3458C115.553 16.1333 113.742 17.4384 112.297 19.2387C110.974 20.8877 110.133 22.7808 109.618 24.8253C109.161 26.6393 109.003 28.4843 109.046 30.3517C109.091 32.3256 109.392 34.2514 110.039 36.1188C110.556 37.6113 111.279 38.9955 112.265 40.2335C113.569 41.8704 115.187 43.1016 117.113 43.9114C118.707 44.582 120.378 44.8967 122.102 44.9603C124.578 45.0515 126.969 44.7299 129.222 43.6226C130.929 42.7835 132.345 41.6056 133.439 40.0478C134.451 38.6051 135.105 37.0026 135.459 35.2797C135.579 34.7019 135.654 34.1156 135.754 33.5206L135.757 33.4949H135.107H135.112Z" fill="var(--fill-0, #808080)"/>
<path d="M161.003 34.6056C160.871 33.5275 160.51 32.5216 159.847 31.6499C158.691 30.1247 157.163 29.1016 155.377 28.4946C153.319 27.7931 151.234 27.1706 149.161 26.5121C147.981 26.1372 146.771 25.8466 145.687 25.2156C144.742 24.6653 144.175 23.8864 144.137 22.7447C144.095 21.4516 144.716 20.4939 145.935 20.0537C147.322 19.5516 148.743 19.5344 150.169 19.7872C151.831 20.0812 153.071 20.9324 153.728 22.4679C153.781 22.5951 153.853 22.7825 153.93 23.0232C153.932 23.0301 153.935 23.0387 153.937 23.0456C153.946 23.0714 153.953 23.1006 153.961 23.1264C154.028 23.3689 154.079 23.6147 154.139 23.8572C154.238 24.3679 154.302 24.9748 154.261 25.6386H160.532C160.532 25.6386 160.64 24.1392 160.448 23.0611C160.143 20.518 158.928 18.5045 156.913 16.9621C155.548 15.9184 153.999 15.2701 152.338 14.8901C150.26 14.4138 148.159 14.3622 146.046 14.6356C144.417 14.8471 142.85 15.2581 141.422 16.1041C140.179 16.84 139.191 17.8287 138.522 19.1217C138 20.1328 137.758 21.2212 137.687 22.3492C137.603 23.6749 137.729 24.9766 138.339 26.1785C139.109 27.6985 140.338 28.7663 141.818 29.5521C143.384 30.3843 145.064 30.9328 146.753 31.4487C148.378 31.9439 150.006 32.4271 151.624 32.9412C152.347 33.1699 153.008 33.5361 153.588 34.0313C154.266 34.6108 154.583 35.3639 154.619 36.2495C154.648 36.9579 154.512 37.6216 154.108 38.2114C153.555 39.0178 152.728 39.415 151.818 39.6042C150.018 39.9756 148.222 39.9119 146.48 39.2998C144.625 38.6498 143.497 37.3499 143.172 35.3846C143.122 35.0785 143.095 34.7673 143.059 34.4681H143.055C143.016 33.9471 143.032 33.4949 143.032 33.4949H136.617C136.606 33.6118 136.671 34.4922 136.707 34.977C136.714 35.0837 136.723 35.1885 136.731 35.2934V35.2969C136.738 35.3794 136.747 35.4619 136.755 35.5445C136.937 37.2846 137.526 38.8699 138.585 40.2662C140.208 42.4035 142.41 43.6449 144.944 44.3499C146.988 44.9191 149.073 45.0755 151.188 44.9397C153.18 44.8125 155.089 44.3877 156.846 43.3973C158.469 42.4826 159.681 41.1947 160.409 39.4614C161.063 37.9002 161.206 36.2718 161.003 34.6108" fill="var(--fill-0, #808080)"/>
</g>
</svg>
