<?xml version="1.0" encoding="UTF-8"?>
<svg display="block" fill="none" overflow="visible" preserveAspectRatio="none" viewBox="0 0 304 63" xmlns="http://www.w3.org/2000/svg">
<g fill="var(--fill-0, #808080)">
<path d="m300.44 44.228h1.178v-6.1918h2.378v-0.9939h-5.944v0.9939h2.388v6.1918zm-3.141-2.7374v-4.4483h-1.178v4.4483c0 1.1933-0.642 1.9224-1.736 1.9224s-1.736-0.7187-1.736-1.9224v-4.4483h-1.178v4.4483c0 1.7848 1.114 2.8733 2.914 2.8733 1.799 0 2.914-1.0885 2.914-2.8733zm-11.021 2.7374h4.64v-0.9612h-3.462v-6.2227h-1.178v7.1839zm-4.415-5.3475 0.21-0.6982 0.211 0.6982 1.063 2.7993h-2.546l1.064-2.7993h-2e-3zm3.682 5.3475-2.756-7.1839h-1.378l-2.756 7.1839h1.177l0.61-1.6163h3.261l0.61 1.6163h1.232zm-11.475-5.4094c0-0.5709 0.474-0.9406 1.294-0.9406s1.399 0.3903 1.599 1.2793h1.252c-0.252-1.575-1.409-2.2508-2.82-2.2508-1.63 0-2.536 0.9302-2.536 2.0083 0 2.8853 4.335 1.3739 4.335 3.4029 0 0.6448-0.515 1.0781-1.494 1.0781-0.98 0-1.557-0.4436-1.757-1.2569h-1.231c0.295 1.5011 1.389 2.2301 2.977 2.2301 1.589 0 2.714-0.7927 2.714-2.2078 0-2.9368-4.335-1.4478-4.335-3.3392m-7.425 0.0585 0.21-0.6982 0.211 0.6982 1.063 2.7993h-2.546l1.064-2.7993h-2e-3zm3.681 5.3475-2.757-7.1839h-1.378l-2.756 7.1839h1.178l0.609-1.6163h3.262l0.609 1.6163h1.233zm-12.043 0h4.64v-0.9612h-3.462v-6.2227h-1.178v7.1839zm-7.985 0h4.935v-0.9508h-3.757v-2.2921h3.356v-0.9406h-3.356v-2.0496h3.757v-0.9508h-4.935v7.1839zm-3.793-6.2348c0.852 0 1.347 0.4643 1.347 1.183s-0.495 1.1933-1.368 1.1933h-1.452v-2.378h1.473v0.0017zm-2.652 6.2348h1.178v-2.9059h1.398c0.79 0 1.105 0.1582 1.295 0.9818l0.431 1.9224h1.241l-0.536-2.1562c-0.157-0.6448-0.388-1.0351-0.809-1.257 0.642-0.3163 1.01-0.8872 1.01-1.7005 0-1.2673-0.978-2.0703-2.526-2.0703h-2.682v7.1857zm-3.652-3.212c0.916 0 1.452 0.4437 1.452 1.1297 0 0.6861-0.505 1.1418-1.336 1.1418h-1.778v-2.2715h1.662zm-0.241-3.0331c0.809 0 1.294 0.4127 1.294 1.0781 0 0.6121-0.474 1.0351-1.315 1.0351h-1.399v-2.1132h1.421-1e-3zm-2.599 6.2451h2.987c1.579 0 2.515-0.7497 2.515-2.0496 0-0.846-0.474-1.4684-1.358-1.7332 0.62-0.2648 0.957-0.7824 0.957-1.4478 0-1.2054-0.957-1.9551-2.472-1.9551h-2.629v7.1857zm-4.489-0.8563c-1.399 0-2.241-1.0351-2.241-2.7253 0-1.6903 0.842-2.7478 2.241-2.7478 1.398 0 2.23 1.0455 2.23 2.7478 0 1.7022-0.83 2.7253-2.23 2.7253zm0 0.9939c2.114 0 3.429-1.4151 3.429-3.7192s-1.315-3.7399-3.429-3.7399c-2.115 0-3.44 1.4375-3.44 3.7399 0 2.3023 1.305 3.7192 3.44 3.7192zm-8.422-5.547c0-0.5709 0.474-0.9406 1.295-0.9406 0.82 0 1.398 0.3903 1.599 1.2793h1.251c-0.253-1.575-1.409-2.2508-2.82-2.2508-1.631 0-2.535 0.9302-2.535 2.0083 0 2.8853 4.335 1.3739 4.335 3.4029 0 0.6448-0.516 1.0781-1.493 1.0781-0.978 0-1.556-0.4436-1.757-1.2569h-1.231c0.295 1.5011 1.389 2.2301 2.978 2.2301 1.588 0 2.713-0.7927 2.713-2.2078 0-2.9368-4.335-1.4478-4.335-3.3392m-8.942 5.406h4.934v-0.9508h-3.756v-2.2921h3.356v-0.9406h-3.356v-2.0496h3.756v-0.9508h-4.934v7.1839zm-4.347 0h1.178v-6.1918h2.378v-0.9939h-5.944v0.9939h2.388v6.1918zm-2.776-5.0518c-0.338-1.4891-1.557-2.2714-2.978-2.2714-2.061 0-3.314 1.4375-3.314 3.7398 0 2.3024 1.241 3.7193 3.282 3.7193 1.409 0 2.609-0.803 2.998-2.2302h-1.242c-0.274 0.8133-0.936 1.2363-1.756 1.2363-1.315 0-2.084-1.0248-2.084-2.7254 0-1.7005 0.779-2.7477 2.084-2.7477 0.852 0 1.535 0.454 1.777 1.2776h1.231l2e-3 0.0017zm-10.098-0.2957 0.211-0.6982 0.21 0.6982 1.063 2.7993h-2.545l1.063-2.7993h-2e-3zm3.683 5.3475-2.757-7.1839h-1.378l-2.756 7.1839h1.178l0.609-1.6163h3.261l0.61 1.6163h1.233zm-9.298-6.2348c0.946 0 1.504 0.5382 1.504 1.3739 0 0.8356-0.547 1.3635-1.535 1.3635h-1.325v-2.7357h1.357l-1e-3 -0.0017zm-2.536 6.2348h1.178v-2.5465h1.388c1.63 0 2.683-0.8563 2.683-2.3247 0-1.4685-1.031-2.3145-2.703-2.3145h-2.546v7.1857zm-9.004 0h1.178l-0.03-5.7895 0.505 1.5012 1.746 4.2901h0.842l1.736-4.2798 0.515-1.5424-0.03 5.8222h1.178v-7.184h-1.546l-1.998 4.9761-0.242 0.7618-0.241-0.7618-2.02-4.9761h-1.589v7.184l-4e-3 -0.0018zm-2.516 0h1.178v-7.1857h-1.178v7.1857zm-2.539-5.9494h0.525c0 0.5176-0.126 0.8976-0.347 1.3945h0.632c0.325-0.5605 0.494-1.0351 0.494-1.8278v-0.803h-1.304v1.2363zm-3.731 5.9494h4.64v-0.9612h-3.462v-6.2227h-1.178v7.1839zm-4.555 0h1.177v-7.1857h-1.177v7.1857z"/>
<path d="m265.68 28.24c-0.337-1.489-1.556-2.2714-2.977-2.2714-2.061 0-3.315 1.4375-3.315 3.7399 0 2.3023 1.242 3.7192 3.282 3.7192 1.409 0 2.61-0.803 2.998-2.2302h-1.241c-0.274 0.8133-0.936 1.2363-1.757 1.2363-1.314 0-2.083-1.0248-2.083-2.7253 0-1.7006 0.779-2.7478 2.083-2.7478 0.853 0 1.536 0.454 1.779 1.2793h1.231zm-8.526 5.0501h1.178v-7.1857h-1.178v7.1857zm-4.347 0h1.178v-6.1918h2.378v-0.9939h-5.944v0.9939h2.388v6.1918zm-5.329-5.3458 0.21-0.6981 0.211 0.6981 1.063 2.7993h-2.546l1.064-2.7993h-2e-3zm3.682 5.3458-2.756-7.1857h-1.378l-2.756 7.1857h1.177l0.61-1.6163h3.261l0.61 1.6163h1.232zm-2.797-7.8717-0.926-1.2793h-1.336l1.211 1.2793h1.053-2e-3zm-12.465 7.8717h1.178l-0.031-5.7894 0.505 1.5011 1.746 4.2901h0.842l1.736-4.2798 0.516-1.5424-0.033 5.8222h1.178v-7.1857h-1.546l-2 4.9761-0.241 0.7618-0.241-0.7618-2.021-4.9761h-1.588v7.1857-0.0018zm-2.517 0h1.178v-7.1857h-1.178v7.1857zm-5.431 0h4.64v-0.9612h-3.462v-6.2227h-1.178v7.1857-0.0018zm-0.919-5.0501c-0.337-1.489-1.556-2.2714-2.977-2.2714-2.061 0-3.315 1.4375-3.315 3.7399 0 2.3023 1.242 3.7192 3.282 3.7192 1.409 0 2.61-0.803 2.998-2.2302h-1.241c-0.274 0.8133-0.937 1.2363-1.757 1.2363-1.314 0-2.083-1.0248-2.083-2.7253 0-1.7006 0.779-2.7478 2.083-2.7478 0.853 0 1.536 0.454 1.779 1.2793h1.231zm-10.604 5.0501h1.178v-7.1857h-1.178v7.1857zm-6.383-7.1839h-1.241l2.767 7.1857h1.368l2.756-7.1857h-1.168l-2.03 5.3458-0.211 0.7188-0.21-0.7188-2.031-5.3458zm-7.798 7.1839h1.178l-0.031-5.547 0.462 0.8769 2.988 4.6701h1.231v-7.1857h-1.178l0.031 5.5368-0.452-0.846-2.998-4.6908h-1.231v7.1857zm-4.415-5.3458 0.21-0.6981 0.211 0.6981 1.063 2.7993h-2.546l1.063-2.7993h-1e-3zm3.682 5.3458-2.756-7.1857h-1.378l-2.757 7.1857h1.178l0.61-1.6163h3.261l0.61 1.6163h1.232zm-7.069-5.0501c-0.337-1.489-1.556-2.2714-2.977-2.2714-2.061 0-3.314 1.4375-3.314 3.7399 0 2.3023 1.241 3.7192 3.282 3.7192 1.409 0 2.609-0.803 2.997-2.2302h-1.241c-0.274 0.8133-0.936 1.2363-1.756 1.2363-1.315 0-2.084-1.0248-2.084-2.7253 0-1.7006 0.779-2.7478 2.084-2.7478 0.852 0 1.535 0.454 1.778 1.2793h1.231zm-13.614 5.0501h4.64v-0.9612h-3.462v-6.2227h-1.178v7.1857-0.0018zm-5.91 0h4.934v-0.9508h-3.756v-2.2921h3.356v-0.9405h-3.356v-2.0497h3.756v-0.9508h-4.934v7.1857-0.0018zm-4.672-0.9612h-1.274v-5.2615h1.274c1.526 0 2.43 0.9715 2.43 2.6411s-0.904 2.6204-2.43 2.6204zm-2.451 0.9612h2.451c2.241 0 3.63-1.3308 3.63-3.5816s-1.389-3.6023-3.63-3.6023h-2.451v7.1857-0.0018z"/>
<path d="m289.92 17.007 0.21-0.6981 0.211 0.6981 1.063 2.7993h-2.546l1.064-2.7993h-2e-3zm3.682 5.3476-2.756-7.1857h-1.378l-2.757 7.1857h1.178l0.61-1.6163h3.261l0.61 1.6163h1.232zm-13.448 0h1.178l-0.031-5.5471 0.463 0.877 2.987 4.6701h1.231v-7.1857h-1.178l0.033 5.5367-0.452-0.846-2.998-4.6907h-1.231v7.1857h-2e-3zm-4.489-0.8563c-1.398 0-2.241-1.0352-2.241-2.7254s0.843-2.7477 2.241-2.7477c1.399 0 2.231 1.0454 2.231 2.7477s-0.83 2.7254-2.231 2.7254zm0 0.9938c2.115 0 3.43-1.4151 3.43-3.7192s-1.315-3.7399-3.43-3.7399c-2.114 0-3.439 1.4375-3.439 3.7399s1.305 3.7192 3.439 3.7192zm-8.385-0.1375h4.64v-0.9612h-3.462v-6.2228h-1.178v7.1857-0.0017zm-5.91 0h4.934v-0.9509h-3.756v-2.2921h3.355v-0.9405h-3.355v-2.0496h3.756v-0.9509h-4.934v7.1857-0.0017zm-0.921-5.0501c-0.337-1.4908-1.556-2.2715-2.977-2.2715-2.062 0-3.315 1.4375-3.315 3.7399s1.241 3.7192 3.282 3.7192c1.409 0 2.609-0.803 2.998-2.2301h-1.241c-0.274 0.8133-0.937 1.2363-1.757 1.2363-1.315 0-2.083-1.0248-2.083-2.7254s0.779-2.7477 2.083-2.7477c0.853 0 1.536 0.4539 1.779 1.2793h1.231zm-9.709-1.1848c0.853 0 1.347 0.4643 1.347 1.183 0 0.7188-0.494 1.1934-1.368 1.1934h-1.451v-2.3781h1.472v0.0017zm-2.65 6.2349h1.178v-2.9059h1.398c0.79 0 1.105 0.1581 1.295 0.9818l0.431 1.9223h1.241l-0.536-2.1562c-0.157-0.6448-0.388-1.0351-0.809-1.2569 0.642-0.3164 1.01-0.8873 1.01-1.7006 0-1.2672-0.979-2.0702-2.525-2.0702h-2.683v7.1857zm-4.416-5.3476 0.211-0.6981 0.211 0.6981 1.063 2.7993h-2.546l1.063-2.7993h-2e-3zm3.683 5.3476-2.756-7.1857h-1.378l-2.757 7.1857h1.178l0.609-1.6163h3.262l0.609 1.6163h1.233zm-9.822-3.212c0.916 0 1.452 0.4436 1.452 1.1297s-0.505 1.1417-1.335 1.1417h-1.779v-2.2714h1.662zm-0.241-3.0332c0.81 0 1.294 0.4127 1.294 1.0781 0 0.6122-0.472 1.0352-1.315 1.0352h-1.399v-2.1133h1.421-1e-3zm-2.599 6.2452h2.987c1.579 0 2.515-0.7497 2.515-2.0496 0-0.846-0.474-1.4685-1.357-1.7333 0.619-0.2648 0.957-0.7823 0.957-1.4478 0-1.2053-0.957-1.955-2.472-1.955h-2.63v7.1857zm-6.48-5.3476 0.21-0.6981 0.211 0.6981 1.063 2.7993h-2.546l1.064-2.7993h-2e-3zm3.681 5.3476-2.757-7.1857h-1.378l-2.756 7.1857h1.178l0.609-1.6163h3.262l0.609 1.6163h1.233zm-12.77-5.3476 0.21-0.6981 0.211 0.6981 1.063 2.7993h-2.546l1.063-2.7993h-1e-3zm3.681 5.3476-2.757-7.1857h-1.378l-2.756 7.1857h1.178l0.609-1.6163h3.261l0.61 1.6163h1.233zm-8.78 0h1.178v-7.1857h-1.178v7.1857zm-0.938-5.0501c-0.337-1.4908-1.556-2.2715-2.977-2.2715-2.061 0-3.315 1.4375-3.315 3.7399s1.242 3.7192 3.282 3.7192c1.409 0 2.609-0.803 2.998-2.2301h-1.241c-0.274 0.8133-0.937 1.2363-1.757 1.2363-1.315 0-2.083-1.0248-2.083-2.7254s0.779-2.7477 2.083-2.7477c0.853 0 1.536 0.4539 1.779 1.2793h1.231zm-12.022 5.0501-0.032-5.5471 0.462 0.877 2.987 4.6701h1.231v-7.1857h-1.178l0.031 5.5367-0.452-0.846-2.997-4.6907h-1.231v7.1857h1.179zm-5.593-5.3476 0.211-0.6981 0.21 0.6981 1.063 2.7993h-2.545l1.063-2.7993h-2e-3zm3.683 5.3476-2.757-7.1857h-1.378l-2.756 7.1857h1.178l0.609-1.6163h3.261l0.61 1.6163h1.233zm-2.798-7.8718-0.926-1.2776h-1.335l1.21 1.2776h1.053-2e-3zm-9.245 7.8718h4.64v-0.9612h-3.462v-6.2228h-1.178v7.1857-0.0017zm-2.518 0h1.178v-7.1857h-1.178v7.1857zm-1.26-3.7399h-2.82v0.9199h1.693c-0.073 1.3739-0.863 1.9654-1.84 1.9654-1.325 0-2.115-1.0248-2.115-2.7254 0-1.7005 0.779-2.7477 2.084-2.7477 0.853 0 1.525 0.4539 1.779 1.2793h1.231c-0.338-1.4908-1.557-2.2714-2.978-2.2714-2.061 0-3.314 1.4374-3.314 3.7398s1.251 3.7192 3.208 3.7192c0.916 0 1.683-0.3696 2.125-1.152l0.094 1.0145h0.853v-3.7416zm-8.516 3.7399h1.178v-7.1857h-1.178v7.1857zm-6.382-7.1857h-1.242l2.767 7.1857h1.368l2.756-7.1857h-1.167l-2.031 5.3458-0.21 0.7188-0.211-0.7188-2.03-5.3458z"/>
<path d="m42.155 29.642c-0.0428 0.0086-0.0548 0.0069-0.0616 0.012-1.3166 0.8529-2.6348 1.704-3.948 2.5638-0.0548 0.0361-0.0976 0.1375-0.0976 0.208 0 0.4763 0.0052 0.9526 0.0292 1.4289 0.1095 2.3093 0.493 4.5756 1.0631 6.8143 1.0444 4.1164 2.8506 7.8683 5.3176 11.311 1.1453 1.5974 2.4174 3.0796 3.8247 4.4466 1.6452 1.5974 3.4377 3.0091 5.3483 4.2677 1.2995 0.8563 2.652 1.6232 4.0764 2.2577 0.1678 0.074 0.2876 0.0654 0.4434-0.0361 1.2138-0.8013 2.4345-1.5922 3.6535-2.3883 0.0685-0.0448 0.1284-0.0981 0.214-0.1634-11.359-7.1719-18.036-17.374-19.861-30.724"/>
<path d="m106.78 23.845c-0.68-3.2378-1.793-6.3157-3.392-9.2078-1.14-2.0651-2.458-4.0099-3.9955-5.8016-1.2584-1.4667-2.6092-2.8371-4.1226-4.0339-1.1197-0.88381-2.2736-1.7229-3.4429-2.5414-1.2686-0.88725-2.64-1.6043-4.0524-2.237-0.0719-0.03267-0.1951-0.03267-0.2602 0.0085974-1.3183 0.85114-2.6314 1.7092-3.9925 2.5964 11.378 7.1771 18.062 17.38 19.892 30.772 1.354-0.8821 2.678-1.7436 3.994-2.6119 0.062-0.0413 0.106-0.1582 0.106-0.239-8e-3 -0.6568-0.012-1.3154-0.053-1.9705-0.102-1.5957-0.352-3.1707-0.679-4.7355"/>
<path d="m66.608 36.862c-0.3595 1.0575-1.1522 1.6507-2.1931 1.9516-0.8509 0.2459-1.7257 0.3009-2.6057 0.3009-1.9688 0.0034-3.9377 0-5.9048 0-0.0565 0-0.113-0.0069-0.202-0.012v-7.9079c0.1096-0.0052 0.202-0.0155 0.2945-0.0155 1.9688 0 3.9376-0.0086 5.9048 0.0017 0.8406 0.0052 1.6778 0.0516 2.4944 0.2941 1.2909 0.3851 2.1263 1.1933 2.3729 2.5482 0.1729 0.9561 0.154 1.9121-0.1593 2.8372m-10.909-16.504c0.0907-0.0068 0.1643-0.0172 0.238-0.0172 2.0732 0.0018 4.1465-0.0017 6.2198 0.0121 0.6711 0.0051 1.3285 0.1358 1.9465 0.4144 0.8081 0.3628 1.32 0.9732 1.5066 1.8536 0.1592 0.7514 0.1695 1.5045-0.0239 2.2456-0.2962 1.1314-1.0957 1.7418-2.1897 1.9757-0.5273 0.1135-1.0752 0.1737-1.6162 0.1788-1.9483 0.0206-3.8983 0.0086-5.8466 0.0069-0.0736 0-0.1472-0.0103-0.2345-0.0172v-6.6527zm17.536 14.06c-0.3287-2.648-1.7737-4.407-4.239-5.3441-0.4246-0.1617-0.8731-0.2562-1.3251-0.3869 0.5496-0.2751 1.1026-0.5073 1.6127-0.8151 0.9999-0.6018 1.8559-1.3807 2.3164-2.4726 0.8783-2.0822 0.7961-4.192-0.0856-6.2468-0.7139-1.661-2.0681-2.6566-3.7151-3.2808-1.5031-0.5691-3.0731-0.7617-4.667-0.7651-4.4735-0.0086-8.947-0.0035-13.421-0.0035h-0.303v29.233c0.089 0.0035 0.1558 0.0104 0.2208 0.0104 4.655 0 9.3101 0.0103 13.965-0.0052 1.8421-0.0069 3.6449-0.2648 5.3466-1.0351 1.7754-0.8047 3.056-2.0926 3.7648-3.917 0.6232-1.6043 0.7396-3.2756 0.529-4.9762"/>
<path d="m82.313 32.945c1.2789-4.027 2.5509-8.0282 3.8229-12.029h0.0891c1.272 4.0029 2.544 8.0041 3.8229 12.028h-7.7366l0.0017 0.0017zm16.026 5.6657c-1.0598-2.789-2.1264-5.5763-3.1844-8.3653-0.9125-2.4072-1.8113-4.8196-2.7238-7.2286-0.9622-2.5414-1.9363-5.0794-2.8916-7.6225-0.0874-0.2338-0.1952-0.294-0.4281-0.2923-1.9397 0.0086-3.8811 0.0121-5.8209-0.0034-0.2602-0.0017-0.3629 0.0963-0.4451 0.3181-0.4331 1.1744-0.8783 2.3453-1.3182 3.518-0.8766 2.3351-1.7549 4.6701-2.6331 7.0052-1.207 3.212-2.4157 6.4239-3.6227 9.6359-0.9245 2.4606-1.849 4.9212-2.7718 7.3817-0.1695 0.4523-0.3355 0.9062-0.5119 1.3791 0.0856 0.0068 0.1319 0.0137 0.1798 0.0137 2.1024 0 4.2064-0.0034 6.3088 0.0052 0.1901 0 0.2397-0.0826 0.2876-0.2373 0.2329-0.748 0.476-1.4942 0.7174-2.2405 0.4246-1.3206 0.8509-2.6394 1.2772-3.9651h10.801c0.6609 2.0496 1.32 4.0717 1.9586 6.1007 0.0856 0.2717 0.2055 0.3439 0.4777 0.3422 2.0544-0.0121 4.1105-0.0069 6.1654-0.0069h0.321c-0.034-0.1169-0.053-0.1995-0.083-0.2786-0.687-1.8209-1.3718-3.6418-2.0617-5.461"/>
<path d="m13.26 37.138c-0.06-0.153-0.0942-0.2201-0.1147-0.2888-0.2603-0.8993-0.5171-1.7986-0.7756-2.6979-0.8885-3.0916-1.7788-6.1832-2.6673-9.2749-0.9108-3.1655-1.8216-6.3294-2.7273-9.4966-0.05992-0.2064-0.15066-0.282-0.37494-0.2803-1.7976 0.0103-3.5936 0.0069-5.3912 0.0069h-1.2087c0.034241 0.1152 0.054785 0.1891 0.078753 0.2596 0.46396 1.3722 0.92964 2.7443 1.3953 4.1164 0.95189 2.8097 1.9072 5.6176 2.8591 8.4272 0.97928 2.8887 1.9568 5.7792 2.9361 8.6696 0.8406 2.4846 1.6829 4.9676 2.5184 7.4539 0.07533 0.227 0.16607 0.3267 0.42973 0.325 2.0168-0.0137 4.0335-0.012 6.052-0.0017 0.2397 0 0.339-0.0705 0.416-0.3009 1.3337-4.0631 2.6759-8.1245 4.0182-12.184 1.801-5.4422 3.6038-10.884 5.4049-16.326 0.0445-0.1341 0.0856-0.2682 0.1352-0.4247h-6.6324c-2.1092 7.3147-4.2167 14.628-6.3482 22.02"/>
<path d="m33.662 15.117h-6.2489v29.219h6.2489v-29.219z"/>
<path d="m135.11 33.495c-1.865 0-3.729 0-5.594-0.0035-0.179 0-0.244 0.0585-0.27 0.2407-0.171 1.1934-0.467 2.3471-1.109 3.384-0.725 1.1709-1.755 1.9464-3.072 2.3316-1.125 0.3284-2.277 0.3628-3.432 0.2304-1.757-0.2012-3.187-0.9818-4.248-2.4176-0.909-1.2294-1.356-2.6428-1.613-4.125-0.352-2.0445-0.376-4.0992-0.108-6.154 0.201-1.5286 0.559-3.0125 1.392-4.3348 0.867-1.3739 2.063-2.311 3.657-2.7013 1.235-0.3009 2.478-0.3164 3.722-0.0929 1.587 0.2855 2.818 1.1263 3.681 2.4898 0.57 0.8993 0.887 1.9018 1.082 2.9403 0.051 0.2751 0.154 0.3628 0.44 0.3594 1.912-0.0138 3.823-0.0069 5.735-0.0069h0.356c-0.018-0.153-0.034-0.2751-0.049-0.3972-0.168-1.3154-0.5-2.5878-1.036-3.8017-0.688-1.5613-1.632-2.9369-2.94-4.0511-0.9-0.7669-1.891-1.3842-2.973-1.8467-1.445-0.6173-2.962-0.9234-4.53-1.0231-2.216-0.141-4.385 0.0687-6.48 0.8305-2.17 0.7875-3.981 2.0926-5.426 3.8929-1.323 1.649-2.164 3.5421-2.679 5.5866-0.457 1.814-0.615 3.659-0.572 5.5264 0.045 1.9739 0.346 3.8997 0.993 5.7671 0.517 1.4925 1.24 2.8767 2.226 4.1147 1.304 1.6369 2.922 2.8681 4.848 3.6779 1.594 0.6706 3.265 0.9853 4.989 1.0489 2.476 0.0912 4.867-0.2304 7.12-1.3377 1.707-0.8391 3.123-2.017 4.217-3.5748 1.012-1.4427 1.666-3.0452 2.02-4.7681 0.12-0.5778 0.195-1.1641 0.295-1.7591l3e-3 -0.0257h-0.65 5e-3z"/>
<path d="m161 34.606c-0.132-1.0781-0.493-2.084-1.156-2.9557-1.156-1.5252-2.684-2.5483-4.47-3.1553-2.058-0.7015-4.143-1.324-6.216-1.9825-1.18-0.3749-2.39-0.6655-3.474-1.2965-0.945-0.5503-1.512-1.3292-1.55-2.4709-0.042-1.2931 0.579-2.2508 1.798-2.691 1.387-0.5021 2.808-0.5193 4.234-0.2665 1.662 0.294 2.902 1.1452 3.559 2.6807 0.053 0.1272 0.125 0.3146 0.202 0.5553 2e-3 0.0069 5e-3 0.0155 7e-3 0.0224 9e-3 0.0258 0.016 0.055 0.024 0.0808 0.067 0.2425 0.118 0.4883 0.178 0.7308 0.099 0.5107 0.163 1.1176 0.122 1.7814h6.271s0.108-1.4994-0.084-2.5775c-0.305-2.5431-1.52-4.5566-3.535-6.099-1.365-1.0437-2.914-1.692-4.575-2.072-2.078-0.4763-4.179-0.5279-6.292-0.2545-1.629 0.2115-3.196 0.6225-4.624 1.4685-1.243 0.7359-2.231 1.7246-2.9 3.0176-0.522 1.0111-0.764 2.0995-0.835 3.2275-0.084 1.3257 0.042 2.6274 0.652 3.8293 0.77 1.52 1.999 2.5878 3.479 3.3736 1.566 0.8322 3.246 1.3807 4.935 1.8966 1.625 0.4952 3.253 0.9784 4.871 1.4925 0.723 0.2287 1.384 0.5949 1.964 1.0901 0.678 0.5795 0.995 1.3326 1.031 2.2182 0.029 0.7084-0.107 1.3721-0.511 1.9619-0.553 0.8064-1.38 1.2036-2.29 1.3928-1.8 0.3714-3.596 0.3077-5.338-0.3044-1.855-0.65-2.983-1.9499-3.308-3.9152-0.05-0.3061-0.077-0.6173-0.113-0.9165h-4e-3c-0.039-0.521-0.023-0.9732-0.023-0.9732h-6.415c-0.011 0.1169 0.054 0.9973 0.09 1.4821 7e-3 0.1067 0.016 0.2115 0.024 0.3164v0.0035c7e-3 0.0825 0.016 0.165 0.024 0.2476 0.182 1.7401 0.771 3.3254 1.83 4.7217 1.623 2.1373 3.825 3.3787 6.359 4.0837 2.044 0.5692 4.129 0.7256 6.244 0.5898 1.992-0.1272 3.901-0.552 5.658-1.5424 1.623-0.9147 2.835-2.2026 3.563-3.9359 0.654-1.5612 0.797-3.1896 0.594-4.8506"/>
</g>
</svg>
